<?xml version="1.0" encoding="UTF-8"?>
<svg width="700pt" height="700pt" version="1.1" viewBox="0 0 700 700" xmlns="http://www.w3.org/2000/svg" xmlns:xlink="http://www.w3.org/1999/xlink">
 <defs>
  <symbol id="x" overflow="visible">
   <path d="m3.6562-0.21875c-0.1875 0.09375-0.38672 0.16797-0.59375 0.21875-0.19922 0.050781-0.40625 0.078125-0.625 0.078125-0.66797 0-1.1992-0.17969-1.5938-0.54688-0.38672-0.375-0.57812-0.87891-0.57812-1.5156 0-0.64453 0.19141-1.1484 0.57812-1.5156 0.39453-0.375 0.92578-0.5625 1.5938-0.5625 0.21875 0 0.42578 0.027344 0.625 0.078125 0.20703 0.054687 0.40625 0.125 0.59375 0.21875v0.82812c-0.1875-0.125-0.375-0.21875-0.5625-0.28125-0.17969-0.0625-0.37109-0.09375-0.57812-0.09375-0.36719 0-0.65625 0.12109-0.875 0.35938-0.21094 0.23047-0.3125 0.55469-0.3125 0.96875 0 0.40625 0.10156 0.73047 0.3125 0.96875 0.21875 0.23047 0.50781 0.34375 0.875 0.34375 0.20703 0 0.39844-0.023437 0.57812-0.078125 0.1875-0.0625 0.375-0.16016 0.5625-0.29688z"/>
  </symbol>
  <symbol id="d" overflow="visible">
   <path d="m2.6875-2.1719c-0.085938-0.039063-0.16797-0.070313-0.25-0.09375-0.085938-0.019531-0.16797-0.03125-0.25-0.03125-0.25 0-0.44531 0.085937-0.57812 0.25-0.125 0.15625-0.1875 0.38281-0.1875 0.67188v1.375h-0.96875v-2.9844h0.96875v0.48438c0.11328-0.19531 0.25-0.33594 0.40625-0.42188 0.16406-0.09375 0.35938-0.14062 0.57812-0.14062h0.10938c0.039063 0 0.09375 0.007812 0.15625 0.015625z"/>
  </symbol>
  <symbol id="b" overflow="visible">
   <path d="m3.4375-1.5v0.26562h-2.2344c0.03125 0.23047 0.11328 0.40234 0.25 0.51562 0.13281 0.10547 0.32812 0.15625 0.57812 0.15625 0.20703 0 0.41406-0.023438 0.625-0.078125 0.20703-0.0625 0.42188-0.15625 0.64062-0.28125v0.73438c-0.21875 0.09375-0.44531 0.16406-0.67188 0.20312-0.23047 0.039062-0.45312 0.0625-0.67188 0.0625-0.54297 0-0.96484-0.13281-1.2656-0.40625-0.30469-0.28125-0.45312-0.67188-0.45312-1.1719 0-0.47656 0.14453-0.85938 0.4375-1.1406 0.30078-0.28125 0.70703-0.42188 1.2188-0.42188 0.46875 0 0.84375 0.14062 1.125 0.42188s0.42188 0.66406 0.42188 1.1406zm-0.96875-0.32812c0-0.17578-0.058594-0.31641-0.17188-0.42188-0.10547-0.11328-0.24219-0.17188-0.40625-0.17188-0.1875 0-0.33984 0.054687-0.45312 0.15625-0.11719 0.10547-0.1875 0.25-0.21875 0.4375z"/>
  </symbol>
  <symbol id="a" overflow="visible">
   <path d="m1.7969-1.3438c-0.19922 0-0.35156 0.039062-0.45312 0.10938-0.09375 0.0625-0.14062 0.16406-0.14062 0.29688 0 0.11719 0.035156 0.21094 0.10938 0.28125 0.082031 0.0625 0.19531 0.09375 0.34375 0.09375 0.17578 0 0.32812-0.0625 0.45312-0.1875s0.1875-0.28516 0.1875-0.48438v-0.10938zm1.4688-0.35938v1.7031h-0.96875v-0.4375c-0.125 0.17969-0.27344 0.30859-0.4375 0.39062-0.15625 0.082031-0.35156 0.125-0.57812 0.125-0.3125 0-0.57031-0.085938-0.76562-0.26562-0.1875-0.1875-0.28125-0.42188-0.28125-0.70312 0-0.35156 0.11719-0.61328 0.35938-0.78125 0.23828-0.16406 0.61719-0.25 1.1406-0.25h0.5625v-0.0625c0-0.15625-0.0625-0.26562-0.1875-0.32812-0.11719-0.070312-0.29688-0.10938-0.54688-0.10938-0.21094 0-0.40234 0.023437-0.57812 0.0625-0.17969 0.042969-0.33984 0.10156-0.48438 0.17188v-0.71875c0.19531-0.050781 0.39844-0.085938 0.60938-0.10938 0.20703-0.03125 0.41406-0.046875 0.625-0.046875 0.53906 0 0.92969 0.10938 1.1719 0.32812 0.23828 0.21094 0.35938 0.55469 0.35938 1.0312z"/>
  </symbol>
  <symbol id="c" overflow="visible">
   <path d="m1.5-3.8438v0.85938h0.98438v0.67188h-0.98438v1.2812c0 0.13672 0.023438 0.23047 0.078125 0.28125 0.0625 0.042969 0.17578 0.0625 0.34375 0.0625h0.48438v0.6875h-0.8125c-0.38672 0-0.65625-0.078125-0.8125-0.23438s-0.23438-0.42188-0.23438-0.79688v-1.2812h-0.46875v-0.67188h0.46875v-0.85938z"/>
  </symbol>
  <symbol id="l" overflow="visible">
   <path d="m2.5-2.5469v-1.6094h0.95312v4.1562h-0.95312v-0.4375c-0.13672 0.17969-0.28125 0.30859-0.4375 0.39062-0.15625 0.082031-0.33984 0.125-0.54688 0.125-0.375 0-0.68359-0.14453-0.92188-0.4375-0.23047-0.28906-0.34375-0.67188-0.34375-1.1406 0-0.45703 0.11328-0.83203 0.34375-1.125 0.23828-0.28906 0.54688-0.4375 0.92188-0.4375 0.19531 0 0.375 0.042969 0.53125 0.125 0.16406 0.085938 0.31641 0.21484 0.45312 0.39062zm-0.64062 1.9375c0.20703 0 0.36328-0.070313 0.46875-0.21875 0.11328-0.15625 0.17188-0.37891 0.17188-0.67188 0-0.28125-0.058594-0.49219-0.17188-0.64062-0.10547-0.15625-0.26172-0.23438-0.46875-0.23438-0.19922 0-0.35547 0.078125-0.46875 0.23438-0.10547 0.14844-0.15625 0.35938-0.15625 0.64062 0 0.29297 0.050781 0.51562 0.15625 0.67188 0.11328 0.14844 0.26953 0.21875 0.46875 0.21875z"/>
  </symbol>
  <symbol id="k" overflow="visible">
   <path d="m2.0469-0.60938c0.20703 0 0.36328-0.070313 0.46875-0.21875 0.11328-0.15625 0.17188-0.37891 0.17188-0.67188 0-0.28125-0.058594-0.49219-0.17188-0.64062-0.10547-0.15625-0.26172-0.23438-0.46875-0.23438-0.19922 0-0.35547 0.078125-0.46875 0.23438-0.10547 0.14844-0.15625 0.35938-0.15625 0.64062 0 0.29297 0.050781 0.51562 0.15625 0.67188 0.11328 0.14844 0.26953 0.21875 0.46875 0.21875zm-0.625-1.9375c0.125-0.17578 0.26562-0.30469 0.42188-0.39062 0.16406-0.082031 0.35156-0.125 0.5625-0.125 0.36328 0 0.66406 0.14844 0.90625 0.4375 0.23828 0.29297 0.35938 0.66797 0.35938 1.125 0 0.46875-0.12109 0.85156-0.35938 1.1406-0.24219 0.29297-0.54297 0.4375-0.90625 0.4375-0.21094 0-0.39844-0.042969-0.5625-0.125-0.15625-0.082031-0.29688-0.21094-0.42188-0.39062v0.4375h-0.96875v-4.1562h0.96875z"/>
  </symbol>
  <symbol id="j" overflow="visible">
   <path d="m0.0625-2.9844h0.95312l0.8125 2.0156 0.6875-2.0156h0.95312l-1.2656 3.2656c-0.125 0.33203-0.27344 0.56641-0.4375 0.70312-0.16797 0.13281-0.39062 0.20312-0.67188 0.20312h-0.54688v-0.64062h0.29688c0.16406 0 0.28516-0.027344 0.35938-0.078125 0.070313-0.054688 0.12891-0.14062 0.17188-0.26562l0.03125-0.09375z"/>
  </symbol>
  <symbol id="i" overflow="visible">
   <path d="m2.7969-2.8906v0.71875c-0.21094-0.082031-0.40625-0.14453-0.59375-0.1875-0.1875-0.039063-0.37109-0.0625-0.54688-0.0625-0.17969 0-0.3125 0.023437-0.40625 0.0625-0.085938 0.042969-0.125 0.10938-0.125 0.20312 0 0.085938 0.03125 0.14844 0.09375 0.1875 0.070312 0.042969 0.19531 0.074219 0.375 0.09375l0.15625 0.015625c0.48828 0.0625 0.81641 0.16797 0.98438 0.3125 0.17578 0.13672 0.26562 0.35938 0.26562 0.67188s-0.12109 0.55469-0.35938 0.71875c-0.23047 0.15625-0.57812 0.23438-1.0469 0.23438-0.19922 0-0.40625-0.015625-0.625-0.046875-0.21094-0.03125-0.42188-0.078125-0.64062-0.14062v-0.71875c0.1875 0.085937 0.37891 0.15234 0.57812 0.20312 0.20703 0.042969 0.41406 0.0625 0.625 0.0625 0.1875 0 0.32812-0.023438 0.42188-0.078125 0.09375-0.050781 0.14062-0.125 0.14062-0.21875s-0.039062-0.16016-0.10938-0.20312c-0.0625-0.039062-0.1875-0.070312-0.375-0.09375l-0.17188-0.015625c-0.42969-0.050781-0.73047-0.14844-0.90625-0.29688-0.16797-0.14453-0.25-0.36328-0.25-0.65625 0-0.32031 0.10938-0.55469 0.32812-0.70312 0.21875-0.15625 0.55078-0.23438 1-0.23438 0.17578 0 0.35938 0.015625 0.54688 0.046875 0.19531 0.023437 0.41016 0.0625 0.64062 0.125z"/>
  </symbol>
  <symbol id="h" overflow="visible">
   <path d="m0.42188-1.1719v-1.8125h0.96875v0.29688 0.60938 0.48438c0 0.24219 0.003906 0.41797 0.015625 0.53125 0.007812 0.10547 0.03125 0.17969 0.0625 0.21875 0.039062 0.0625 0.09375 0.11719 0.15625 0.15625 0.0625 0.03125 0.13281 0.046875 0.21875 0.046875 0.19531 0 0.35156-0.078125 0.46875-0.23438 0.11328-0.15625 0.17188-0.36719 0.17188-0.64062v-1.4688h0.95312v2.9844h-0.95312v-0.4375c-0.14844 0.17969-0.30469 0.30859-0.46875 0.39062-0.15625 0.082031-0.33594 0.125-0.53125 0.125-0.34375 0-0.60938-0.10156-0.79688-0.3125-0.17969-0.21875-0.26562-0.53125-0.26562-0.9375z"/>
  </symbol>
  <symbol id="g" overflow="visible">
   <path d="m1.4219-0.4375v1.5781h-0.96875v-4.125h0.96875v0.4375c0.125-0.17578 0.26562-0.30469 0.42188-0.39062 0.16406-0.082031 0.35156-0.125 0.5625-0.125 0.36328 0 0.66406 0.14844 0.90625 0.4375 0.23828 0.29297 0.35938 0.66797 0.35938 1.125 0 0.46875-0.12109 0.85156-0.35938 1.1406-0.24219 0.29297-0.54297 0.4375-0.90625 0.4375-0.21094 0-0.39844-0.042969-0.5625-0.125-0.15625-0.082031-0.29688-0.21094-0.42188-0.39062zm0.625-1.9375c-0.19922 0-0.35547 0.078125-0.46875 0.23438-0.10547 0.14844-0.15625 0.35938-0.15625 0.64062 0 0.29297 0.050781 0.51562 0.15625 0.67188 0.11328 0.14844 0.26953 0.21875 0.46875 0.21875 0.20703 0 0.36328-0.070313 0.46875-0.21875 0.11328-0.15625 0.17188-0.37891 0.17188-0.67188 0-0.28125-0.058594-0.49219-0.17188-0.64062-0.10547-0.15625-0.26172-0.23438-0.46875-0.23438z"/>
  </symbol>
  <symbol id="f" overflow="visible">
   <path d="m0.45312-4.1562h0.96875v4.1562h-0.96875z"/>
  </symbol>
  <symbol id="w" overflow="visible">
   <path d="m0.45312-4.1562h0.96875v2.2656l1.0938-1.0938h1.1094l-1.4531 1.3594 1.5625 1.625h-1.1562l-1.1562-1.25v1.25h-0.96875z"/>
  </symbol>
  <symbol id="v" overflow="visible">
   <path d="m0.45312-2.9844h0.96875v2.9844h-0.96875zm0-1.1719h0.96875v0.78125h-0.96875z"/>
  </symbol>
  <symbol id="u" overflow="visible">
   <path d="m0.1875-2.9844h0.9375l0.5 2.0625 0.5-2.0625h0.79688l0.5 2.0312 0.51562-2.0312h0.92188l-0.78125 2.9844h-1.0469l-0.5-2.0625-0.5 2.0625h-1.0469z"/>
  </symbol>
  <symbol id="t" overflow="visible">
   <path d="m2.4219-4.1562v0.625h-0.51562c-0.13672 0-0.23438 0.027344-0.29688 0.078125-0.054687 0.054687-0.078125 0.13672-0.078125 0.25v0.21875h0.82812v0.67188h-0.82812v2.3125h-0.95312v-2.3125h-0.46875v-0.67188h0.46875v-0.21875c0-0.32031 0.085937-0.5625 0.26562-0.71875 0.1875-0.15625 0.47266-0.23438 0.85938-0.23438z"/>
  </symbol>
  <symbol id="e" overflow="visible">
   <path d="m1.875-2.375c-0.21094 0-0.37109 0.078125-0.48438 0.23438-0.10547 0.14844-0.15625 0.35938-0.15625 0.64062 0 0.29297 0.050781 0.51562 0.15625 0.67188 0.11328 0.14844 0.27344 0.21875 0.48438 0.21875 0.20703 0 0.36719-0.070313 0.48438-0.21875 0.11328-0.15625 0.17188-0.37891 0.17188-0.67188 0-0.28125-0.058594-0.49219-0.17188-0.64062-0.11719-0.15625-0.27734-0.23438-0.48438-0.23438zm0-0.6875c0.51953 0 0.92188 0.14062 1.2031 0.42188 0.28906 0.27344 0.4375 0.65234 0.4375 1.1406 0 0.5-0.14844 0.89062-0.4375 1.1719-0.28125 0.27344-0.68359 0.40625-1.2031 0.40625-0.51172 0-0.91406-0.13281-1.2031-0.40625-0.29297-0.28125-0.4375-0.67188-0.4375-1.1719 0-0.48828 0.14453-0.86719 0.4375-1.1406 0.28906-0.28125 0.69141-0.42188 1.2031-0.42188z"/>
  </symbol>
  <symbol id="s" overflow="visible">
   <path d="m3.2344-2.5c0.11328-0.17578 0.25391-0.3125 0.42188-0.40625 0.16406-0.10156 0.35156-0.15625 0.5625-0.15625 0.33203 0 0.58594 0.10938 0.76562 0.32812 0.1875 0.21094 0.28125 0.51172 0.28125 0.90625v1.8281h-0.96875v-1.5625c0.007813-0.019531 0.015625-0.039062 0.015625-0.0625v-0.10938c0-0.21875-0.03125-0.375-0.09375-0.46875s-0.16406-0.14062-0.29688-0.14062c-0.1875 0-0.33594 0.078125-0.4375 0.23438-0.09375 0.14844-0.14062 0.35938-0.14062 0.64062v1.4688h-0.96875v-1.5625c0-0.33203-0.03125-0.54688-0.09375-0.64062-0.054688-0.09375-0.15234-0.14062-0.29688-0.14062-0.17969 0-0.32031 0.078125-0.42188 0.23438-0.09375 0.14844-0.14062 0.35938-0.14062 0.64062v1.4688h-0.96875v-2.9844h0.96875v0.4375c0.11328-0.17578 0.24219-0.30469 0.39062-0.39062 0.15625-0.082031 0.32812-0.125 0.51562-0.125 0.20703 0 0.39062 0.054688 0.54688 0.15625 0.15625 0.09375 0.27344 0.23047 0.35938 0.40625z"/>
  </symbol>
  <symbol id="r" overflow="visible">
   <path d="m3.4688-1.8281v1.8281h-0.96875v-1.3906c0-0.25781-0.007812-0.4375-0.015625-0.53125-0.011719-0.10156-0.03125-0.17578-0.0625-0.21875-0.03125-0.0625-0.085937-0.10938-0.15625-0.14062-0.0625-0.039062-0.13281-0.0625-0.20312-0.0625-0.21094 0-0.37109 0.078125-0.48438 0.23438-0.10547 0.15625-0.15625 0.37109-0.15625 0.64062v1.4688h-0.96875v-4.1562h0.96875v1.6094c0.13281-0.17578 0.28516-0.30469 0.45312-0.39062 0.16406-0.082031 0.34375-0.125 0.53125-0.125 0.34375 0 0.60156 0.10938 0.78125 0.32812 0.1875 0.21094 0.28125 0.51172 0.28125 0.90625z"/>
  </symbol>
  <symbol id="q" overflow="visible">
   <path d="m0.5-3.9844h1.1562l1.4375 2.7344v-2.7344h0.98438v3.9844h-1.1562l-1.4375-2.7344v2.7344h-0.98438z"/>
  </symbol>
  <symbol id="p" overflow="visible">
   <path d="m3.4688-1.8281v1.8281h-0.96875v-1.3906c0-0.25781-0.007812-0.4375-0.015625-0.53125-0.011719-0.10156-0.03125-0.17578-0.0625-0.21875-0.03125-0.0625-0.085937-0.10938-0.15625-0.14062-0.0625-0.039062-0.13281-0.0625-0.20312-0.0625-0.21094 0-0.37109 0.078125-0.48438 0.23438-0.10547 0.15625-0.15625 0.37109-0.15625 0.64062v1.4688h-0.96875v-2.9844h0.96875v0.4375c0.13281-0.17578 0.28516-0.30469 0.45312-0.39062 0.16406-0.082031 0.34375-0.125 0.53125-0.125 0.34375 0 0.60156 0.10938 0.78125 0.32812 0.1875 0.21094 0.28125 0.51172 0.28125 0.90625z"/>
  </symbol>
  <symbol id="o" overflow="visible">
   <path d="m0.5-3.9844h1.7031c0.50781 0 0.89844 0.11719 1.1719 0.34375 0.26953 0.21875 0.40625 0.53906 0.40625 0.95312 0 0.41797-0.13672 0.74219-0.40625 0.96875-0.27344 0.21875-0.66406 0.32812-1.1719 0.32812h-0.67188v1.3906h-1.0312zm1.0312 0.75v1.1094h0.5625c0.19531 0 0.34766-0.046875 0.45312-0.14062 0.11328-0.10156 0.17188-0.24219 0.17188-0.42188 0-0.17578-0.058594-0.3125-0.17188-0.40625-0.10547-0.09375-0.25781-0.14062-0.45312-0.14062z"/>
  </symbol>
  <symbol id="n" overflow="visible">
   <path d="m0.45312-2.9844h0.96875v2.9375c0 0.39453-0.10156 0.69531-0.29688 0.90625-0.1875 0.21875-0.46484 0.32812-0.82812 0.32812h-0.48438v-0.64062h0.17188c0.17578 0 0.29688-0.042969 0.35938-0.125 0.070312-0.074219 0.10938-0.23047 0.10938-0.46875zm0-1.1719h0.96875v0.78125h-0.96875z"/>
  </symbol>
  <symbol id="m" overflow="visible">
   <path d="m2.875-2.8906v0.76562c-0.125-0.082031-0.25781-0.14453-0.39062-0.1875-0.13672-0.039062-0.27344-0.0625-0.40625-0.0625-0.27344 0-0.48047 0.078125-0.625 0.23438-0.14844 0.15625-0.21875 0.37109-0.21875 0.64062 0 0.28125 0.070313 0.5 0.21875 0.65625 0.14453 0.15625 0.35156 0.23438 0.625 0.23438 0.14453 0 0.28516-0.019531 0.42188-0.0625 0.13281-0.039063 0.25781-0.10938 0.375-0.20312v0.78125c-0.14844 0.0625-0.29688 0.10156-0.45312 0.125-0.15625 0.03125-0.3125 0.046875-0.46875 0.046875-0.54297 0-0.96484-0.13281-1.2656-0.40625-0.30469-0.28125-0.45312-0.67188-0.45312-1.1719 0-0.48828 0.14844-0.86719 0.45312-1.1406 0.30078-0.28125 0.72266-0.42188 1.2656-0.42188 0.15625 0 0.3125 0.015625 0.46875 0.046875 0.15625 0.023437 0.30469 0.0625 0.45312 0.125z"/>
  </symbol>
 </defs>
 <g>
  <path d="m345.19 118.5-33.438 13.375c-0.070312 0.027344-0.13281 0.070312-0.20312 0.10156-0.097656 0.042969-0.19922 0.070313-0.29688 0.11719l-73.668 34.957-0.003906 0.003907c-7.8828 3.5586-13.289 11.035-14.207 19.637-0.91797 8.6016 2.793 17.047 9.75 22.191 6.957 5.1445 16.117 6.2148 24.074 2.8164 0.085938-0.039063 0.17578-0.078125 0.26172-0.11719l61.031-28.555 25.996-10.398-29.035 87.105c-0.89062 2.668-0.44141 5.6016 1.2031 7.8828 1.6445 2.2812 4.2852 3.6328 7.0977 3.6328v17.5c-0.003906 5.6367 1.0898 11.219 3.2148 16.441l-36.277 65.305-85.434 68.344-18.645 9.3242v-0.003906c-6.168 3.0977-11.148 8.1328-14.18 14.332-3.0312 6.2031-3.9492 13.227-2.6055 19.996l5.3438 26.73v-0.003906c0.22656 1.1211 0.66797 2.1875 1.3008 3.1406l17.5 26.25c1.625 2.4336 4.3555 3.8945 7.2812 3.8945h18.191c6.7344 0 13.094-3.1055 17.238-8.4141 4.1445-5.3086 5.6133-12.23 3.9805-18.766l-4.4102-17.648v-20.797l96.695-72.523c3.9766-2.9727 7.4102-6.6055 10.16-10.734 0 0 14.328-21.496 14.398-21.613l23.699-39.504h49.586l-43.301 72.168h0.007813c-12.18 6.7812-21.363 17.891-25.734 31.125-1.3047 3.957-1.375 8.2148-0.19531 12.207 1.1797 3.9961 3.5508 7.5352 6.7969 10.145l37.418 29.938c1.5508 1.2422 3.4805 1.918 5.4688 1.918h6.1016c7.0078 0 13.777-2.5469 19.047-7.1641 5.2695-4.6211 8.6836-10.996 9.6016-17.945 0.91797-6.9453-0.71484-13.988-4.6055-19.82l-10.734-16.102 60.141-82.688c5.1836-7.0977 7.9688-15.664 7.9492-24.449v-2.1172c0.027344-8.3125-2.4531-16.441-7.1133-23.324-4.6602-6.8828-11.285-12.203-19.016-15.266l-59.211-23.684 11.266-33.805 16.094 10.73c0.12891 0.14453 0.25781 0.28906 0.39844 0.42969v-0.003906c6.0234 6.0117 14.113 9.4922 22.617 9.7383 8.5078 0.24219 16.785-2.7695 23.141-8.4258l50.922-45.812c7.1992-6.5039 10.449-16.312 8.5547-25.824-1.8906-9.5156-8.6445-17.336-17.781-20.59-9.1406-3.2578-19.316-1.4688-26.797 4.707l-37.598 32.023-24.52-24.52c7.5977-2.0039 14.523-6 20.059-11.578 5.5352-5.582 9.4805-12.539 11.422-20.152 10.988-2.3867 20.16-9.9102 24.652-20.219 4.4922-10.309 3.7578-22.145-1.9727-31.82-5.7305-9.6758-15.758-16.008-26.957-17.02-0.050781-0.36328-0.10547-0.73047-0.16406-1.0938h-0.003906c-2.2305-13.648-10.789-25.438-23.07-31.793-12.285-6.3555-26.852-6.5273-39.281-0.46484s-21.262 17.645-23.82 31.238c-2.5547 13.59 1.4688 27.594 10.848 37.754-4.2031 6.8672-6.4258 14.758-6.418 22.809 0 0.58594 0.027344 1.168 0.050781 1.75-4.9805-1.1641-10.078-1.75-15.191-1.75-8.4531-0.007812-16.828 1.6055-24.672 4.75zm-38.938 50.934-56.051 26.227c-3.0352 1.2383-6.5195 0.17188-8.3359-2.5547-1.125-1.6875-1.4453-3.7852-0.88281-5.7344 0.56641-1.9492 1.9609-3.5508 3.8125-4.375l0.19922-0.089844 61.258-29.07zm-83.363 353.88c-0.82031 1.0703-2.0977 1.6953-3.4453 1.6836h-13.508l-13.941-20.914-5.0078-25.031c-1.2266-6.1797 1.8242-12.414 7.4531-15.242l12.566-6.2812 11.746 17.617v23.602c0 0.71484 0.085938 1.4297 0.26172 2.1211l4.6719 18.691c0.33984 1.3086 0.042968 2.6992-0.79688 3.7539zm6.7617-63.367-7.918-11.879 30.035-24.023 8.5859 12.879zm98.891-76.035c-1.6484 2.4766-3.707 4.6523-6.0898 6.4336l-48.078 36.059-8.8906-13.336 37.488-29.988c0.89062-0.71094 1.6328-1.5859 2.1875-2.582l11.148-20.066 20.922 10.461zm18.125-27.867-21.859-10.93 13.32-23.977c6.4023 5.8281 14.395 9.6133 22.957 10.883zm70.688 116.45h-3.0312l-35.027-28.02c-0.93359-0.75391-1.3047-2.0117-0.92969-3.1523 2.6719-8.0898 7.9688-15.051 15.051-19.785l20.273 13.516 13.148 19.723c2.3281 3.4961 2.5469 7.9922 0.5625 11.699-1.9844 3.7031-5.8438 6.0195-10.047 6.0195zm0.51172-55.691-12.32-8.2109 23.488-39.145 15.672 10.449zm36-97.371v0.003906c-1.5508-2.7461-4.4609-4.4414-7.6133-4.4414h-4.5781l9.4492-23.625 15 6h0.003906c4.4727 1.7734 8.3086 4.8516 11.008 8.8359 2.6953 3.9883 4.1328 8.6914 4.1172 13.504v2.1172c0.011719 5.0859-1.6016 10.043-4.6016 14.152l-21.641 29.754-16.961-11.309 15.707-26.18c1.6211-2.7031 1.6641-6.0664 0.10938-8.8086zm-18.988-34.562-12.047 30.125h-55.328c-6.9609-0.007812-13.633-2.7773-18.555-7.6953-4.918-4.9219-7.6875-11.594-7.6953-18.555v-17.5h59.566zm35.898-86.859 42.328-36.051v0.003906c4.2383-3.4023 10.41-2.8281 13.945 1.3008 3.5352 4.1289 3.1523 10.316-0.86328 13.977l-50.922 45.812c-2.4297 2.1602-5.4688 3.5156-8.6953 3.8906-3.2305 0.375-6.4961-0.25-9.3594-1.7969zm-42.023-58.016c-1.9375 0-3.8711-0.21094-5.7617-0.63672l-6.1562-6.1562c-3.7656-3.7656-7.9609-7.0664-12.508-9.8359-2.8477-7.2305-2.3398-15.348 1.3828-22.164 7.8047 3.5039 16.469 4.625 24.906 3.2266 0.35938-0.058594 0.71875-0.12109 1.0781-0.1875 4.0586 9.1836 11.852 16.199 21.414 19.27-1.9648 4.8555-5.332 9.0156-9.668 11.949-4.3398 2.9375-9.4492 4.5156-14.688 4.5352zm-9.4141-104.65c8.0156-1.2969 16.18 1.1836 22.121 6.7188 5.9414 5.5352 8.9844 13.508 8.2539 21.594-0.25391 2.7617 0.81641 5.4766 2.8828 7.3242 2.0664 1.8438 4.8867 2.6055 7.6016 2.043 0.24219-0.050782 0.48047-0.097656 0.72656-0.14062 4.5781-0.74609 9.2695 0.35547 13.039 3.0664 3.7656 2.707 6.3047 6.8047 7.0508 11.383 0.75 4.582-0.35156 9.2695-3.0625 13.039-2.7109 3.7695-6.8047 6.3047-11.383 7.0547-4.582 0.75-9.2734-0.35156-13.039-3.0625-3.7695-2.707-6.3086-6.8047-7.0547-11.383-0.039062-0.24609-0.070312-0.48828-0.097656-0.73438h-0.003906c-0.32812-2.7539-1.9414-5.1875-4.3516-6.5625-2.4062-1.375-5.3242-1.5234-7.8594-0.41016-2.0352 0.89453-4.1758 1.5273-6.3711 1.8828-6.8711 1.125-13.906-0.53125-19.559-4.5977-5.6523-4.0625-9.457-10.207-10.578-17.078s0.53125-13.906 4.5977-19.559c4.0664-5.6523 10.211-9.457 17.082-10.578zm-26.484 101.62c0.1875 0.12109 0.38672 0.21875 0.58203 0.32812h0.003906c4.043 2.2305 7.7539 5.0195 11.02 8.2891l48.645 48.645-5.4336 10.863-4.8125 9.625-18.004-12h0.003907c-2.2695-1.5117-5.1133-1.8828-7.6914-0.99609-2.582 0.88672-4.6016 2.9219-5.4648 5.5078l-15.504 46.523h-60.305l31.16-93.484c1.0781-3.2305 0.18359-6.793-2.2969-9.1328-2.4805-2.3359-6.0898-3.0234-9.2539-1.7578l-31.75 12.703v-16.152l27.934-11.176c13.383-5.3477 28.438-4.5352 41.168 2.2148z"/>
  <path d="m280 297.5c0-2.3203-0.92188-4.5469-2.5625-6.1875s-3.8672-2.5625-6.1875-2.5625h-35c-4.832 0-8.75 3.918-8.75 8.75s3.918 8.75 8.75 8.75h35c2.3203 0 4.5469-0.92188 6.1875-2.5625s2.5625-3.8672 2.5625-6.1875z"/>
  <path d="m201.25 306.25c4.832 0 8.75-3.918 8.75-8.75s-3.918-8.75-8.75-8.75h-17.5c-4.832 0-8.75 3.918-8.75 8.75s3.918 8.75 8.75 8.75z"/>
  <path d="m210 227.5h-52.5c-4.832 0-8.75 3.918-8.75 8.75s3.918 8.75 8.75 8.75h52.5c4.832 0 8.75-3.918 8.75-8.75s-3.918-8.75-8.75-8.75z"/>
  <path d="m122.5 227.5h-17.5c-4.832 0-8.75 3.918-8.75 8.75s3.918 8.75 8.75 8.75h17.5c4.832 0 8.75-3.918 8.75-8.75s-3.918-8.75-8.75-8.75z"/>
  <path d="m166.25 350c0 2.3203 0.92188 4.5469 2.5625 6.1875s3.8672 2.5625 6.1875 2.5625h52.5c4.832 0 8.75-3.918 8.75-8.75s-3.918-8.75-8.75-8.75h-52.5c-4.832 0-8.75 3.918-8.75 8.75z"/>
  <path d="m113.75 350c0 2.3203 0.92188 4.5469 2.5625 6.1875s3.8672 2.5625 6.1875 2.5625h17.5c4.832 0 8.75-3.918 8.75-8.75s-3.918-8.75-8.75-8.75h-17.5c-4.832 0-8.75 3.918-8.75 8.75z"/>
  <use x="70" y="576.40625" xlink:href="#x"/>
  <use x="74.011719" y="576.40625" xlink:href="#d"/>
  <use x="76.710938" y="576.40625" xlink:href="#b"/>
  <use x="80.417969" y="576.40625" xlink:href="#a"/>
  <use x="84.109375" y="576.40625" xlink:href="#c"/>
  <use x="86.722656" y="576.40625" xlink:href="#b"/>
  <use x="90.433594" y="576.40625" xlink:href="#l"/>
  <use x="96.25" y="576.40625" xlink:href="#k"/>
  <use x="100.167969" y="576.40625" xlink:href="#j"/>
  <use x="105.636719" y="576.40625" xlink:href="#i"/>
  <use x="108.890625" y="576.40625" xlink:href="#h"/>
  <use x="112.785156" y="576.40625" xlink:href="#g"/>
  <use x="116.699219" y="576.40625" xlink:href="#a"/>
  <use x="120.386719" y="576.40625" xlink:href="#f"/>
  <use x="122.261719" y="576.40625" xlink:href="#b"/>
  <use x="125.972656" y="576.40625" xlink:href="#d"/>
  <use x="128.667969" y="576.40625" xlink:href="#w"/>
  <use x="134.210938" y="576.40625" xlink:href="#f"/>
  <use x="136.085938" y="576.40625" xlink:href="#a"/>
  <use x="139.773438" y="576.40625" xlink:href="#v"/>
  <use x="141.648438" y="576.40625" xlink:href="#g"/>
  <use x="145.5625" y="576.40625" xlink:href="#a"/>
  <use x="149.253906" y="576.40625" xlink:href="#u"/>
  <use x="154.304688" y="576.40625" xlink:href="#a"/>
  <use x="157.996094" y="576.40625" xlink:href="#c"/>
  <use x="70" y="581.875" xlink:href="#t"/>
  <use x="72.378906" y="581.875" xlink:href="#d"/>
  <use x="75.078125" y="581.875" xlink:href="#e"/>
  <use x="78.832031" y="581.875" xlink:href="#s"/>
  <use x="86.4375" y="581.875" xlink:href="#c"/>
  <use x="89.050781" y="581.875" xlink:href="#r"/>
  <use x="92.941406" y="581.875" xlink:href="#b"/>
  <use x="98.554688" y="581.875" xlink:href="#q"/>
  <use x="103.132812" y="581.875" xlink:href="#e"/>
  <use x="106.890625" y="581.875" xlink:href="#h"/>
  <use x="110.785156" y="581.875" xlink:href="#p"/>
  <use x="116.582031" y="581.875" xlink:href="#o"/>
  <use x="120.589844" y="581.875" xlink:href="#d"/>
  <use x="123.285156" y="581.875" xlink:href="#e"/>
  <use x="127.042969" y="581.875" xlink:href="#n"/>
  <use x="128.917969" y="581.875" xlink:href="#b"/>
  <use x="132.625" y="581.875" xlink:href="#m"/>
  <use x="135.867188" y="581.875" xlink:href="#c"/>
 </g>
</svg>
