<?xml version="1.0" encoding="UTF-8"?>
<svg width="700pt" height="700pt" version="1.1" viewBox="0 0 700 700" xmlns="http://www.w3.org/2000/svg" xmlns:xlink="http://www.w3.org/1999/xlink">
 <defs>
  <symbol id="w" overflow="visible">
   <path d="m3.6562-0.21875c-0.1875 0.09375-0.38672 0.16797-0.59375 0.21875-0.19922 0.050781-0.40625 0.078125-0.625 0.078125-0.66797 0-1.1992-0.17969-1.5938-0.54688-0.38672-0.375-0.57812-0.87891-0.57812-1.5156 0-0.64453 0.19141-1.1484 0.57812-1.5156 0.39453-0.375 0.92578-0.5625 1.5938-0.5625 0.21875 0 0.42578 0.027344 0.625 0.078125 0.20703 0.054687 0.40625 0.125 0.59375 0.21875v0.82812c-0.1875-0.125-0.375-0.21875-0.5625-0.28125-0.17969-0.0625-0.37109-0.09375-0.57812-0.09375-0.36719 0-0.65625 0.12109-0.875 0.35938-0.21094 0.23047-0.3125 0.55469-0.3125 0.96875 0 0.40625 0.10156 0.73047 0.3125 0.96875 0.21875 0.23047 0.50781 0.34375 0.875 0.34375 0.20703 0 0.39844-0.023437 0.57812-0.078125 0.1875-0.0625 0.375-0.16016 0.5625-0.29688z"/>
  </symbol>
  <symbol id="e" overflow="visible">
   <path d="m2.6875-2.1719c-0.085938-0.039063-0.16797-0.070313-0.25-0.09375-0.085938-0.019531-0.16797-0.03125-0.25-0.03125-0.25 0-0.44531 0.085937-0.57812 0.25-0.125 0.15625-0.1875 0.38281-0.1875 0.67188v1.375h-0.96875v-2.9844h0.96875v0.48438c0.11328-0.19531 0.25-0.33594 0.40625-0.42188 0.16406-0.09375 0.35938-0.14062 0.57812-0.14062h0.10938c0.039063 0 0.09375 0.007812 0.15625 0.015625z"/>
  </symbol>
  <symbol id="b" overflow="visible">
   <path d="m3.4375-1.5v0.26562h-2.2344c0.03125 0.23047 0.11328 0.40234 0.25 0.51562 0.13281 0.10547 0.32812 0.15625 0.57812 0.15625 0.20703 0 0.41406-0.023438 0.625-0.078125 0.20703-0.0625 0.42188-0.15625 0.64062-0.28125v0.73438c-0.21875 0.09375-0.44531 0.16406-0.67188 0.20312-0.23047 0.039062-0.45312 0.0625-0.67188 0.0625-0.54297 0-0.96484-0.13281-1.2656-0.40625-0.30469-0.28125-0.45312-0.67188-0.45312-1.1719 0-0.47656 0.14453-0.85938 0.4375-1.1406 0.30078-0.28125 0.70703-0.42188 1.2188-0.42188 0.46875 0 0.84375 0.14062 1.125 0.42188s0.42188 0.66406 0.42188 1.1406zm-0.96875-0.32812c0-0.17578-0.058594-0.31641-0.17188-0.42188-0.10547-0.11328-0.24219-0.17188-0.40625-0.17188-0.1875 0-0.33984 0.054687-0.45312 0.15625-0.11719 0.10547-0.1875 0.25-0.21875 0.4375z"/>
  </symbol>
  <symbol id="a" overflow="visible">
   <path d="m1.7969-1.3438c-0.19922 0-0.35156 0.039062-0.45312 0.10938-0.09375 0.0625-0.14062 0.16406-0.14062 0.29688 0 0.11719 0.035156 0.21094 0.10938 0.28125 0.082031 0.0625 0.19531 0.09375 0.34375 0.09375 0.17578 0 0.32812-0.0625 0.45312-0.1875s0.1875-0.28516 0.1875-0.48438v-0.10938zm1.4688-0.35938v1.7031h-0.96875v-0.4375c-0.125 0.17969-0.27344 0.30859-0.4375 0.39062-0.15625 0.082031-0.35156 0.125-0.57812 0.125-0.3125 0-0.57031-0.085938-0.76562-0.26562-0.1875-0.1875-0.28125-0.42188-0.28125-0.70312 0-0.35156 0.11719-0.61328 0.35938-0.78125 0.23828-0.16406 0.61719-0.25 1.1406-0.25h0.5625v-0.0625c0-0.15625-0.0625-0.26562-0.1875-0.32812-0.11719-0.070312-0.29688-0.10938-0.54688-0.10938-0.21094 0-0.40234 0.023437-0.57812 0.0625-0.17969 0.042969-0.33984 0.10156-0.48438 0.17188v-0.71875c0.19531-0.050781 0.39844-0.085938 0.60938-0.10938 0.20703-0.03125 0.41406-0.046875 0.625-0.046875 0.53906 0 0.92969 0.10938 1.1719 0.32812 0.23828 0.21094 0.35938 0.55469 0.35938 1.0312z"/>
  </symbol>
  <symbol id="c" overflow="visible">
   <path d="m1.5-3.8438v0.85938h0.98438v0.67188h-0.98438v1.2812c0 0.13672 0.023438 0.23047 0.078125 0.28125 0.0625 0.042969 0.17578 0.0625 0.34375 0.0625h0.48438v0.6875h-0.8125c-0.38672 0-0.65625-0.078125-0.8125-0.23438s-0.23438-0.42188-0.23438-0.79688v-1.2812h-0.46875v-0.67188h0.46875v-0.85938z"/>
  </symbol>
  <symbol id="l" overflow="visible">
   <path d="m2.5-2.5469v-1.6094h0.95312v4.1562h-0.95312v-0.4375c-0.13672 0.17969-0.28125 0.30859-0.4375 0.39062-0.15625 0.082031-0.33984 0.125-0.54688 0.125-0.375 0-0.68359-0.14453-0.92188-0.4375-0.23047-0.28906-0.34375-0.67188-0.34375-1.1406 0-0.45703 0.11328-0.83203 0.34375-1.125 0.23828-0.28906 0.54688-0.4375 0.92188-0.4375 0.19531 0 0.375 0.042969 0.53125 0.125 0.16406 0.085938 0.31641 0.21484 0.45312 0.39062zm-0.64062 1.9375c0.20703 0 0.36328-0.070313 0.46875-0.21875 0.11328-0.15625 0.17188-0.37891 0.17188-0.67188 0-0.28125-0.058594-0.49219-0.17188-0.64062-0.10547-0.15625-0.26172-0.23438-0.46875-0.23438-0.19922 0-0.35547 0.078125-0.46875 0.23438-0.10547 0.14844-0.15625 0.35938-0.15625 0.64062 0 0.29297 0.050781 0.51562 0.15625 0.67188 0.11328 0.14844 0.26953 0.21875 0.46875 0.21875z"/>
  </symbol>
  <symbol id="k" overflow="visible">
   <path d="m2.0469-0.60938c0.20703 0 0.36328-0.070313 0.46875-0.21875 0.11328-0.15625 0.17188-0.37891 0.17188-0.67188 0-0.28125-0.058594-0.49219-0.17188-0.64062-0.10547-0.15625-0.26172-0.23438-0.46875-0.23438-0.19922 0-0.35547 0.078125-0.46875 0.23438-0.10547 0.14844-0.15625 0.35938-0.15625 0.64062 0 0.29297 0.050781 0.51562 0.15625 0.67188 0.11328 0.14844 0.26953 0.21875 0.46875 0.21875zm-0.625-1.9375c0.125-0.17578 0.26562-0.30469 0.42188-0.39062 0.16406-0.082031 0.35156-0.125 0.5625-0.125 0.36328 0 0.66406 0.14844 0.90625 0.4375 0.23828 0.29297 0.35938 0.66797 0.35938 1.125 0 0.46875-0.12109 0.85156-0.35938 1.1406-0.24219 0.29297-0.54297 0.4375-0.90625 0.4375-0.21094 0-0.39844-0.042969-0.5625-0.125-0.15625-0.082031-0.29688-0.21094-0.42188-0.39062v0.4375h-0.96875v-4.1562h0.96875z"/>
  </symbol>
  <symbol id="g" overflow="visible">
   <path d="m0.0625-2.9844h0.95312l0.8125 2.0156 0.6875-2.0156h0.95312l-1.2656 3.2656c-0.125 0.33203-0.27344 0.56641-0.4375 0.70312-0.16797 0.13281-0.39062 0.20312-0.67188 0.20312h-0.54688v-0.64062h0.29688c0.16406 0 0.28516-0.027344 0.35938-0.078125 0.070313-0.054688 0.12891-0.14062 0.17188-0.26562l0.03125-0.09375z"/>
  </symbol>
  <symbol id="j" overflow="visible">
   <path d="m0.5-3.9844h1.0312v1.4531l1.4844-1.4531h1.1875l-1.9219 1.8906 2.125 2.0938h-1.2969l-1.5781-1.5625v1.5625h-1.0312z"/>
  </symbol>
  <symbol id="d" overflow="visible">
   <path d="m3.4688-1.8281v1.8281h-0.96875v-1.3906c0-0.25781-0.007812-0.4375-0.015625-0.53125-0.011719-0.10156-0.03125-0.17578-0.0625-0.21875-0.03125-0.0625-0.085937-0.10938-0.15625-0.14062-0.0625-0.039062-0.13281-0.0625-0.20312-0.0625-0.21094 0-0.37109 0.078125-0.48438 0.23438-0.10547 0.15625-0.15625 0.37109-0.15625 0.64062v1.4688h-0.96875v-2.9844h0.96875v0.4375c0.13281-0.17578 0.28516-0.30469 0.45312-0.39062 0.16406-0.082031 0.34375-0.125 0.53125-0.125 0.34375 0 0.60156 0.10938 0.78125 0.32812 0.1875 0.21094 0.28125 0.51172 0.28125 0.90625z"/>
  </symbol>
  <symbol id="v" overflow="visible">
   <path d="m0.15625-3.9844h0.98438l0.70312 2.8906 0.67188-2.8906h1l0.67188 2.8906 0.70312-2.8906h0.96875l-0.9375 3.9844h-1.1875l-0.71875-3.0312-0.71875 3.0312h-1.1875z"/>
  </symbol>
  <symbol id="i" overflow="visible">
   <path d="m0.45312-2.9844h0.96875v2.9375c0 0.39453-0.10156 0.69531-0.29688 0.90625-0.1875 0.21875-0.46484 0.32812-0.82812 0.32812h-0.48438v-0.64062h0.17188c0.17578 0 0.29688-0.042969 0.35938-0.125 0.070312-0.074219 0.10938-0.23047 0.10938-0.46875zm0-1.1719h0.96875v0.78125h-0.96875z"/>
  </symbol>
  <symbol id="u" overflow="visible">
   <path d="m0.45312-2.9844h0.96875v2.9844h-0.96875zm0-1.1719h0.96875v0.78125h-0.96875z"/>
  </symbol>
  <symbol id="t" overflow="visible">
   <path d="m0.45312-4.1562h0.96875v2.2656l1.0938-1.0938h1.1094l-1.4531 1.3594 1.5625 1.625h-1.1562l-1.1562-1.25v1.25h-0.96875z"/>
  </symbol>
  <symbol id="s" overflow="visible">
   <path d="m2.7969-2.8906v0.71875c-0.21094-0.082031-0.40625-0.14453-0.59375-0.1875-0.1875-0.039063-0.37109-0.0625-0.54688-0.0625-0.17969 0-0.3125 0.023437-0.40625 0.0625-0.085938 0.042969-0.125 0.10938-0.125 0.20312 0 0.085938 0.03125 0.14844 0.09375 0.1875 0.070312 0.042969 0.19531 0.074219 0.375 0.09375l0.15625 0.015625c0.48828 0.0625 0.81641 0.16797 0.98438 0.3125 0.17578 0.13672 0.26562 0.35938 0.26562 0.67188s-0.12109 0.55469-0.35938 0.71875c-0.23047 0.15625-0.57812 0.23438-1.0469 0.23438-0.19922 0-0.40625-0.015625-0.625-0.046875-0.21094-0.03125-0.42188-0.078125-0.64062-0.14062v-0.71875c0.1875 0.085937 0.37891 0.15234 0.57812 0.20312 0.20703 0.042969 0.41406 0.0625 0.625 0.0625 0.1875 0 0.32812-0.023438 0.42188-0.078125 0.09375-0.050781 0.14062-0.125 0.14062-0.21875s-0.039062-0.16016-0.10938-0.20312c-0.0625-0.039062-0.1875-0.070312-0.375-0.09375l-0.17188-0.015625c-0.42969-0.050781-0.73047-0.14844-0.90625-0.29688-0.16797-0.14453-0.25-0.36328-0.25-0.65625 0-0.32031 0.10938-0.55469 0.32812-0.70312 0.21875-0.15625 0.55078-0.23438 1-0.23438 0.17578 0 0.35938 0.015625 0.54688 0.046875 0.19531 0.023437 0.41016 0.0625 0.64062 0.125z"/>
  </symbol>
  <symbol id="h" overflow="visible">
   <path d="m3.2344-2.5c0.11328-0.17578 0.25391-0.3125 0.42188-0.40625 0.16406-0.10156 0.35156-0.15625 0.5625-0.15625 0.33203 0 0.58594 0.10938 0.76562 0.32812 0.1875 0.21094 0.28125 0.51172 0.28125 0.90625v1.8281h-0.96875v-1.5625c0.007813-0.019531 0.015625-0.039062 0.015625-0.0625v-0.10938c0-0.21875-0.03125-0.375-0.09375-0.46875s-0.16406-0.14062-0.29688-0.14062c-0.1875 0-0.33594 0.078125-0.4375 0.23438-0.09375 0.14844-0.14062 0.35938-0.14062 0.64062v1.4688h-0.96875v-1.5625c0-0.33203-0.03125-0.54688-0.09375-0.64062-0.054688-0.09375-0.15234-0.14062-0.29688-0.14062-0.17969 0-0.32031 0.078125-0.42188 0.23438-0.09375 0.14844-0.14062 0.35938-0.14062 0.64062v1.4688h-0.96875v-2.9844h0.96875v0.4375c0.11328-0.17578 0.24219-0.30469 0.39062-0.39062 0.15625-0.082031 0.32812-0.125 0.51562-0.125 0.20703 0 0.39062 0.054688 0.54688 0.15625 0.15625 0.09375 0.27344 0.23047 0.35938 0.40625z"/>
  </symbol>
  <symbol id="r" overflow="visible">
   <path d="m2.4219-4.1562v0.625h-0.51562c-0.13672 0-0.23438 0.027344-0.29688 0.078125-0.054687 0.054687-0.078125 0.13672-0.078125 0.25v0.21875h0.82812v0.67188h-0.82812v2.3125h-0.95312v-2.3125h-0.46875v-0.67188h0.46875v-0.21875c0-0.32031 0.085937-0.5625 0.26562-0.71875 0.1875-0.15625 0.47266-0.23438 0.85938-0.23438z"/>
  </symbol>
  <symbol id="f" overflow="visible">
   <path d="m1.875-2.375c-0.21094 0-0.37109 0.078125-0.48438 0.23438-0.10547 0.14844-0.15625 0.35938-0.15625 0.64062 0 0.29297 0.050781 0.51562 0.15625 0.67188 0.11328 0.14844 0.27344 0.21875 0.48438 0.21875 0.20703 0 0.36719-0.070313 0.48438-0.21875 0.11328-0.15625 0.17188-0.37891 0.17188-0.67188 0-0.28125-0.058594-0.49219-0.17188-0.64062-0.11719-0.15625-0.27734-0.23438-0.48438-0.23438zm0-0.6875c0.51953 0 0.92188 0.14062 1.2031 0.42188 0.28906 0.27344 0.4375 0.65234 0.4375 1.1406 0 0.5-0.14844 0.89062-0.4375 1.1719-0.28125 0.27344-0.68359 0.40625-1.2031 0.40625-0.51172 0-0.91406-0.13281-1.2031-0.40625-0.29297-0.28125-0.4375-0.67188-0.4375-1.1719 0-0.48828 0.14453-0.86719 0.4375-1.1406 0.28906-0.28125 0.69141-0.42188 1.2031-0.42188z"/>
  </symbol>
  <symbol id="q" overflow="visible">
   <path d="m3.4688-1.8281v1.8281h-0.96875v-1.3906c0-0.25781-0.007812-0.4375-0.015625-0.53125-0.011719-0.10156-0.03125-0.17578-0.0625-0.21875-0.03125-0.0625-0.085937-0.10938-0.15625-0.14062-0.0625-0.039062-0.13281-0.0625-0.20312-0.0625-0.21094 0-0.37109 0.078125-0.48438 0.23438-0.10547 0.15625-0.15625 0.37109-0.15625 0.64062v1.4688h-0.96875v-4.1562h0.96875v1.6094c0.13281-0.17578 0.28516-0.30469 0.45312-0.39062 0.16406-0.082031 0.34375-0.125 0.53125-0.125 0.34375 0 0.60156 0.10938 0.78125 0.32812 0.1875 0.21094 0.28125 0.51172 0.28125 0.90625z"/>
  </symbol>
  <symbol id="p" overflow="visible">
   <path d="m0.5-3.9844h1.1562l1.4375 2.7344v-2.7344h0.98438v3.9844h-1.1562l-1.4375-2.7344v2.7344h-0.98438z"/>
  </symbol>
  <symbol id="o" overflow="visible">
   <path d="m0.42188-1.1719v-1.8125h0.96875v0.29688 0.60938 0.48438c0 0.24219 0.003906 0.41797 0.015625 0.53125 0.007812 0.10547 0.03125 0.17969 0.0625 0.21875 0.039062 0.0625 0.09375 0.11719 0.15625 0.15625 0.0625 0.03125 0.13281 0.046875 0.21875 0.046875 0.19531 0 0.35156-0.078125 0.46875-0.23438 0.11328-0.15625 0.17188-0.36719 0.17188-0.64062v-1.4688h0.95312v2.9844h-0.95312v-0.4375c-0.14844 0.17969-0.30469 0.30859-0.46875 0.39062-0.15625 0.082031-0.33594 0.125-0.53125 0.125-0.34375 0-0.60938-0.10156-0.79688-0.3125-0.17969-0.21875-0.26562-0.53125-0.26562-0.9375z"/>
  </symbol>
  <symbol id="n" overflow="visible">
   <path d="m0.5-3.9844h1.7031c0.50781 0 0.89844 0.11719 1.1719 0.34375 0.26953 0.21875 0.40625 0.53906 0.40625 0.95312 0 0.41797-0.13672 0.74219-0.40625 0.96875-0.27344 0.21875-0.66406 0.32812-1.1719 0.32812h-0.67188v1.3906h-1.0312zm1.0312 0.75v1.1094h0.5625c0.19531 0 0.34766-0.046875 0.45312-0.14062 0.11328-0.10156 0.17188-0.24219 0.17188-0.42188 0-0.17578-0.058594-0.3125-0.17188-0.40625-0.10547-0.09375-0.25781-0.14062-0.45312-0.14062z"/>
  </symbol>
  <symbol id="m" overflow="visible">
   <path d="m2.875-2.8906v0.76562c-0.125-0.082031-0.25781-0.14453-0.39062-0.1875-0.13672-0.039062-0.27344-0.0625-0.40625-0.0625-0.27344 0-0.48047 0.078125-0.625 0.23438-0.14844 0.15625-0.21875 0.37109-0.21875 0.64062 0 0.28125 0.070313 0.5 0.21875 0.65625 0.14453 0.15625 0.35156 0.23438 0.625 0.23438 0.14453 0 0.28516-0.019531 0.42188-0.0625 0.13281-0.039063 0.25781-0.10938 0.375-0.20312v0.78125c-0.14844 0.0625-0.29688 0.10156-0.45312 0.125-0.15625 0.03125-0.3125 0.046875-0.46875 0.046875-0.54297 0-0.96484-0.13281-1.2656-0.40625-0.30469-0.28125-0.45312-0.67188-0.45312-1.1719 0-0.48828 0.14844-0.86719 0.45312-1.1406 0.30078-0.28125 0.72266-0.42188 1.2656-0.42188 0.15625 0 0.3125 0.015625 0.46875 0.046875 0.15625 0.023437 0.30469 0.0625 0.45312 0.125z"/>
  </symbol>
 </defs>
 <g>
  <path d="m344.94 399.44c3.6016 3.5469 8.1641 5.957 13.125 6.9336 3.3242 0.66797 6.7734-0.19141 9.3984-2.3438 2.6211-2.1484 4.1445-5.3633 4.1406-8.7578v-0.71094c-8.6094 2.8984-17.59 4.543-26.664 4.8789zm38.367-148.02c-3.6953-3.293-8.6094-4.8672-13.531-4.332l-34.465 3.8281h0.003906c-7.6328 0.83984-14.312 5.5117-17.719 12.391 24.523-5.5625 50.25-1.1406 71.508 12.293v-11.211c-0.003906-4.9492-2.1094-9.6641-5.7969-12.969zm68.074 26.938c-4.6641-1.9805-10.066-0.90625-13.617 2.7109l-14.316 14.305v0.003906c-3.2383 3.2305-7.6211 5.043-12.195 5.043s-8.957-1.8125-12.195-5.043c-15.574-15.633-36.598-24.633-58.66-25.113-22.062-0.47656-43.453 7.5977-59.695 22.543l-37.734 34.594 37.766 37.758c1.6719 1.6719 3.4141 3.25 5.1953 4.7695 0.14062-0.10938 20.453-12.336 20.453-12.336l0.003906-0.003906c14.355-8.6172 25.16-22.086 30.461-37.973 0.375-1.1875 1.2109-2.1758 2.3203-2.7383 1.1094-0.56641 2.3984-0.66016 3.5781-0.26562 1.1836 0.39453 2.1562 1.2422 2.7031 2.3633 0.54688 1.1172 0.625 2.4062 0.21094 3.582-6 17.988-18.234 33.242-34.496 43.004l-17.305 10.379 0.003906 0.003906c16.469 10.926 36.211 15.824 55.879 13.859 19.664-1.9648 38.047-10.672 52.027-24.645 5.2422-5.2305 13.727-5.2305 18.969 0l17.031 17.031-0.003906-0.003906c3.5742 3.5781 8.9531 4.6484 13.625 2.7109 4.668-1.9336 7.7148-6.4922 7.7148-11.547v-83.441c0.046876-5.0742-3.0195-9.6562-7.7227-11.551zm-158.25 48.891c-5.3086 0-10.094-3.1992-12.125-8.1016-2.0312-4.9062-0.91016-10.551 2.8438-14.305s9.3984-4.875 14.305-2.8438c4.9023 2.0312 8.1016 6.8164 8.1016 12.125 0 7.25-5.875 13.125-13.125 13.125zm124.8-19.062 17.5-8.75c2.2891-1.1016 5.0391-0.16406 6.1719 2.1055 1.1367 2.2734 0.23828 5.0352-2.0156 6.207l-17.5 8.75c-0.64453 0.32031-1.3555 0.48828-2.0781 0.49219-2.1562-0.003907-4.0273-1.4844-4.5195-3.582-0.49609-2.0977 0.51562-4.2578 2.4414-5.2227zm23.734 49.984c-0.78516 1.5742-2.3945 2.5703-4.1562 2.5703-0.72266-0.003907-1.4336-0.17188-2.0781-0.49219l-17.5-8.75c-2.2539-1.1719-3.1523-3.9336-2.0156-6.207 1.1328-2.2695 3.8828-3.207 6.1719-2.1055l17.5 8.75c1.1016 0.54688 1.9414 1.5156 2.332 2.6836 0.39062 1.1719 0.29688 2.4453-0.25391 3.5508zm-4.1562-23.68h-17.5c-2.5664 0-4.6484-2.082-4.6484-4.6484 0-2.5703 2.082-4.6484 4.6484-4.6484h17.5c2.5664 0 4.6484 2.0781 4.6484 4.6484 0 2.5664-2.082 4.6484-4.6484 4.6484zm13.879-56.133c-4.6641-1.9805-10.066-0.90625-13.617 2.7109l-14.316 14.305v0.003906c-3.2383 3.2305-7.6211 5.043-12.195 5.043s-8.957-1.8125-12.195-5.043c-15.574-15.633-36.598-24.633-58.66-25.113-22.062-0.47656-43.453 7.5977-59.695 22.543l-37.734 34.594 37.766 37.758c1.6719 1.6719 3.4141 3.25 5.1953 4.7695 0.14062-0.10938 20.453-12.336 20.453-12.336l0.003906-0.003906c14.355-8.6172 25.16-22.086 30.461-37.973 0.375-1.1875 1.2109-2.1758 2.3203-2.7383 1.1094-0.56641 2.3984-0.66016 3.5781-0.26562 1.1836 0.39453 2.1562 1.2422 2.7031 2.3633 0.54688 1.1172 0.625 2.4062 0.21094 3.582-6 17.988-18.234 33.242-34.496 43.004l-17.305 10.379 0.003906 0.003906c16.469 10.926 36.211 15.824 55.879 13.859 19.664-1.9648 38.047-10.672 52.027-24.645 5.2422-5.2305 13.727-5.2305 18.969 0l17.031 17.031-0.003906-0.003906c3.5742 3.5781 8.9531 4.6484 13.625 2.7109 4.668-1.9336 7.7148-6.4922 7.7148-11.547v-83.441c0.046876-5.0742-3.0195-9.6562-7.7227-11.551zm-158.25 48.891c-5.3086 0-10.094-3.1992-12.125-8.1016-2.0312-4.9062-0.91016-10.551 2.8438-14.305s9.3984-4.875 14.305-2.8438c4.9023 2.0312 8.1016 6.8164 8.1016 12.125 0 7.25-5.875 13.125-13.125 13.125zm124.8-19.062 17.5-8.75c2.2891-1.1016 5.0391-0.16406 6.1719 2.1055 1.1367 2.2734 0.23828 5.0352-2.0156 6.207l-17.5 8.75c-0.64453 0.32031-1.3555 0.48828-2.0781 0.49219-2.1562-0.003907-4.0273-1.4844-4.5195-3.582-0.49609-2.0977 0.51562-4.2578 2.4414-5.2227zm23.734 49.984c-0.78516 1.5742-2.3945 2.5703-4.1562 2.5703-0.72266-0.003907-1.4336-0.17188-2.0781-0.49219l-17.5-8.75c-2.2539-1.1719-3.1523-3.9336-2.0156-6.207 1.1328-2.2695 3.8828-3.207 6.1719-2.1055l17.5 8.75c1.1016 0.54688 1.9414 1.5156 2.332 2.6836 0.39062 1.1719 0.29688 2.4453-0.25391 3.5508zm-4.1562-23.68h-17.5c-2.5664 0-4.6484-2.082-4.6484-4.6484 0-2.5703 2.082-4.6484 4.6484-4.6484h17.5c2.5664 0 4.6484 2.0781 4.6484 4.6484 0 2.5664-2.082 4.6484-4.6484 4.6484zm-54.195-83.07c-3.6953-3.293-8.6094-4.8672-13.531-4.332l-34.465 3.8281h0.003906c-7.6328 0.83984-14.312 5.5117-17.719 12.391 24.523-5.5625 50.25-1.1406 71.508 12.293v-11.211c-0.003906-4.9492-2.1094-9.6641-5.7969-12.969zm-38.367 148.02c3.6016 3.5469 8.1641 5.957 13.125 6.9336 3.3242 0.66797 6.7734-0.19141 9.3984-2.3438 2.6211-2.1484 4.1445-5.3633 4.1406-8.7578v-0.71094c-8.6094 2.8984-17.59 4.543-26.664 4.8789zm0 0c3.6016 3.5469 8.1641 5.957 13.125 6.9336 3.3242 0.66797 6.7734-0.19141 9.3984-2.3438 2.6211-2.1484 4.1445-5.3633 4.1406-8.7578v-0.71094c-8.6094 2.8984-17.59 4.543-26.664 4.8789zm38.367-148.02c-3.6953-3.293-8.6094-4.8672-13.531-4.332l-34.465 3.8281h0.003906c-7.6328 0.83984-14.312 5.5117-17.719 12.391 24.523-5.5625 50.25-1.1406 71.508 12.293v-11.211c-0.003906-4.9492-2.1094-9.6641-5.7969-12.969zm68.074 26.938c-4.6641-1.9805-10.066-0.90625-13.617 2.7109l-14.316 14.305v0.003906c-3.2383 3.2305-7.6211 5.043-12.195 5.043s-8.957-1.8125-12.195-5.043c-15.574-15.633-36.598-24.633-58.66-25.113-22.062-0.47656-43.453 7.5977-59.695 22.543l-37.734 34.594 37.766 37.758c1.6719 1.6719 3.4141 3.25 5.1953 4.7695 0.14062-0.10938 20.453-12.336 20.453-12.336l0.003906-0.003906c14.355-8.6172 25.16-22.086 30.461-37.973 0.375-1.1875 1.2109-2.1758 2.3203-2.7383 1.1094-0.56641 2.3984-0.66016 3.5781-0.26562 1.1836 0.39453 2.1562 1.2422 2.7031 2.3633 0.54688 1.1172 0.625 2.4062 0.21094 3.582-6 17.988-18.234 33.242-34.496 43.004l-17.305 10.379 0.003906 0.003906c16.469 10.926 36.211 15.824 55.879 13.859 19.664-1.9648 38.047-10.672 52.027-24.645 5.2422-5.2305 13.727-5.2305 18.969 0l17.031 17.031-0.003906-0.003906c3.5742 3.5781 8.9531 4.6484 13.625 2.7109 4.668-1.9336 7.7148-6.4922 7.7148-11.547v-83.441c0.046876-5.0742-3.0195-9.6562-7.7227-11.551zm-158.25 48.891c-5.3086 0-10.094-3.1992-12.125-8.1016-2.0312-4.9062-0.91016-10.551 2.8438-14.305s9.3984-4.875 14.305-2.8438c4.9023 2.0312 8.1016 6.8164 8.1016 12.125 0 7.25-5.875 13.125-13.125 13.125zm124.8-19.062 17.5-8.75c2.2891-1.1016 5.0391-0.16406 6.1719 2.1055 1.1367 2.2734 0.23828 5.0352-2.0156 6.207l-17.5 8.75c-0.64453 0.32031-1.3555 0.48828-2.0781 0.49219-2.1562-0.003907-4.0273-1.4844-4.5195-3.582-0.49609-2.0977 0.51562-4.2578 2.4414-5.2227zm23.734 49.984c-0.78516 1.5742-2.3945 2.5703-4.1562 2.5703-0.72266-0.003907-1.4336-0.17188-2.0781-0.49219l-17.5-8.75c-2.2539-1.1719-3.1523-3.9336-2.0156-6.207 1.1328-2.2695 3.8828-3.207 6.1719-2.1055l17.5 8.75c1.1016 0.54688 1.9414 1.5156 2.332 2.6836 0.39062 1.1719 0.29688 2.4453-0.25391 3.5508zm-4.1562-23.68h-17.5c-2.5664 0-4.6484-2.082-4.6484-4.6484 0-2.5703 2.082-4.6484 4.6484-4.6484h17.5c2.5664 0 4.6484 2.0781 4.6484 4.6484 0 2.5664-2.082 4.6484-4.6484 4.6484zm13.879-56.133c-4.6641-1.9805-10.066-0.90625-13.617 2.7109l-14.316 14.305v0.003906c-3.2383 3.2305-7.6211 5.043-12.195 5.043s-8.957-1.8125-12.195-5.043c-15.574-15.633-36.598-24.633-58.66-25.113-22.062-0.47656-43.453 7.5977-59.695 22.543l-37.734 34.594 37.766 37.758c1.6719 1.6719 3.4141 3.25 5.1953 4.7695 0.14062-0.10938 20.453-12.336 20.453-12.336l0.003906-0.003906c14.355-8.6172 25.16-22.086 30.461-37.973 0.375-1.1875 1.2109-2.1758 2.3203-2.7383 1.1094-0.56641 2.3984-0.66016 3.5781-0.26562 1.1836 0.39453 2.1562 1.2422 2.7031 2.3633 0.54688 1.1172 0.625 2.4062 0.21094 3.582-6 17.988-18.234 33.242-34.496 43.004l-17.305 10.379 0.003906 0.003906c16.469 10.926 36.211 15.824 55.879 13.859 19.664-1.9648 38.047-10.672 52.027-24.645 5.2422-5.2305 13.727-5.2305 18.969 0l17.031 17.031-0.003906-0.003906c3.5742 3.5781 8.9531 4.6484 13.625 2.7109 4.668-1.9336 7.7148-6.4922 7.7148-11.547v-83.441c0.046876-5.0742-3.0195-9.6562-7.7227-11.551zm-158.25 48.891c-5.3086 0-10.094-3.1992-12.125-8.1016-2.0312-4.9062-0.91016-10.551 2.8438-14.305s9.3984-4.875 14.305-2.8438c4.9023 2.0312 8.1016 6.8164 8.1016 12.125 0 7.25-5.875 13.125-13.125 13.125zm124.8-19.062 17.5-8.75c2.2891-1.1016 5.0391-0.16406 6.1719 2.1055 1.1367 2.2734 0.23828 5.0352-2.0156 6.207l-17.5 8.75c-0.64453 0.32031-1.3555 0.48828-2.0781 0.49219-2.1562-0.003907-4.0273-1.4844-4.5195-3.582-0.49609-2.0977 0.51562-4.2578 2.4414-5.2227zm23.734 49.984c-0.78516 1.5742-2.3945 2.5703-4.1562 2.5703-0.72266-0.003907-1.4336-0.17188-2.0781-0.49219l-17.5-8.75c-2.2539-1.1719-3.1523-3.9336-2.0156-6.207 1.1328-2.2695 3.8828-3.207 6.1719-2.1055l17.5 8.75c1.1016 0.54688 1.9414 1.5156 2.332 2.6836 0.39062 1.1719 0.29688 2.4453-0.25391 3.5508zm-4.1562-23.68h-17.5c-2.5664 0-4.6484-2.082-4.6484-4.6484 0-2.5703 2.082-4.6484 4.6484-4.6484h17.5c2.5664 0 4.6484 2.0781 4.6484 4.6484 0 2.5664-2.082 4.6484-4.6484 4.6484zm-48.398-58.887v-11.215c0-4.9492-2.1055-9.668-5.7969-12.969-3.6875-3.3047-8.6094-4.8789-13.531-4.332l-34.465 3.8281h0.003906c-7.6328 0.83984-14.312 5.5117-17.719 12.391 24.523-5.5625 50.25-1.1406 71.508 12.293zm-31.039 130.77c3.3242 0.66797 6.7734-0.19141 9.3984-2.3438 2.6211-2.1484 4.1445-5.3633 4.1406-8.7578v-0.71094c-8.6094 2.8984-17.59 4.543-26.664 4.8789 3.6016 3.5469 8.1641 5.957 13.125 6.9336zm166.03-271.02h-20.695v-25.703h39.102c1.2344 0 2.418-0.48828 3.2891-1.3594 0.87109-0.87109 1.3594-2.0547 1.3594-3.2891v-43.391c-0.011719-10.605-4.2305-20.773-11.73-28.277-7.5039-7.5-17.672-11.719-28.277-11.73h-314.28c-10.605 0.011719-20.773 4.2305-28.277 11.73-7.5 7.5039-11.719 17.672-11.73 28.277v43.391c0 1.2344 0.48828 2.418 1.3594 3.2891 0.87109 0.87109 2.0547 1.3594 3.2891 1.3594h39.102v25.703h-20.695c-8.4336 0.007813-16.516 3.3594-22.48 9.3242-5.9648 5.9648-9.3164 14.047-9.3242 22.48v339.44c0.007813 8.4336 3.3594 16.516 9.3242 22.48 5.9648 5.9648 14.047 9.3164 22.48 9.3242h348.19c8.4336-0.007813 16.516-3.3594 22.48-9.3242 5.9648-5.9648 9.3164-14.047 9.3242-22.48v-339.44c-0.007813-8.4336-3.3594-16.516-9.3242-22.48-5.9648-5.9648-14.047-9.3164-22.48-9.3242zm-29.992-25.703v25.703h-288.2v-25.703zm-318.2 419.45c-5.9648-0.003906-11.688-2.3789-15.91-6.5977-4.2188-4.2227-6.5938-9.9453-6.5977-15.91v-29.445h205.69c-2.9492 5.9805-5.0977 12.324-6.3867 18.867-2.5938 13.727-0.097656 25.344 6.9883 33.086zm180.33-113.61c-9.7148-1.9102-18.168-7.8477-23.266-16.34-22.23-1.8828-43.074-11.602-58.809-27.418l-41.203-41.191c-0.88672-0.90234-1.3789-2.125-1.3555-3.3906 0.027344-1.2695 0.57422-2.4688 1.5078-3.3242l41.312-37.867c9.3516-8.5859 20.324-15.215 32.277-19.492 1.4219-6.5 4.8477-12.391 9.7969-16.836 4.9492-4.4492 11.172-7.2266 17.785-7.9453l34.465-3.8281c7.5508-0.84375 15.098 1.5703 20.758 6.6367s8.8945 12.301 8.8945 19.895v17.895c2.5195 2.0469 4.9336 4.2227 7.2305 6.5195 1.4883 1.4922 3.5117 2.3281 5.6211 2.3281s4.1328-0.83594 5.6211-2.3281l14.316-14.305c4.0898-4.0898 9.6328-6.3867 15.414-6.3867s11.324 2.2969 15.414 6.3828c4.0859 4.0898 6.3828 9.6328 6.3828 15.414v83.441c0 5.7812-2.2969 11.324-6.3828 15.414-4.0898 4.0859-9.6328 6.3828-15.414 6.3828s-11.324-2.2969-15.414-6.3867l-17.031-17.031 0.003906 0.003906c-1.6133-1.5977-4.207-1.5977-5.8203 0-7.9414 7.9531-17.234 14.438-27.441 19.148v4.3867c0.007812 6.1797-2.7578 12.039-7.5391 15.957-4.7773 3.9219-11.066 5.4844-17.125 4.2656zm26.938 113.61h-0.96094c-5.7852-0.054687-10.695-1.707-14.352-4.9531-6.082-5.4141-8.2266-14.789-6.0273-26.402 2.3516-12.469 9.3398-25.734 19.688-37.363 10.348-11.625 22.707-20.125 34.812-23.91h0.003907c3.9727-1.3086 8.1211-2.0039 12.305-2.0664 5.9062 0 10.906 1.6719 14.625 4.9766 4.6172 4.1133 6.8125 10.422 6.8125 17.895 0 13.617-7.2852 31.039-20.477 45.871-10.348 11.625-22.707 20.113-34.812 23.91v-0.003906c-3.7578 1.2227-7.668 1.9102-11.617 2.0469zm29.574 0c1.6289-0.95312 3.25-1.9805 4.8438-3.0625h0.003906c0.83203 1.0859 1.7422 2.1094 2.7227 3.0625zm14.723-5.9727c-0.89453-0.80859-1.7109-1.7031-2.4375-2.668 4.1133-3.4141 7.9648-7.1367 11.516-11.133 19.293-21.699 26.938-47.152 20.957-64.574 17.523-12.172 35.844-14.863 45.379-6.3867 7.1406 6.3438 8.8047 18.594 4.4297 32.77-3.2812 10.641-9.5391 21.359-18.09 30.984-20.441 22.965-48.715 32.582-61.754 21.008zm119.13-16.539v0.003906c-0.003906 5.9648-2.3789 11.688-6.5977 15.91-4.2227 4.2188-9.9453 6.5938-15.91 6.5977h-53.43c9.5977-5.4648 18.219-12.496 25.504-20.805 8.2305-9.0859 14.652-19.656 18.922-31.148h31.512zm0-318.74-393.2 0.003906v-20.695c0.003906-5.9648 2.3789-11.688 6.5977-15.91 4.2227-4.2188 9.9453-6.5938 15.91-6.5977h348.19c5.9648 0.003906 11.688 2.3789 15.91 6.5977 4.2188 4.2227 6.5938 9.9453 6.5977 15.91zm-125.87 177.31 17.031 17.031-0.003906-0.003906c3.5742 3.5781 8.9531 4.6484 13.625 2.7109 4.668-1.9336 7.7148-6.4922 7.7148-11.547v-83.441c0-5.0586-3.0469-9.6133-7.7148-11.551-4.6719-1.9336-10.051-0.86328-13.625 2.7109l-14.316 14.305v0.003906c-3.2383 3.2305-7.6211 5.043-12.195 5.043s-8.957-1.8125-12.195-5.043c-15.574-15.633-36.598-24.633-58.66-25.113-22.062-0.47656-43.453 7.5977-59.695 22.543l-37.734 34.594 37.766 37.758c1.6719 1.6719 3.4141 3.25 5.1953 4.7695 0.14062-0.10938 20.453-12.336 20.453-12.336l0.003906-0.003906c14.355-8.6172 25.16-22.086 30.461-37.973 0.375-1.1875 1.2109-2.1758 2.3203-2.7383 1.1094-0.56641 2.3984-0.66016 3.5781-0.26562 1.1836 0.39453 2.1562 1.2422 2.7031 2.3633 0.54688 1.1172 0.625 2.4062 0.21094 3.582-6 17.988-18.234 33.242-34.496 43.004l-17.305 10.379 0.003906 0.003906c16.469 10.926 36.211 15.824 55.879 13.859 19.664-1.9648 38.047-10.672 52.027-24.645 5.2422-5.2305 13.727-5.2305 18.969 0zm20.922-6.9883c-0.78516 1.5742-2.3945 2.5703-4.1562 2.5703-0.72266-0.003907-1.4336-0.17188-2.0781-0.49219l-17.5-8.75c-2.2539-1.1719-3.1523-3.9336-2.0156-6.207 1.1328-2.2695 3.8828-3.207 6.1719-2.1055l17.5 8.75c1.1016 0.54688 1.9414 1.5156 2.332 2.6836 0.39062 1.1719 0.29688 2.4453-0.25391 3.5508zm-23.734-49.984 17.5-8.75c2.2891-1.1016 5.0391-0.16406 6.1719 2.1055 1.1367 2.2734 0.23828 5.0352-2.0156 6.207l-17.5 8.75c-0.64453 0.32031-1.3555 0.48828-2.0781 0.49219-2.1562-0.003907-4.0273-1.4844-4.5195-3.582-0.49609-2.0977 0.51562-4.2578 2.4414-5.2227zm2.0781 17.008h17.5c2.5664 0 4.6484 2.0781 4.6484 4.6484 0 2.5664-2.082 4.6484-4.6484 4.6484h-17.5c-2.5664 0-4.6484-2.082-4.6484-4.6484 0-2.5703 2.082-4.6484 4.6484-4.6484zm-126.88 2.0547c-5.3086 0-10.094-3.1992-12.125-8.1016-2.0312-4.9062-0.91016-10.551 2.8438-14.305s9.3984-4.875 14.305-2.8438c4.9023 2.0312 8.1016 6.8164 8.1016 12.125 0 7.25-5.875 13.125-13.125 13.125zm95.977-51.648v-11.211c0-4.9492-2.1055-9.668-5.7969-12.969-3.6875-3.3047-8.6094-4.8789-13.531-4.332l-34.465 3.8281h0.003906c-7.6328 0.83984-14.312 5.5117-17.719 12.391 24.523-5.5625 50.25-1.1406 71.508 12.293zm-31.039 130.77c3.3242 0.66797 6.7734-0.19141 9.3984-2.3438 2.6211-2.1484 4.1445-5.3633 4.1406-8.7578v-0.71094c-8.6094 2.8984-17.59 4.543-26.664 4.8789 3.6016 3.5469 8.1641 5.957 13.125 6.9336zm-13.125-6.9336c3.6016 3.5469 8.1641 5.957 13.125 6.9336 3.3242 0.66797 6.7734-0.19141 9.3984-2.3438 2.6211-2.1484 4.1445-5.3633 4.1406-8.7578v-0.71094c-8.6094 2.8984-17.59 4.543-26.664 4.8789zm38.367-148.02c-3.6953-3.293-8.6094-4.8672-13.531-4.332l-34.465 3.8281h0.003906c-7.6328 0.83984-14.312 5.5117-17.719 12.391 24.523-5.5625 50.25-1.1406 71.508 12.293v-11.211c-0.003906-4.9492-2.1094-9.6641-5.7969-12.969zm68.074 26.938c-4.6641-1.9805-10.066-0.90625-13.617 2.7109l-14.316 14.305v0.003906c-3.2383 3.2305-7.6211 5.043-12.195 5.043s-8.957-1.8125-12.195-5.043c-15.574-15.633-36.598-24.633-58.66-25.113-22.062-0.47656-43.453 7.5977-59.695 22.543l-37.734 34.594 37.766 37.758c1.6719 1.6719 3.4141 3.25 5.1953 4.7695 0.14062-0.10938 20.453-12.336 20.453-12.336l0.003906-0.003906c14.355-8.6172 25.16-22.086 30.461-37.973 0.375-1.1875 1.2109-2.1758 2.3203-2.7383 1.1094-0.56641 2.3984-0.66016 3.5781-0.26562 1.1836 0.39453 2.1562 1.2422 2.7031 2.3633 0.54688 1.1172 0.625 2.4062 0.21094 3.582-6 17.988-18.234 33.242-34.496 43.004l-17.305 10.379 0.003906 0.003906c16.469 10.926 36.211 15.824 55.879 13.859 19.664-1.9648 38.047-10.672 52.027-24.645 5.2422-5.2305 13.727-5.2305 18.969 0l17.031 17.031-0.003906-0.003906c3.5742 3.5781 8.9531 4.6484 13.625 2.7109 4.668-1.9336 7.7148-6.4922 7.7148-11.547v-83.441c0.046876-5.0742-3.0195-9.6562-7.7227-11.551zm-158.25 48.891c-5.3086 0-10.094-3.1992-12.125-8.1016-2.0312-4.9062-0.91016-10.551 2.8438-14.305s9.3984-4.875 14.305-2.8438c4.9023 2.0312 8.1016 6.8164 8.1016 12.125 0 7.25-5.875 13.125-13.125 13.125zm124.8-19.062 17.5-8.75c2.2891-1.1016 5.0391-0.16406 6.1719 2.1055 1.1367 2.2734 0.23828 5.0352-2.0156 6.207l-17.5 8.75c-0.64453 0.32031-1.3555 0.48828-2.0781 0.49219-2.1562-0.003907-4.0273-1.4844-4.5195-3.582-0.49609-2.0977 0.51562-4.2578 2.4414-5.2227zm23.734 49.984c-0.78516 1.5742-2.3945 2.5703-4.1562 2.5703-0.72266-0.003907-1.4336-0.17188-2.0781-0.49219l-17.5-8.75c-2.2539-1.1719-3.1523-3.9336-2.0156-6.207 1.1328-2.2695 3.8828-3.207 6.1719-2.1055l17.5 8.75c1.1016 0.54688 1.9414 1.5156 2.332 2.6836 0.39062 1.1719 0.29688 2.4453-0.25391 3.5508zm-4.1562-23.68h-17.5c-2.5664 0-4.6484-2.082-4.6484-4.6484 0-2.5703 2.082-4.6484 4.6484-4.6484h17.5c2.5664 0 4.6484 2.0781 4.6484 4.6484 0 2.5664-2.082 4.6484-4.6484 4.6484zm13.879-56.133c-4.6641-1.9805-10.066-0.90625-13.617 2.7109l-14.316 14.305v0.003906c-3.2383 3.2305-7.6211 5.043-12.195 5.043s-8.957-1.8125-12.195-5.043c-15.574-15.633-36.598-24.633-58.66-25.113-22.062-0.47656-43.453 7.5977-59.695 22.543l-37.734 34.594 37.766 37.758c1.6719 1.6719 3.4141 3.25 5.1953 4.7695 0.14062-0.10938 20.453-12.336 20.453-12.336l0.003906-0.003906c14.355-8.6172 25.16-22.086 30.461-37.973 0.375-1.1875 1.2109-2.1758 2.3203-2.7383 1.1094-0.56641 2.3984-0.66016 3.5781-0.26562 1.1836 0.39453 2.1562 1.2422 2.7031 2.3633 0.54688 1.1172 0.625 2.4062 0.21094 3.582-6 17.988-18.234 33.242-34.496 43.004l-17.305 10.379 0.003906 0.003906c16.469 10.926 36.211 15.824 55.879 13.859 19.664-1.9648 38.047-10.672 52.027-24.645 5.2422-5.2305 13.727-5.2305 18.969 0l17.031 17.031-0.003906-0.003906c3.5742 3.5781 8.9531 4.6484 13.625 2.7109 4.668-1.9336 7.7148-6.4922 7.7148-11.547v-83.441c0.046876-5.0742-3.0195-9.6562-7.7227-11.551zm-158.25 48.891c-5.3086 0-10.094-3.1992-12.125-8.1016-2.0312-4.9062-0.91016-10.551 2.8438-14.305s9.3984-4.875 14.305-2.8438c4.9023 2.0312 8.1016 6.8164 8.1016 12.125 0 7.25-5.875 13.125-13.125 13.125zm124.8-19.062 17.5-8.75c2.2891-1.1016 5.0391-0.16406 6.1719 2.1055 1.1367 2.2734 0.23828 5.0352-2.0156 6.207l-17.5 8.75c-0.64453 0.32031-1.3555 0.48828-2.0781 0.49219-2.1562-0.003907-4.0273-1.4844-4.5195-3.582-0.49609-2.0977 0.51562-4.2578 2.4414-5.2227zm23.734 49.984c-0.78516 1.5742-2.3945 2.5703-4.1562 2.5703-0.72266-0.003907-1.4336-0.17188-2.0781-0.49219l-17.5-8.75c-2.2539-1.1719-3.1523-3.9336-2.0156-6.207 1.1328-2.2695 3.8828-3.207 6.1719-2.1055l17.5 8.75c1.1016 0.54688 1.9414 1.5156 2.332 2.6836 0.39062 1.1719 0.29688 2.4453-0.25391 3.5508zm-4.1562-23.68h-17.5c-2.5664 0-4.6484-2.082-4.6484-4.6484 0-2.5703 2.082-4.6484 4.6484-4.6484h17.5c2.5664 0 4.6484 2.0781 4.6484 4.6484 0 2.5664-2.082 4.6484-4.6484 4.6484zm-54.195-83.07c-3.6953-3.293-8.6094-4.8672-13.531-4.332l-34.465 3.8281h0.003906c-7.6328 0.83984-14.312 5.5117-17.719 12.391 24.523-5.5625 50.25-1.1406 71.508 12.293v-11.211c-0.003906-4.9492-2.1094-9.6641-5.7969-12.969zm-38.367 148.02c3.6016 3.5469 8.1641 5.957 13.125 6.9336 3.3242 0.66797 6.7734-0.19141 9.3984-2.3438 2.6211-2.1484 4.1445-5.3633 4.1406-8.7578v-0.71094c-8.6094 2.8984-17.59 4.543-26.664 4.8789zm0 0c3.6016 3.5469 8.1641 5.957 13.125 6.9336 3.3242 0.66797 6.7734-0.19141 9.3984-2.3438 2.6211-2.1484 4.1445-5.3633 4.1406-8.7578v-0.71094c-8.6094 2.8984-17.59 4.543-26.664 4.8789zm38.367-148.02c-3.6953-3.293-8.6094-4.8672-13.531-4.332l-34.465 3.8281h0.003906c-7.6328 0.83984-14.312 5.5117-17.719 12.391 24.523-5.5625 50.25-1.1406 71.508 12.293v-11.211c-0.003906-4.9492-2.1094-9.6641-5.7969-12.969zm68.074 26.938c-4.6641-1.9805-10.066-0.90625-13.617 2.7109l-14.316 14.305v0.003906c-3.2383 3.2305-7.6211 5.043-12.195 5.043s-8.957-1.8125-12.195-5.043c-15.574-15.633-36.598-24.633-58.66-25.113-22.062-0.47656-43.453 7.5977-59.695 22.543l-37.734 34.594 37.766 37.758c1.6719 1.6719 3.4141 3.25 5.1953 4.7695 0.14062-0.10938 20.453-12.336 20.453-12.336l0.003906-0.003906c14.355-8.6172 25.16-22.086 30.461-37.973 0.375-1.1875 1.2109-2.1758 2.3203-2.7383 1.1094-0.56641 2.3984-0.66016 3.5781-0.26562 1.1836 0.39453 2.1562 1.2422 2.7031 2.3633 0.54688 1.1172 0.625 2.4062 0.21094 3.582-6 17.988-18.234 33.242-34.496 43.004l-17.305 10.379 0.003906 0.003906c16.469 10.926 36.211 15.824 55.879 13.859 19.664-1.9648 38.047-10.672 52.027-24.645 5.2422-5.2305 13.727-5.2305 18.969 0l17.031 17.031-0.003906-0.003906c3.5742 3.5781 8.9531 4.6484 13.625 2.7109 4.668-1.9336 7.7148-6.4922 7.7148-11.547v-83.441c0.046876-5.0742-3.0195-9.6562-7.7227-11.551zm-158.25 48.891c-5.3086 0-10.094-3.1992-12.125-8.1016-2.0312-4.9062-0.91016-10.551 2.8438-14.305s9.3984-4.875 14.305-2.8438c4.9023 2.0312 8.1016 6.8164 8.1016 12.125 0 7.25-5.875 13.125-13.125 13.125zm124.8-19.062 17.5-8.75c2.2891-1.1016 5.0391-0.16406 6.1719 2.1055 1.1367 2.2734 0.23828 5.0352-2.0156 6.207l-17.5 8.75c-0.64453 0.32031-1.3555 0.48828-2.0781 0.49219-2.1562-0.003907-4.0273-1.4844-4.5195-3.582-0.49609-2.0977 0.51562-4.2578 2.4414-5.2227zm23.734 49.984c-0.78516 1.5742-2.3945 2.5703-4.1562 2.5703-0.72266-0.003907-1.4336-0.17188-2.0781-0.49219l-17.5-8.75c-2.2539-1.1719-3.1523-3.9336-2.0156-6.207 1.1328-2.2695 3.8828-3.207 6.1719-2.1055l17.5 8.75c1.1016 0.54688 1.9414 1.5156 2.332 2.6836 0.39062 1.1719 0.29688 2.4453-0.25391 3.5508zm-4.1562-23.68h-17.5c-2.5664 0-4.6484-2.082-4.6484-4.6484 0-2.5703 2.082-4.6484 4.6484-4.6484h17.5c2.5664 0 4.6484 2.0781 4.6484 4.6484 0 2.5664-2.082 4.6484-4.6484 4.6484zm13.879-56.133c-4.6641-1.9805-10.066-0.90625-13.617 2.7109l-14.316 14.305v0.003906c-3.2383 3.2305-7.6211 5.043-12.195 5.043s-8.957-1.8125-12.195-5.043c-15.574-15.633-36.598-24.633-58.66-25.113-22.062-0.47656-43.453 7.5977-59.695 22.543l-37.734 34.594 37.766 37.758c1.6719 1.6719 3.4141 3.25 5.1953 4.7695 0.14062-0.10938 20.453-12.336 20.453-12.336l0.003906-0.003906c14.355-8.6172 25.16-22.086 30.461-37.973 0.375-1.1875 1.2109-2.1758 2.3203-2.7383 1.1094-0.56641 2.3984-0.66016 3.5781-0.26562 1.1836 0.39453 2.1562 1.2422 2.7031 2.3633 0.54688 1.1172 0.625 2.4062 0.21094 3.582-6 17.988-18.234 33.242-34.496 43.004l-17.305 10.379 0.003906 0.003906c16.469 10.926 36.211 15.824 55.879 13.859 19.664-1.9648 38.047-10.672 52.027-24.645 5.2422-5.2305 13.727-5.2305 18.969 0l17.031 17.031-0.003906-0.003906c3.5742 3.5781 8.9531 4.6484 13.625 2.7109 4.668-1.9336 7.7148-6.4922 7.7148-11.547v-83.441c0.046876-5.0742-3.0195-9.6562-7.7227-11.551zm-158.25 48.891c-5.3086 0-10.094-3.1992-12.125-8.1016-2.0312-4.9062-0.91016-10.551 2.8438-14.305s9.3984-4.875 14.305-2.8438c4.9023 2.0312 8.1016 6.8164 8.1016 12.125 0 7.25-5.875 13.125-13.125 13.125zm124.8-19.062 17.5-8.75c2.2891-1.1016 5.0391-0.16406 6.1719 2.1055 1.1367 2.2734 0.23828 5.0352-2.0156 6.207l-17.5 8.75c-0.64453 0.32031-1.3555 0.48828-2.0781 0.49219-2.1562-0.003907-4.0273-1.4844-4.5195-3.582-0.49609-2.0977 0.51562-4.2578 2.4414-5.2227zm23.734 49.984c-0.78516 1.5742-2.3945 2.5703-4.1562 2.5703-0.72266-0.003907-1.4336-0.17188-2.0781-0.49219l-17.5-8.75c-2.2539-1.1719-3.1523-3.9336-2.0156-6.207 1.1328-2.2695 3.8828-3.207 6.1719-2.1055l17.5 8.75c1.1016 0.54688 1.9414 1.5156 2.332 2.6836 0.39062 1.1719 0.29688 2.4453-0.25391 3.5508zm-4.1562-23.68h-17.5c-2.5664 0-4.6484-2.082-4.6484-4.6484 0-2.5703 2.082-4.6484 4.6484-4.6484h17.5c2.5664 0 4.6484 2.0781 4.6484 4.6484 0 2.5664-2.082 4.6484-4.6484 4.6484zm-54.195-83.07c-3.6953-3.293-8.6094-4.8672-13.531-4.332l-34.465 3.8281h0.003906c-7.6328 0.83984-14.312 5.5117-17.719 12.391 24.523-5.5625 50.25-1.1406 71.508 12.293v-11.211c-0.003906-4.9492-2.1094-9.6641-5.7969-12.969zm-38.367 148.02c3.6016 3.5469 8.1641 5.957 13.125 6.9336 3.3242 0.66797 6.7734-0.19141 9.3984-2.3438 2.6211-2.1484 4.1445-5.3633 4.1406-8.7578v-0.71094c-8.6094 2.8984-17.59 4.543-26.664 4.8789z"/>
  <use x="70" y="576.40625" xlink:href="#w"/>
  <use x="74.011719" y="576.40625" xlink:href="#e"/>
  <use x="76.710938" y="576.40625" xlink:href="#b"/>
  <use x="80.417969" y="576.40625" xlink:href="#a"/>
  <use x="84.109375" y="576.40625" xlink:href="#c"/>
  <use x="86.722656" y="576.40625" xlink:href="#b"/>
  <use x="90.433594" y="576.40625" xlink:href="#l"/>
  <use x="96.25" y="576.40625" xlink:href="#k"/>
  <use x="100.167969" y="576.40625" xlink:href="#g"/>
  <use x="105.636719" y="576.40625" xlink:href="#j"/>
  <use x="109.871094" y="576.40625" xlink:href="#a"/>
  <use x="113.5625" y="576.40625" xlink:href="#d"/>
  <use x="117.457031" y="576.40625" xlink:href="#g"/>
  <use x="121.019531" y="576.40625" xlink:href="#a"/>
  <use x="124.710938" y="576.40625" xlink:href="#d"/>
  <use x="128.605469" y="576.40625" xlink:href="#b"/>
  <use x="132.3125" y="576.40625" xlink:href="#b"/>
  <use x="137.925781" y="576.40625" xlink:href="#v"/>
  <use x="143.957031" y="576.40625" xlink:href="#a"/>
  <use x="147.648438" y="576.40625" xlink:href="#c"/>
  <use x="150.261719" y="576.40625" xlink:href="#a"/>
  <use x="153.953125" y="576.40625" xlink:href="#d"/>
  <use x="157.847656" y="576.40625" xlink:href="#a"/>
  <use x="161.539062" y="576.40625" xlink:href="#i"/>
  <use x="163.410156" y="576.40625" xlink:href="#u"/>
  <use x="165.285156" y="576.40625" xlink:href="#c"/>
  <use x="167.902344" y="576.40625" xlink:href="#t"/>
  <use x="171.539062" y="576.40625" xlink:href="#a"/>
  <use x="175.226562" y="576.40625" xlink:href="#s"/>
  <use x="178.484375" y="576.40625" xlink:href="#b"/>
  <use x="182.191406" y="576.40625" xlink:href="#h"/>
  <use x="70" y="581.875" xlink:href="#r"/>
  <use x="72.378906" y="581.875" xlink:href="#e"/>
  <use x="75.078125" y="581.875" xlink:href="#f"/>
  <use x="78.832031" y="581.875" xlink:href="#h"/>
  <use x="86.4375" y="581.875" xlink:href="#c"/>
  <use x="89.050781" y="581.875" xlink:href="#q"/>
  <use x="92.941406" y="581.875" xlink:href="#b"/>
  <use x="98.554688" y="581.875" xlink:href="#p"/>
  <use x="103.132812" y="581.875" xlink:href="#f"/>
  <use x="106.890625" y="581.875" xlink:href="#o"/>
  <use x="110.785156" y="581.875" xlink:href="#d"/>
  <use x="116.582031" y="581.875" xlink:href="#n"/>
  <use x="120.589844" y="581.875" xlink:href="#e"/>
  <use x="123.285156" y="581.875" xlink:href="#f"/>
  <use x="127.042969" y="581.875" xlink:href="#i"/>
  <use x="128.917969" y="581.875" xlink:href="#b"/>
  <use x="132.625" y="581.875" xlink:href="#m"/>
  <use x="135.867188" y="581.875" xlink:href="#c"/>
 </g>
</svg>
