<?xml version="1.0" encoding="UTF-8"?>
<svg width="700pt" height="700pt" version="1.1" viewBox="0 0 700 700" xmlns="http://www.w3.org/2000/svg" xmlns:xlink="http://www.w3.org/1999/xlink">
 <defs>
  <symbol id="v" overflow="visible">
   <path d="m3.7188-0.21875c-0.1875 0.09375-0.38672 0.16797-0.59375 0.21875-0.21094 0.050781-0.42969 0.078125-0.65625 0.078125-0.66797 0-1.1992-0.1875-1.5938-0.5625-0.39844-0.375-0.59375-0.89062-0.59375-1.5469 0-0.64453 0.19531-1.1562 0.59375-1.5312 0.39453-0.375 0.92578-0.5625 1.5938-0.5625 0.22656 0 0.44531 0.027344 0.65625 0.078125 0.20703 0.054687 0.40625 0.125 0.59375 0.21875v0.84375c-0.1875-0.13281-0.375-0.23438-0.5625-0.29688s-0.38672-0.09375-0.59375-0.09375c-0.375 0-0.67188 0.12109-0.89062 0.35938-0.21094 0.24219-0.3125 0.57031-0.3125 0.98438 0 0.42969 0.10156 0.76172 0.3125 1 0.21875 0.24219 0.51562 0.35938 0.89062 0.35938 0.20703 0 0.40625-0.03125 0.59375-0.09375s0.375-0.16016 0.5625-0.29688z"/>
  </symbol>
  <symbol id="d" overflow="visible">
   <path d="m2.7344-2.2188c-0.09375-0.03125-0.18359-0.054688-0.26562-0.078125-0.085938-0.019531-0.16797-0.03125-0.25-0.03125-0.25 0-0.44531 0.085937-0.57812 0.25-0.13672 0.15625-0.20312 0.38281-0.20312 0.67188v1.4062h-0.96875v-3.0469h0.96875v0.5c0.125-0.19531 0.26562-0.33594 0.42188-0.42188 0.16406-0.09375 0.36328-0.14062 0.59375-0.14062h0.09375c0.039063 0 0.097656 0.007813 0.17188 0.015625z"/>
  </symbol>
  <symbol id="b" overflow="visible">
   <path d="m3.5-1.5312v0.28125h-2.2656c0.019531 0.23047 0.097656 0.40234 0.23438 0.51562 0.14453 0.11719 0.34375 0.17188 0.59375 0.17188 0.20703 0 0.41406-0.03125 0.625-0.09375 0.21875-0.0625 0.44141-0.15625 0.67188-0.28125v0.75c-0.23047 0.09375-0.46094 0.16406-0.6875 0.20312-0.23047 0.039062-0.46094 0.0625-0.6875 0.0625-0.55469 0-0.98438-0.14062-1.2969-0.42188-0.30469-0.28125-0.45312-0.67188-0.45312-1.1719s0.14844-0.89062 0.45312-1.1719c0.30078-0.28125 0.71094-0.42188 1.2344-0.42188 0.47656 0 0.85938 0.14844 1.1406 0.4375 0.28906 0.28125 0.4375 0.66406 0.4375 1.1406zm-1-0.32812c0-0.17578-0.054688-0.32031-0.15625-0.4375-0.10547-0.11328-0.24609-0.17188-0.42188-0.17188-0.1875 0-0.34375 0.054688-0.46875 0.15625-0.11719 0.10547-0.1875 0.25781-0.21875 0.45312z"/>
  </symbol>
  <symbol id="l" overflow="visible">
   <path d="m1.8281-1.375c-0.19922 0-0.35156 0.039062-0.45312 0.10938-0.10547 0.074219-0.15625 0.17188-0.15625 0.29688s0.039062 0.22656 0.125 0.29688c0.082031 0.074219 0.19531 0.10938 0.34375 0.10938 0.1875 0 0.33594-0.066406 0.45312-0.20312 0.125-0.13281 0.1875-0.29688 0.1875-0.48438v-0.125zm1.4844-0.35938v1.7344h-0.98438v-0.45312c-0.125 0.1875-0.27344 0.32422-0.4375 0.40625-0.15625 0.082031-0.35547 0.125-0.59375 0.125-0.3125 0-0.57031-0.085938-0.76562-0.26562-0.19922-0.1875-0.29688-0.42578-0.29688-0.71875 0-0.36328 0.11719-0.62891 0.35938-0.79688 0.25-0.16406 0.64062-0.25 1.1719-0.25h0.5625v-0.078125c0-0.14453-0.0625-0.25391-0.1875-0.32812-0.11719-0.070313-0.29688-0.10938-0.54688-0.10938-0.21094 0-0.40625 0.023438-0.59375 0.0625-0.17969 0.042969-0.34375 0.10547-0.5 0.1875v-0.73438c0.20703-0.050781 0.41406-0.085937 0.625-0.10938 0.21875-0.03125 0.42969-0.046875 0.64062-0.046875 0.53906 0 0.92969 0.10938 1.1719 0.32812 0.25 0.21094 0.375 0.55859 0.375 1.0469z"/>
  </symbol>
  <symbol id="a" overflow="visible">
   <path d="m1.5312-3.9062v0.85938h1v0.70312h-1v1.2812c0 0.14844 0.023438 0.24609 0.078125 0.29688 0.0625 0.042969 0.17578 0.0625 0.34375 0.0625h0.5v0.70312h-0.84375c-0.38672 0-0.65625-0.078125-0.8125-0.23438-0.15625-0.16406-0.23438-0.44141-0.23438-0.82812v-1.2812h-0.48438v-0.70312h0.48438v-0.85938z"/>
  </symbol>
  <symbol id="f" overflow="visible">
   <path d="m2.5312-2.5938v-1.625h0.98438v4.2188h-0.98438v-0.4375c-0.13672 0.17969-0.28125 0.30859-0.4375 0.39062-0.15625 0.082031-0.34375 0.125-0.5625 0.125-0.375 0-0.68359-0.14453-0.92188-0.4375-0.24219-0.30078-0.35938-0.6875-0.35938-1.1562s0.11719-0.84766 0.35938-1.1406c0.23828-0.30078 0.54688-0.45312 0.92188-0.45312 0.20703 0 0.39062 0.042969 0.54688 0.125 0.16406 0.085937 0.31641 0.21484 0.45312 0.39062zm-0.64062 1.9688c0.20703 0 0.36328-0.070312 0.46875-0.21875 0.11328-0.15625 0.17188-0.37891 0.17188-0.67188 0-0.28906-0.058594-0.50781-0.17188-0.65625-0.10547-0.15625-0.26172-0.23438-0.46875-0.23438-0.19922 0-0.35547 0.078125-0.46875 0.23438-0.11719 0.14844-0.17188 0.36719-0.17188 0.65625 0 0.29297 0.054688 0.51562 0.17188 0.67188 0.11328 0.14844 0.26953 0.21875 0.46875 0.21875z"/>
  </symbol>
  <symbol id="k" overflow="visible">
   <path d="m2.0938-0.625c0.19531 0 0.35156-0.070312 0.46875-0.21875 0.11328-0.15625 0.17188-0.37891 0.17188-0.67188 0-0.28906-0.058594-0.50781-0.17188-0.65625-0.11719-0.15625-0.27344-0.23438-0.46875-0.23438-0.21094 0-0.37109 0.078125-0.48438 0.23438-0.11719 0.14844-0.17188 0.36719-0.17188 0.65625 0 0.28125 0.054688 0.5 0.17188 0.65625 0.11328 0.15625 0.27344 0.23438 0.48438 0.23438zm-0.65625-1.9688c0.13281-0.17578 0.28125-0.30469 0.4375-0.39062 0.16406-0.082031 0.35938-0.125 0.57812-0.125 0.375 0 0.67969 0.15234 0.92188 0.45312 0.23828 0.29297 0.35938 0.67188 0.35938 1.1406s-0.12109 0.85547-0.35938 1.1562c-0.24219 0.29297-0.54688 0.4375-0.92188 0.4375-0.21875 0-0.41406-0.042969-0.57812-0.125-0.15625-0.082031-0.30469-0.21094-0.4375-0.39062v0.4375h-0.96875v-4.2188h0.96875z"/>
  </symbol>
  <symbol id="e" overflow="visible">
   <path d="m0.0625-3.0469h0.98438l0.8125 2.0625 0.6875-2.0625h0.98438l-1.2812 3.3281c-0.13672 0.34375-0.28906 0.58203-0.45312 0.71875-0.16797 0.13281-0.39062 0.20312-0.67188 0.20312h-0.5625v-0.64062h0.29688c0.16406 0 0.28516-0.027344 0.35938-0.078125 0.070312-0.054687 0.12891-0.14844 0.17188-0.28125l0.03125-0.09375z"/>
  </symbol>
  <symbol id="j" overflow="visible">
   <path d="m2.9688-0.73438h-1.625l-0.26562 0.73438h-1.0469l1.5-4.0625h1.25l1.5 4.0625h-1.0469zm-1.375-0.75h1.1094l-0.54688-1.625z"/>
  </symbol>
  <symbol id="i" overflow="visible">
   <path d="m3.2812-2.5312c0.125-0.1875 0.26953-0.32812 0.4375-0.42188 0.17578-0.10156 0.36328-0.15625 0.5625-0.15625 0.35156 0 0.61719 0.10938 0.79688 0.32812 0.1875 0.21094 0.28125 0.51562 0.28125 0.92188v1.8594h-0.98438v-1.5938-0.0625c0.007812-0.03125 0.015625-0.066406 0.015625-0.10938 0-0.21875-0.039063-0.375-0.10938-0.46875-0.0625-0.09375-0.16406-0.14062-0.29688-0.14062-0.1875 0-0.33594 0.078125-0.4375 0.23438-0.09375 0.14844-0.14844 0.35938-0.15625 0.64062v1.5h-0.96875v-1.5938c0-0.33203-0.03125-0.54688-0.09375-0.64062-0.054687-0.09375-0.15234-0.14062-0.29688-0.14062-0.1875 0-0.33594 0.078125-0.4375 0.23438-0.10547 0.14844-0.15625 0.35938-0.15625 0.64062v1.5h-0.96875v-3.0469h0.96875v0.45312c0.125-0.17578 0.25781-0.30469 0.40625-0.39062 0.15625-0.082031 0.32812-0.125 0.51562-0.125 0.20703 0 0.39062 0.054687 0.54688 0.15625 0.16406 0.09375 0.28906 0.23438 0.375 0.42188z"/>
  </symbol>
  <symbol id="h" overflow="visible">
   <path d="m3.5312-1.8594v1.8594h-0.98438v-1.4062c0-0.26953-0.007813-0.45312-0.015625-0.54688-0.011719-0.10156-0.03125-0.17969-0.0625-0.23438-0.042969-0.0625-0.09375-0.10938-0.15625-0.14062s-0.13672-0.046875-0.21875-0.046875c-0.21094 0-0.37109 0.078125-0.48438 0.23438-0.11719 0.15625-0.17188 0.37109-0.17188 0.64062v1.5h-0.96875v-4.2188h0.96875v1.625c0.14453-0.17578 0.30078-0.30469 0.46875-0.39062 0.16406-0.082031 0.34766-0.125 0.54688-0.125 0.35156 0 0.61719 0.10938 0.79688 0.32812 0.1875 0.21094 0.28125 0.51562 0.28125 0.92188z"/>
  </symbol>
  <symbol id="u" overflow="visible">
   <path d="m2.8438-2.9531v0.75c-0.21094-0.09375-0.41406-0.16016-0.60938-0.20312-0.1875-0.039062-0.37109-0.0625-0.54688-0.0625-0.17969 0-0.3125 0.027344-0.40625 0.078125-0.09375 0.042969-0.14062 0.10938-0.14062 0.20312 0 0.085938 0.03125 0.14844 0.09375 0.1875 0.070313 0.042969 0.19531 0.070312 0.375 0.078125l0.17188 0.03125c0.5 0.0625 0.83203 0.16797 1 0.3125 0.17578 0.14844 0.26562 0.375 0.26562 0.6875 0 0.32422-0.12109 0.57031-0.35938 0.73438-0.24219 0.15625-0.59375 0.23438-1.0625 0.23438-0.21094 0-0.42188-0.015625-0.64062-0.046875-0.21094-0.03125-0.42969-0.078125-0.65625-0.14062v-0.73438c0.19531 0.09375 0.39453 0.16797 0.59375 0.21875 0.20703 0.042969 0.41406 0.0625 0.625 0.0625 0.19531 0 0.34375-0.023438 0.4375-0.078125 0.09375-0.050781 0.14062-0.12891 0.14062-0.23438 0-0.09375-0.039062-0.16016-0.10938-0.20312-0.0625-0.039063-0.19531-0.070313-0.39062-0.09375l-0.17188-0.015625c-0.42969-0.0625-0.73047-0.16406-0.90625-0.3125-0.17969-0.14453-0.26562-0.36719-0.26562-0.67188 0-0.3125 0.10938-0.54688 0.32812-0.70312 0.22656-0.15625 0.57031-0.23438 1.0312-0.23438 0.17578 0 0.36328 0.015625 0.5625 0.046875 0.19531 0.023438 0.41016 0.058594 0.64062 0.10938z"/>
  </symbol>
  <symbol id="t" overflow="visible">
   <path d="m3.3281-3.9219v0.85938c-0.21875-0.10156-0.4375-0.17969-0.65625-0.23438-0.21094-0.050781-0.40625-0.078125-0.59375-0.078125-0.25 0-0.4375 0.039062-0.5625 0.10938-0.11719 0.0625-0.17188 0.16797-0.17188 0.3125 0 0.11719 0.039062 0.20312 0.125 0.26562 0.082031 0.054688 0.22656 0.10547 0.4375 0.15625l0.45312 0.078125c0.44531 0.09375 0.76562 0.23438 0.95312 0.42188s0.28125 0.44922 0.28125 0.78125c0 0.44922-0.13672 0.78125-0.40625 1-0.26172 0.21875-0.66406 0.32812-1.2031 0.32812-0.26172 0-0.52344-0.027344-0.78125-0.078125-0.25-0.039062-0.50781-0.11328-0.76562-0.21875v-0.875c0.25781 0.13672 0.50781 0.24219 0.75 0.3125 0.23828 0.074219 0.47266 0.10938 0.70312 0.10938 0.22656 0 0.39844-0.035156 0.51562-0.10938 0.125-0.082031 0.1875-0.19531 0.1875-0.34375 0-0.125-0.042969-0.21875-0.125-0.28125-0.085938-0.070312-0.25-0.13281-0.5-0.1875l-0.40625-0.09375c-0.39844-0.082031-0.6875-0.21875-0.875-0.40625-0.1875-0.19531-0.28125-0.45703-0.28125-0.78125 0-0.40625 0.12891-0.71094 0.39062-0.92188 0.25781-0.21875 0.63281-0.32812 1.125-0.32812 0.21875 0 0.44141 0.015625 0.67188 0.046875 0.23828 0.03125 0.48438 0.085937 0.73438 0.15625z"/>
  </symbol>
  <symbol id="g" overflow="visible">
   <path d="m0.4375-1.1875v-1.8594h0.96875v0.3125 0.625 0.48438c0 0.25 0.003906 0.43359 0.015625 0.54688 0.007813 0.10547 0.03125 0.17969 0.0625 0.21875 0.039063 0.0625 0.09375 0.11719 0.15625 0.15625 0.070313 0.03125 0.14844 0.046875 0.23438 0.046875 0.19531 0 0.35156-0.078125 0.46875-0.23438 0.11328-0.15625 0.17188-0.375 0.17188-0.65625v-1.5h0.98438v3.0469h-0.98438v-0.4375c-0.14844 0.17969-0.30469 0.30859-0.46875 0.39062-0.15625 0.082031-0.33594 0.125-0.53125 0.125-0.35547 0-0.625-0.10156-0.8125-0.3125-0.17969-0.21875-0.26562-0.53516-0.26562-0.95312z"/>
  </symbol>
  <symbol id="s" overflow="visible">
   <path d="m0.46875-3.0469h0.96875v3.0469h-0.96875zm0-1.1719h0.96875v0.78125h-0.96875z"/>
  </symbol>
  <symbol id="c" overflow="visible">
   <path d="m1.9219-2.4219c-0.21875 0-0.38672 0.078125-0.5 0.23438-0.11719 0.15625-0.17188 0.38281-0.17188 0.67188 0 0.29297 0.054688 0.51562 0.17188 0.67188 0.11328 0.15625 0.28125 0.23438 0.5 0.23438 0.20703 0 0.36328-0.078125 0.46875-0.23438 0.11328-0.15625 0.17188-0.37891 0.17188-0.67188 0-0.28906-0.058594-0.51562-0.17188-0.67188-0.10547-0.15625-0.26172-0.23438-0.46875-0.23438zm0-0.6875c0.51953 0 0.92578 0.14062 1.2188 0.42188 0.28906 0.28125 0.4375 0.67188 0.4375 1.1719s-0.14844 0.89062-0.4375 1.1719c-0.29297 0.28125-0.69922 0.42188-1.2188 0.42188-0.53125 0-0.94922-0.14062-1.25-0.42188-0.29297-0.28125-0.4375-0.67188-0.4375-1.1719s0.14453-0.89062 0.4375-1.1719c0.30078-0.28125 0.71875-0.42188 1.25-0.42188z"/>
  </symbol>
  <symbol id="r" overflow="visible">
   <path d="m2.4688-4.2188v0.625h-0.53125c-0.14844 0-0.24609 0.027344-0.29688 0.078125-0.054687 0.054687-0.078125 0.14062-0.078125 0.26562v0.20312h0.82812v0.70312h-0.82812v2.3438h-0.96875v-2.3438h-0.48438v-0.70312h0.48438v-0.20312c0-0.33203 0.085938-0.57812 0.26562-0.73438 0.1875-0.15625 0.47266-0.23438 0.85938-0.23438z"/>
  </symbol>
  <symbol id="q" overflow="visible">
   <path d="m0.51562-4.0625h1.1562l1.4844 2.7812v-2.7812h0.98438v4.0625h-1.1562l-1.4844-2.7812v2.7812h-0.98438z"/>
  </symbol>
  <symbol id="p" overflow="visible">
   <path d="m3.5312-1.8594v1.8594h-0.98438v-1.4219c0-0.25781-0.007813-0.4375-0.015625-0.53125-0.011719-0.10156-0.03125-0.17969-0.0625-0.23438-0.042969-0.0625-0.09375-0.10938-0.15625-0.14062s-0.13672-0.046875-0.21875-0.046875c-0.21094 0-0.37109 0.078125-0.48438 0.23438-0.11719 0.15625-0.17188 0.37109-0.17188 0.64062v1.5h-0.96875v-3.0469h0.96875v0.45312c0.14453-0.17578 0.30078-0.30469 0.46875-0.39062 0.16406-0.082031 0.34766-0.125 0.54688-0.125 0.35156 0 0.61719 0.10938 0.79688 0.32812 0.1875 0.21094 0.28125 0.51562 0.28125 0.92188z"/>
  </symbol>
  <symbol id="o" overflow="visible">
   <path d="m0.51562-4.0625h1.7344c0.50781 0 0.89844 0.11719 1.1719 0.34375 0.28125 0.23047 0.42188 0.55859 0.42188 0.98438 0 0.42969-0.14062 0.75781-0.42188 0.98438-0.27344 0.23047-0.66406 0.34375-1.1719 0.34375h-0.6875v1.4062h-1.0469zm1.0469 0.76562v1.125h0.57812c0.19531 0 0.34766-0.046875 0.45312-0.14062 0.11328-0.09375 0.17188-0.23438 0.17188-0.42188 0-0.17578-0.058594-0.3125-0.17188-0.40625-0.10547-0.10156-0.25781-0.15625-0.45312-0.15625z"/>
  </symbol>
  <symbol id="n" overflow="visible">
   <path d="m0.46875-3.0469h0.96875v3c0 0.40625-0.10156 0.71094-0.29688 0.92188-0.1875 0.21875-0.46875 0.32812-0.84375 0.32812h-0.48438v-0.64062h0.17188c0.1875 0 0.3125-0.042969 0.375-0.125 0.070313-0.085938 0.10938-0.24609 0.10938-0.48438zm0-1.1719h0.96875v0.78125h-0.96875z"/>
  </symbol>
  <symbol id="m" overflow="visible">
   <path d="m2.9219-2.9531v0.79688c-0.125-0.09375-0.25781-0.16016-0.39062-0.20312-0.13672-0.039063-0.27734-0.0625-0.42188-0.0625-0.27344 0-0.48438 0.085937-0.64062 0.25-0.14844 0.15625-0.21875 0.375-0.21875 0.65625s0.070312 0.50781 0.21875 0.67188c0.15625 0.15625 0.36719 0.23438 0.64062 0.23438 0.15625 0 0.30078-0.019531 0.4375-0.0625 0.13281-0.050781 0.25781-0.125 0.375-0.21875v0.79688c-0.14844 0.0625-0.29688 0.10156-0.45312 0.125-0.15625 0.03125-0.32031 0.046875-0.48438 0.046875-0.54297 0-0.96875-0.14062-1.2812-0.42188s-0.46875-0.67188-0.46875-1.1719 0.15625-0.89062 0.46875-1.1719 0.73828-0.42188 1.2812-0.42188c0.16406 0 0.32031 0.015625 0.46875 0.046875 0.15625 0.023438 0.3125 0.058594 0.46875 0.10938z"/>
  </symbol>
 </defs>
 <g>
  <path d="m442.97 240.92c26.43-42.945 45.434-85.531 54.957-123.16 10.855-42.891 9.4297-78.176-4.2344-104.86-0.23438-0.45703-0.54688-0.85156-0.90625-1.1914-0.003906-0.003906-0.003906-0.003906-0.007812-0.007813-0.20703-0.19531-0.42578-0.36719-0.66406-0.51953-0.003906 0-0.003906-0.003906-0.007812-0.003906-0.46484-0.29688-0.98047-0.5-1.5273-0.60938-0.054687-0.011719-0.10938-0.019531-0.16406-0.027344-0.21875-0.035156-0.44141-0.050781-0.66797-0.050781-0.042969 0-0.085938-0.011719-0.12891-0.011719-0.019532 0-0.035157 0.003906-0.050782 0.007813-0.023437 0-0.046875-0.003907-0.070312 0-0.24219 0.011719-0.48047 0.050781-0.71094 0.10156-0.070312 0.015625-0.13672 0.039063-0.20703 0.058594-0.1875 0.050781-0.36719 0.10938-0.54688 0.18359-0.078125 0.035156-0.15625 0.066406-0.23438 0.10156-0.19531 0.09375-0.38281 0.19922-0.55859 0.32031-0.035156 0.023437-0.070312 0.039062-0.10156 0.0625-0.20703 0.14844-0.39453 0.31641-0.57031 0.49609-0.050781 0.050781-0.09375 0.10547-0.14453 0.16016-0.125 0.14062-0.24219 0.28906-0.34766 0.44531-0.046875 0.066406-0.09375 0.13281-0.13281 0.20312-0.10938 0.17969-0.20703 0.36719-0.28906 0.56641-0.019532 0.046874-0.042969 0.085937-0.0625 0.13281 0 0.003906-0.003906 0.003906-0.003906 0.007812-0.54688 1.4258-55.773 144.16-131.75 259.7l-0.83594 1.2695c-41.137 62.562-68.223 103.76-100.28 138.79 7.7461-11.395 15.172-23.527 22.242-36.383 0.03125-0.058594 0.0625-0.12109 0.097656-0.17969 0.003906-0.003906 0.003906-0.007812 0.007813-0.011718 15.598-28.336 28.969-59.102 39.738-91.449 2.7305-8.1953 5.4492-17.516 8.0859-27.699 0.003906-0.007812 0-0.015625 0.003906-0.023437 3.0156-11.719 5.7461-23.961 8.1406-36.406 13.414-12.227 25.613-25.84 36.328-40.512 0.9375 0.097656 1.8984 0.15234 2.8828 0.15234 6.6289 0 14.098-2.2109 20.031-6.1367 5.6758-3.7539 9.2773-8.6562 10.129-13.809 0.44531-2.668 0.26953-5.1953-0.44922-7.4609 8.2656-5.3711 15.93-14.797 18.785-23.535 1.0898-3.3398 1.3945-6.4375 0.94141-9.1719 7.5703-5.707 13.801-15.762 15.062-24.805 0.62891-4.4961-0.003906-8.3984-1.8086-11.488 7.0117-5.2031 13.07-13.566 14.824-21.023 1.2148-5.168 0.41797-9.7539-2.3125-13.262-1.8555-2.3867-4.2773-4.0664-7.0586-4.9883 1.5625-6.8398 0.86719-14.379-2.0781-19.801-2.3945-4.4062-6.1914-7.2031-10.688-7.8828-4.4648-0.67969-8.7969 0.66797-12.527 3.8906-4.3438 3.7578-7.5742 9.9648-8.8477 16.551-3.1758-0.68359-6.5352-0.58984-9.875 0.35156-5.0859 1.4336-8.7852 5.8516-10.148 12.113-1.168 5.3672-0.44922 12.355 3.0352 18.504-9.4922 4.4414-11.484 18.172-8.2539 30.332-8.5977 4.2656-12.793 19.156-13.109 31.367-1.6289 0.24219-3.2461 0.79297-4.8086 1.6836-4.0391 2.3164-6.7617 7.6406-7.6602 15-1.082 8.8203 0.55078 20.879 6.3086 28.785-7.8945 10.75-16.609 20.91-26.047 30.336 1.2266-7.3203 2.3203-14.57 3.2422-21.656v-0.011719c2.3828-18.344 3.7031-35.496 3.957-51.078 10.844-7.4102 19.113-20.977 19.594-32.57 0.26562-6.3906-1.9648-11.645-6.2539-14.887 2.1602-6.8164 2.2461-14.797 0.050781-21.004-1.5-4.2344-3.9531-7.25-7.082-8.7188-0.64844-0.30469-1.3047-0.55469-1.9688-0.76953 0.92969-8.8945-0.72656-17.266-4.6211-22.57-2.6367-3.5898-6.2109-5.7188-10.336-6.1484-2.0508-0.21875-4.0391-0.078124-5.9375 0.36719-1.082-4.4336-3.5625-8.6914-7.1445-11.984-4.9531-4.5508-11.066-6.4844-16.762-5.2891-1.9922 0.41016-3.8086 1.1289-5.4414 2.0977-2.1602-3.2812-5.4492-6.0703-9.6211-8.043-6.9141-3.2656-14.664-3.418-19.742-0.39062-1.0039 0.59766-1.8867 1.293-2.707 2.043-6.75-4.3398-15.59-6.3867-23.285-5.1602-5.5039 0.87891-9.7383 3.4492-11.926 7.2461-0.9375 1.6328-1.5703 3.4766-1.8945 5.418-6.8359-0.23047-13.699 2.4219-18.207 5.7656-4.8203 3.5781-7.4766 8.0625-7.4766 12.621 0 4.082 2.2148 7.957 6.4102 11.207 5.4219 4.1953 13.211 6.625 20.34 6.6211 0.88672 0 1.7539-0.050782 2.6133-0.125 0.94922 1.9219 2.2461 3.7031 3.8633 5.2695 3.4258 3.3359 8.918 5.3008 14.191 5.3008 1.5195 0 3.0234-0.16406 4.4492-0.50391 2.4375-0.57812 4.5391-1.6289 6.2422-3.0586 2.5352 1.8672 5.7578 2.8945 9.3398 2.9102h0.078124c3.1055 0 6.2773-0.78516 9.0703-2.1133 0.9375 1.5664 2.1367 2.9648 3.6172 4.1406 2.7344 2.1719 6.207 3.457 10.055 3.7773 0.38281 2.1523 1.2383 4.2305 2.5781 6.1562 2.25 3.2344 5.8828 5.9648 9.9102 7.6133-0.27344 2.625 0.16797 5.3711 1.3594 8.0664 1.1875 2.6875 3.0469 5.1289 5.293 7.0859-1.168 1.2148-2.1758 2.6289-2.9648 4.2422-0.16406 0.33594-0.3125 0.68359-0.45312 1.0312-1.4961 0.21875-2.9453 0.69922-4.3086 1.4336-1.6758-6.1445-5.2344-11.633-9.1289-15.004-3.5508-3.0742-7.3945-4.5508-11.098-4.3359-9.0586-9.7227-22.457-17.496-32.902-9.6289-1.0547 0.79688-1.9648 1.7695-2.7383 2.8633-7.2383-7.1133-16.988-12.113-25.684-9.207-0.36328 0.12109-0.71094 0.27344-1.0625 0.42578-10.258-10.152-27.684-16.199-36.555-9.2383-2.0625 1.625-3.6055 3.6523-4.5898 5.9922-6.8008-0.69922-13.945 1.0977-19.477 5.0547-4.957 3.5469-7.8477 8.2969-8.1406 13.371-0.28906 5.0078 1.9336 9.9453 6.2578 13.898 4.1953 3.8398 9.8672 6.2578 15.422 6.7656 0.25781 2.1016 0.96484 4.0781 2.1367 5.8555 2.3164 3.5117 6.2812 5.8477 11.16 6.5742 1.1094 0.16406 2.25 0.24609 3.4062 0.24609 4.457 0 9.1602-1.2305 13.492-3.4414 0.10938 0.20703 0.21484 0.41797 0.33984 0.61719 1.9414 3.1914 5.3984 5.2852 10 6.0586 1.3086 0.21875 2.6758 0.32422 4.0703 0.32422 4.082 0 8.4102-0.92578 12.324-2.5586 1.2305 3.6211 3.9727 6.6562 7.957 8.6758 3.4844 1.7695 7.5859 2.6484 11.73 2.6484 1.9102 0 3.8242-0.19922 5.6992-0.57031 0.66406 2.9023 2.5 5.582 5.3672 7.707 4.1602 3.0859 10.07 4.8047 15.684 4.8047 0.24609 0 0.49219-0.019532 0.73828-0.023438 0.49219 3.4609 2.2383 6.3984 5.1602 8.5664 3.9805 2.957 9.8242 4.1523 16.078 4.1523 4.7188 0 9.6641-0.6875 14.227-1.8125 6.7344 10.34 12.211 22.105 16.293 35.051-1.4297 10.875-3.2344 22.117-5.3789 33.445-0.011719 0.050781-0.019531 0.097656-0.027344 0.14844-1.418 7.4609-2.9727 14.832-4.6289 22.078-3.5508-9.043-9.1797-20.723-17.602-31.793 5.1953-12.324 5.1445-27.859-0.37109-36.52-3.082-4.8398-7.75-7.4297-13.09-7.2578-0.93359 0.027344-1.8398 0.15234-2.7227 0.35547-5.2266-8.8398-15.531-17.039-25.688-13.105-1.2773 0.49219-2.4648 1.1406-3.5469 1.9336-11.336-7.1836-28.895-13.301-38.535-5.0078-10.77-5.2656-24.754-6.4141-34.605-2.5742-5.2852 2.0586-8.9062 5.4062-10.59 9.7148-9.3359-2.0352-20.094-0.46875-28.16 4.3711-6.1289 3.6758-9.8828 8.8125-10.566 14.457-0.16406 1.3359-0.1875 2.6367-0.09375 3.8984-6.4531 2.6523-12.07 8.4766-15.199 13.891-3.457 5.9766-4.3359 11.895-2.4766 16.664 1.5195 3.8984 4.7734 6.8086 9.4062 8.4141 2.7695 0.96094 5.9727 1.4219 9.3125 1.4219 4.4688 0 9.1758-0.84375 13.438-2.4102 1.4258 3.3008 3.8086 5.8516 6.9648 7.2812 2.1875 0.99219 4.6836 1.4844 7.3633 1.4844 3.8633 0 8.1055-1.0195 12.348-3.0312 5.9531-2.8242 10.867-7.1523 13.836-11.977 2.5859 1.168 5.4766 1.6445 8.3086 1.6445 2.0859 0 4.1367-0.25781 6-0.69141 4.8516-1.125 8.875-3.4023 11.539-6.3828 3.2734 1.9062 7.3164 2.668 11.363 2.668 4.0742 0 8.1328-0.77734 11.422-1.9141 3.457 3.8789 8.9883 6.0898 14.891 6.0898 0.98437 0 1.9805-0.085937 2.9766-0.21094 0.13672 0.54297 0.30078 1.0781 0.5 1.6133 1.043 2.7422 3.5586 6.3672 9.5938 8.043 2.0781 0.57812 4.3867 0.85156 6.832 0.85156 7.5039 0 16.273-2.6016 23.438-7.0508 12.699 17.223 18.262 35.676 19.77 41.391-2.4961 9.5586-5.0586 18.312-7.625 26.023-8.3555 25.094-18.676 50.004-30.207 73.035-0.23828-9.8281-1.3945-19.004-3.4609-27.441 8.8594-7.5703 16.242-21.461 16.652-31.992 0.26562-6.8906-2.4219-10.578-4.7227-12.453-3.1719-2.582-7.1055-3.6875-11.195-3.2852-0.23438-10.926-3.7109-21.168-9.3438-26.703-3.6133-3.5508-7.9453-5.1484-12.508-4.6367-2.1289 0.23828-4.0859 0.90234-5.8555 1.9297-2.5156-5.8633-7-11.16-12.496-14.398-5.3359-3.1445-10.758-3.7461-15.277-1.707-2.1758 0.98438-4.0195 2.4883-5.5039 4.418-5.5312-3.1719-12.547-4.6523-19.145-3.8633-6.4688 0.78125-11.613 3.6016-14.488 7.9414-3.3867 5.1211-3.6914 12.211-0.8125 18.965 2.1094 4.957 5.6445 8.957 9.9922 11.52-1.7227 2.5078-2.6367 5.3867-2.6367 8.4805 0 4.9141 2.082 9.207 6.0234 12.41 4.3906 3.5703 10.902 5.5234 17.754 5.5234 0.59375 0 1.1875-0.015625 1.7812-0.046875 0.40625 2.668 1.5 5.3477 3.3047 7.8711 3.6914 5.168 9.5938 8.9258 15.688 10.176 1.1523 3.1758 3.543 6.0977 7.0195 8.4648 5.5273 3.7617 12.98 5.7617 20.355 5.7617 2.4141 0 4.8125-0.24219 7.1406-0.67969 2.8008 12.277 3.5703 26.273 2.2812 41.699-18.781 33.996-40.047 62.832-63.219 85.723-41.746 33.406-92.469 51.23-119.01 58.883-5.6484 1.6289-10.273 5.6211-12.68 10.949-2.3906 5.293-2.3398 11.34 0.14062 16.594 2.293 4.8516 6.3516 8.5078 11.434 10.297 2.1836 0.76953 4.4336 1.1484 6.6797 1.1484 3 0 5.9805-0.67969 8.7578-2.0352 26.062-12.656 76.566-38.859 121.98-72.113 18.297-13.402 40.797-32.766 65.074-55.996 0.03125-0.03125 0.066406-0.050781 0.097656-0.082031 0.027344-0.027344 0.0625-0.070313 0.089844-0.10156 63.055-60.305 124.64-133.14 156.9-185.57zm-51.332-81.758c-0.44531 2.6914-2.668 5.4766-6.2617 7.8516-3.4922 2.3086-7.7266 3.8555-11.719 4.4297 3.9688-5.9219 7.6992-12.027 11.172-18.23 2.4336-0.60938 4.6484-0.20313 5.8594 1.1602 1.2188 1.3711 1.1914 3.3594 0.94922 4.7891zm34.305-64.742c-0.88281 6.332-5.3984 13.805-10.695 18.211-1.7031-1.4531-3.7305-2.4102-5.9805-2.7578-1.3945-0.21484-2.8555-0.19141-4.332 0.035156 2.4609-6.4688 4.7695-13.094 6.8906-19.836 4.0547-2.6953 8.9961-4.7227 11.891-2.9961 0.32812 0.19141 0.63672 0.4375 0.91797 0.72266 1.7031 1.7344 1.5508 4.8906 1.3086 6.6211zm-7.0312-66.605c1.7461-1.5117 3.5039-2.1094 5.3789-1.8242 0.64453 0.097657 2.6133 0.39453 4.2109 3.3398 2.1172 3.8945 2.3867 10.031 0.82031 15.117-3.6016 0.67969-7.3945 2.2617-10.973 4.5625-1.4805-2.8867-3.4141-5.3516-5.7227-7.2656 0.5-5.4531 2.9766-11.066 6.2852-13.93zm-26 24.184c0.63281-2.9062 2.082-4.9453 3.875-5.4492 3.2188-0.90625 6.3164-0.51953 8.957 1.1406 2.7266 1.6953 4.8203 4.7188 5.9883 8.5664-1.4883 6.5977-3.1445 13.121-4.9336 19.523-2.5977-3.5664-5.4258-6.0273-8.4648-7.3555-5.1758-4.7109-6.4766-11.582-5.4219-16.426zm-9.5 54.73c0.42969-0.11328 0.80859-0.16016 1.1602-0.14453 3.2578 0.10938 6.5703 5.5078 7.3906 11.797-3.0703 7.2695-6.4062 14.43-9.9805 21.375-2.1172-3.2656-4.5898-5.832-7.2305-7.4648-0.17969-12.238 4.4453-24.43 8.6602-25.562zm-64.023-8.7031c3.5352-0.73828 8.1914 0.85937 11.316 3.7656 0.77734 6.9688 1.2227 14.648 1.3203 22.918-3.6641-1.5312-7.0234-3.5352-9.8945-5.9453-5.5078-4.6055-8.7227-10.395-8.1953-14.734 0.097656-0.76562 0.30078-1.457 0.625-2.1172 1.0586-2.1562 2.6367-3.4297 4.8281-3.8867zm3.875 32.27c2.7344 1.5508 5.6602 2.8555 8.7188 3.8867-0.18359 9.6445-0.78906 19.91-1.8047 30.711-3.2812-7.4609-7.0664-14.449-11.32-20.926 2.2305-4.1602 3.707-8.8164 4.4062-13.672zm22.445-46.965c-3 0.19922-5.8789 1.4102-8.3828 3.2305-1.1641-5.668-2.6016-10.82-4.3125-15.367-0.011719-0.035156-0.035157-0.0625-0.046875-0.097656-0.1875-0.50781-0.38672-1.0234-0.59375-1.543 1.7383-3.707 4.6562-5.9727 7.9023-6.0078 1.1055-0.019531 2.1211 0.21094 3.1328 0.69141 0.90234 0.42578 1.8359 1.7891 2.4922 3.6484 1.5508 4.3789 1.4102 10.457-0.19141 15.445zm-43.473-64.828c2.8594-0.59766 6.1211 0.54297 8.9414 3.1328 2.9727 2.7305 4.7852 6.5508 4.8828 10.094-2.5703 2.5547-4.4961 5.9102-5.6172 9.7383-4.5352-3.4531-9.5039-6.418-14.859-8.8438-0.71094-4.1523-0.19531-8.1211 1.457-10.691 1.1758-1.832 2.875-2.9492 5.1953-3.4297zm-66.828-6.4727c0.80859-1.4023 2.8555-2.457 5.6211-2.8984 4.8242-0.76953 11.879 0.41406 17.285 3.9805-0.92188 3.457-0.8125 7.3672 0.28906 11.305-9.1094-0.32031-16.105 0.52344-19.012 0.96094-2.6172-1.4258-4.5508-4.3789-5.0352-7.8438-0.29688-2.0742 0.007812-4.0312 0.85156-5.5039zm-23.43 23.555c-1.8555-1.4336-2.9609-2.9961-2.9609-4.1758 0-1.6055 1.4883-3.707 3.8867-5.4844 3.9414-2.9258 9.1992-4.4023 13.57-3.9609 1.0352 3.3789 2.9141 6.3906 5.3672 8.6797-2.418 2.957-3.8125 6.2695-4.0898 9.7031-5.7656 0.25391-12.141-1.9492-15.773-4.7617zm55.641 14.555c-1.4531-0.003907-3.4609-0.3125-4.7656-1.7539-0.26953-0.29687-0.48047-0.66016-0.66797-1.1484-1.3086-3.3828 0.60156-9.7461 4.6484-13.273 4.9336 0.58203 9.6797 1.5078 14.184 2.7852-3.9023 2.8984-6.2227 6.8047-6.4844 11.215-1.8359 1.3164-4.4414 2.1758-6.875 2.1758h-0.039062zm32.66 15.773c-1.0703-1.5352-1.4375-3.1016-1.125-4.7891 0.32812-1.7969 1.293-3.1914 2.9492-4.2656 2.6289-1.7031 6.5742-2.2617 10.516-1.5586 2.1211 2.2148 4.1133 4.5938 5.918 7.1055 0.73438 1.0195 1.4336 2.1328 2.1094 3.2969-2.5586-0.21094-5.0586-0.019531-7.332 0.65625-2.6992 0.80078-4.9766 2.2227-6.7539 4.1562-2.5664-0.98047-4.957-2.6914-6.2812-4.6016zm-6.5 44.012c-0.64844 1.5234-1.1445 3.0977-1.4727 4.6836-4.0039-3.2266-8.2266-6.2305-12.629-8.9883-2.5898-3.0664-3.6875-7.1875-2.7734-10.645 0.44922-1.6914 1.5742-3.9062 4.3984-4.8359 2.1016-0.6875 4.5938 1.1953 5.5664 2.0391 4.1992 3.6328 7.8555 11.191 6.9102 17.746zm-50.727-25.488c0.015625 1.6211 0.21094 3.2422 0.57812 4.8125-7.1289-2.2344-14.637-4.0977-22.453-5.5781-1.0586-1.2656-1.3633-2.707-1.4102-3.7773-0.085937-2 0.65625-4.1055 1.8906-5.3633 0.007812-0.007813 0.015625-0.019532 0.023438-0.027344 0.44922-0.44531 0.91406-0.75391 1.3945-0.91406 5.2656-1.7578 13.836 2.9648 19.977 10.848zm-83.738-3.1719c0.13281-2.3047 1.75-4.7266 4.4375-6.6484 3.7031-2.6445 8.6328-3.8633 13.246-3.4297 0.52734 3.9688 2.2305 8.0547 4.8047 11.57-3.6406 2.4961-6.582 5.9805-8.2617 9.8477-3.8125-0.18359-7.918-1.8281-10.844-4.5078-1.3359-1.2227-3.5586-3.7422-3.3828-6.832zm27.418 23.797c-2.3516-0.35156-4.1484-1.3008-5.0547-2.6758-0.79297-1.2031-0.98828-2.707-0.57812-4.4766 0.875-3.793 4.3125-7.5703 8.3359-9.2539 6.1719 0.40234 12.188 0.99219 17.984 1.7734-2.8555 3.0742-5 6.7305-5.9414 10.375-4.5234 3.2773-10.164 4.9375-14.746 4.2578zm54.293 10.785c-1.5352-0.77734-3.4375-2.168-3.7734-4.3555-0.13281-0.88672-0.0625-1.668 0.23828-2.4336 1.4414-3.793 8.25-6.8672 15.449-7.0586 4.3398 1.7461 8.5234 3.6797 12.547 5.7656-4.1055 2.0742-7.375 4.9492-9.3086 8.2969-4.7344 1.9766-10.891 1.9453-15.152-0.21484zm45.652 23.918c-1.2148-0.90234-1.7305-1.9453-1.7305-3.4961 0-0.59766 0.089844-1.168 0.27734-1.7227 1.0195-3.0898 5.293-5.3164 10.055-5.4141 3.8633 3.7852 7.4922 7.8711 10.836 12.211-8.1914 1.4648-16.051 0.93359-19.438-1.5781zm0.47266 33.508c1.4102-0.046875 3.4805 0.23828 5.332 3.1484 3.3633 5.2812 3.6836 15.109 1.2227 23.832-3.6055-3.8984-7.4453-7.4336-11.469-10.566-2.6289-6.0781-0.98828-13.219 2.3984-15.578 0.75781-0.53125 1.582-0.80469 2.5156-0.83594zm-37.715-12.66c-1.7852 4.0742-2.168 8.6992-1.6367 13.004-7.25-1.6094-14.664-2.5742-22.094-2.8789-2.3945-1.3945-4.5781-4.332-5.4492-7.4336-0.50391-1.7969-0.78125-4.418 0.80469-6.7617 0.066406-0.10156 0.14062-0.19141 0.19141-0.26172 4.1523-5.4141 17.469-2.2539 28.184 4.332zm-108.14 14.996c0.34766-2.8672 2.5898-5.6719 6.3164-7.9102 6.4414-3.8633 15.461-5 22.816-3.0469 1.0703 5.1055 4.6562 9.418 9.3086 12.566-12.004 3.8906-20.133 8.3516-22.922 9.9883-6.2812 0.17578-13.227-2.1562-15.094-7.1953v-0.003906c0-0.003906-0.003906-0.007812-0.003906-0.011718-0.48047-1.2734-0.625-2.75-0.42188-4.3867zm-14.277 33.398c-2.125-0.73828-3.4844-1.8281-4.0391-3.2461-0.83203-2.1367-0.125-5.4961 1.8906-8.9844 2.5273-4.375 6.6719-8.2031 10.492-9.9336 3.1133 4.4531 8.2227 7.1797 13.645 8.4297-2.1094 3.6484-3.4219 7.9219-3.6289 12.168-5.7383 2.5234-13.473 3.2617-18.359 1.5664zm72.656-6.543c-4.5391 1.0469-8.9023 0.27734-10.629-1.8867-1.9492-2.4375-2.5664-5.9961-1.6445-9.5195 1.0312-3.957 3.7305-7.1094 7.4141-8.7109 5.6641-1.2305 11.355-2.0547 17.023-2.4805-2 2.5508-3.582 5.3477-4.4727 8.1094-1.1367 3.5391-1.1328 6.8906-0.046875 9.8438-1.1523 2.0039-4.0742 3.8203-7.6445 4.6445zm42.027-4.2969c-0.17578-0.39844-0.28516-0.77734-0.33984-1.1836-0.66016-4.8164 3.8828-10.82 12.367-12.566 4.5977 1.4961 9.0391 3.4375 13.289 5.8125-5.7227 2.4844-10.434 6.8594-12.469 12.008-5.7969 1.4805-11.355-0.69141-12.848-4.0703zm193.7 38.094c-20.574 33.434-53.273 75.316-90.684 116.9 34.574-48.336 64.102-97.84 76.691-122.7 1.0742-2.125 2.25-4.4297 3.5078-6.9062 20.602-40.453 61.094-119.97 68.219-185.85 10.957 48.395-9.5938 120.33-57.734 198.55zm-182.82 21.344c1.875-0.22266 3.6055 0.48828 5.2891 2.1406 4.4883 4.4141 7.1133 13.902 6.6641 23.629-3.5039 2.2656-6.5 5.4922-8.6797 9.2578-3-3.7812-6.332-7.3164-9.9609-10.57-1.7734-7.6953-1.2383-15.812 1.4102-20.535 0.003906-0.011719 0.007813-0.023438 0.015625-0.035157 1.3398-2.3672 3.0586-3.6406 5.2617-3.8867zm-30.953-14.91c1.7812-0.80469 4.3711-0.34375 7.1055 1.2695 4.4141 2.5977 9.125 8.332 10.121 14.578-2.0234 4.2969-2.9883 9.8828-2.8477 15.781-4.543-3.0938-9.4805-5.8906-14.758-8.3828-3.6211-5.8516-4.9336-13.641-3.0938-18.941 0.74219-2.1484 1.9102-3.5977 3.4727-4.3047zm-24.629 44.883c-1.8477-1.5039-2.7422-3.3047-2.7422-5.5156 0-2.4805 1.418-4.582 4.2188-6.2539 4.6641-2.7969 11.953-3.6523 18.258-2.1758 4.5469 2.1055 8.8047 4.4609 12.754 7.0352-8.4375 1.418-14.277 4.9023-17.047 10.234-5.9258 0.70703-12.035-0.55859-15.441-3.3242zm44.941 31.539c-1.418-0.96484-3.8203-2.9414-3.9297-5.3555-0.007812-0.14062 0.003906-0.34375 0.023438-0.55469 0.20312-1.8125 1.0781-3.2773 2.6836-4.4844 3-2.2578 8.2812-3.3008 13.582-2.7734 3.1562 5.2031 5.7578 10.906 7.7695 17.023-7.6445 1.2656-15.555-0.73828-20.129-3.8555z"/>
  <path d="m608.87 426.41c-8.0078-6.1328-17.477-8.5156-26.227-6.8125-4.0859-23.238-14.176-41.434-28.086-50.363-7.3516-4.7188-15.43-7.9023-23.434-9.293-5.3828-4.3984-11.773-7.2852-17.465-9.8281-5.4141-2.4219-10.531-4.707-13.703-7.7969-3.4102-3.3203-5.6641-8.8281-8.0508-14.656-4.4219-10.805-9.9219-24.254-25.934-28.672-12.477-3.4453-24.941-1.5977-34.203 5.0664-8.7969 6.332-14 16.406-14.645 28.359-0.14453 2.6953-0.003906 5.7305 0.39453 8.9922-8.7773-3.5156-17.852-3.9141-26.254-1.0312-11.215 3.8477-19.879 13.195-24.402 26.324-9.1992 26.672-3.6914 92.496 32.52 115.73 12.672 8.1328 26.516 12.34 39.316 12.34 7.6523 0 14.934-1.5039 21.363-4.5742 11.379-5.4336 18.383-15.164 19.719-27.398 1.9805-18.074-6.7617-29.484-16.5-39.125-1.2227-1.207-2.4492-2.3867-3.6641-3.5508-4.8125-4.6133-9.3594-8.9727-11.668-13.645-0.89844-1.8086-1.5391-3.8789-2.0234-6.1211 7.7188 8.1094 17.859 15.629 30.465 18.602 5.9844 1.4102 12.09 2.1211 18.07 2.1211 3.1641 0 6.2852-0.20703 9.3438-0.60938 0.26562 0.25391 0.53125 0.51562 0.79687 0.76953 3.8359 3.6836 7.4648 7.1641 9.2695 10.809 1.9727 3.9688 2.4023 9.6094 2.8555 15.578l0.09375 1.25v0.003906l0.007813 0.10156c0.77344 9.875 1.832 23.395 14.082 31.949 1.3516 0.94531 2.7344 1.793 4.1367 2.5469-7.8008 6.3242-15.828 14.367-16.156 27.121-0.29688 11.281 3.9727 21.27 11.711 27.41 5.4297 4.3086 12.156 6.5117 19.551 6.5117 3.4102 0 6.9688-0.46875 10.602-1.418 23.145-6.0547 60.551-39.883 64.801-74.211 2.0703-16.73-4.3242-33.012-16.684-42.48zm-137.92 35.426c-1.2695 11.613-8.7031 17.473-14.715 20.344-14.207 6.7852-34.637 3.9492-52.047-7.2266-13.848-8.8867-24.254-26.973-29.309-50.934-4.1719-19.777-4.0156-41.645 0.39062-54.418 3.6094-10.484 10.316-17.875 18.883-20.812 2.7773-0.95312 5.6719-1.4219 8.6172-1.4219 5.9805 0 12.18 1.9492 18.055 5.7305 0.19141 0.14844 0.39844 0.28516 0.61719 0.40234 0.25781 0.17578 0.51953 0.34766 0.78906 0.53516 9.1484 6.3867 11.52 15.695 12.684 27.141-5.168 0.66406-9.8125 3.4102-13.203 7.9492-5.9844 8-7.0195 19.793-2.5781 29.348 3.5352 7.6133 10.645 13.305 19.516 15.609 2.8086 0.73047 5.6406 1.0859 8.3984 1.0859 4.4531 0 8.7109-0.9375 12.383-2.7383 6.9961 7.3125 13 15.895 11.52 29.406zm55.168-8.918c4.4492-0.87109 8.5898-3.6133 11.836-7.9531 5.7383-7.6641 7.1719-18.031 3.5664-25.801-2.5742-5.5391-7.793-9.5781-14.695-11.371-7.1875-1.8711-15.293-1.125-21.371 1.7734-5.3633-5.707-9.8438-12.434-8.7148-22.797 0.60938-5.5625 3.0938-10.062 7.3906-13.371 4.5664-3.5156 10.914-5.3828 17.996-5.3828 2.082 0 4.2266 0.16016 6.4062 0.48828 7.1914 1.0742 14.527 3.9141 21.219 8.2109 12.711 8.1602 21.777 26.07 24.871 49.148 1.8359 13.551 1.1836 27.168-1.6953 35.539-4.6758 13.559-15.641 20.07-27.949 16.59-3.0703-0.86328-6.0898-2.3242-8.9805-4.3398-6.9609-4.8672-8.9219-11.984-9.8789-20.734z"/>
  <path d="m414.17 505.04c-19.375-9.2539-39.859-5.5781-46.633 8.3711-2.5859 5.332-2.7852 11.48-0.57812 17.781 3.332 9.5195 11.965 18.383 23.094 23.707 7.2109 3.4453 14.57 5.1016 21.324 5.1016 11.391 0 21.047-4.7109 25.297-13.469v-0.003906c2.5859-5.332 2.7852-11.484 0.58203-17.785-3.332-9.5156-11.961-18.379-23.086-23.703zm14.508 37.613c-4.4531 9.1758-20.383 11.109-34.789 4.2266-9.0391-4.3242-15.973-11.285-18.539-18.625-0.98047-2.8008-1.7422-6.9805 0.1875-10.965 2.6523-5.4609 9.3711-8.3555 17.414-8.3555 5.4688 0 11.555 1.3398 17.387 4.125 9.0352 4.3242 15.961 11.285 18.527 18.621 0.98047 2.8047 1.7461 6.9805-0.1875 10.973z"/>
  <path d="m412.76 530.14-17.473-8.3555c-2.2148-1.0586-4.8672-0.12109-5.9258 2.0938s-0.12109 4.8672 2.0938 5.9258l17.473 8.3555c0.61719 0.29688 1.2734 0.4375 1.9141 0.4375 1.6562 0 3.25-0.93359 4.0117-2.5273 1.0586-2.2148 0.12109-4.8711-2.0938-5.9297z"/>
  <path d="m621.7 354.61c-10.73-12.371-27.977-15.152-38.445-6.1953-4.4805 3.8398-7.2031 9.4297-7.6719 15.742-0.58984 7.9609 2.3906 16.352 8.1758 23.02 6.4883 7.4648 15.352 11.434 23.656 11.434 5.4453 0 10.652-1.707 14.793-5.25 4.4805-3.8359 7.207-9.4258 7.6719-15.742 0.59375-7.9609-2.3906-16.348-8.1797-23.008zm-0.67578 22.355c-0.20703 2.7852-1.168 6.7148-4.5898 9.6445-6.7617 5.7891-18.406 3.4297-25.961-5.2578-4.2422-4.8945-6.4414-10.922-6.0234-16.539 0.20703-2.7852 1.168-6.7188 4.5898-9.6484 2.5078-2.1445 5.6797-3.1719 9.0703-3.1719 5.7578 0 12.133 2.9648 16.879 8.4375l0.003906 0.003906c4.2461 4.8906 6.4453 10.914 6.0312 16.531z"/>
  <path d="m602.8 364.2c-1.6094-1.8516-4.4141-2.0508-6.2695-0.44141-1.8516 1.6094-2.0508 4.4141-0.44141 6.2695l6.5664 7.5664c0.87891 1.0117 2.1133 1.5312 3.3555 1.5312 1.0312 0 2.0703-0.35938 2.9102-1.0859 1.8516-1.6094 2.0508-4.4141 0.44141-6.2695z"/>
  <path d="m530.31 341.54c7.582 0 15.684-3.1484 22.137-9.2969l0.003907-0.003906c6.3906-6.1055 10.152-14.184 10.312-22.164 0.12891-6.3203-2.0586-12.137-6.1562-16.379-9.5625-9.8828-26.992-8.7305-38.855 2.5742-6.3984 6.1016-10.156 14.184-10.316 22.168-0.12891 6.3242 2.0586 12.141 6.1562 16.375 4.3594 4.5117 10.355 6.7266 16.719 6.7266zm-6.4258-38.84c4.7656-4.5391 10.66-6.8984 15.992-6.8984 4.0039 0 7.6914 1.332 10.34 4.0703 3.125 3.2344 3.7148 7.2383 3.6602 10.023-0.11328 5.6328-2.8711 11.434-7.5625 15.914-8.3438 7.9492-20.16 9.2227-26.336 2.8281-3.125-3.2305-3.7148-7.2305-3.6602-10.02 0.11328-5.6406 2.8711-11.441 7.5664-15.918z"/>
  <path d="m531.47 322.15c1.1016 0 2.207-0.40625 3.0664-1.2266l7.2539-6.9219c1.7773-1.6953 1.8438-4.5078 0.14844-6.2812-1.6914-1.7773-4.5078-1.8438-6.2812-0.14844l-7.2539 6.9219c-1.7773 1.6953-1.8438 4.5078-0.14844 6.2812 0.87109 0.91406 2.043 1.375 3.2148 1.375z"/>
  <path d="m462.19 504.58c-6.3984 6.0977-10.164 14.176-10.328 22.16-0.12891 6.3242 2.0547 12.141 6.1523 16.375 4.3672 4.5156 10.367 6.7266 16.73 6.7266 7.5859 0 15.688-3.1484 22.137-9.3008 6.3945-6.1016 10.152-14.18 10.312-22.164 0.125-6.3242-2.0586-12.137-6.1562-16.371-9.5586-9.8906-26.992-8.7344-38.848 2.5742zm28.562 29.531c-8.3398 7.957-20.16 9.2227-26.344 2.8242-3.125-3.2305-3.7109-7.2305-3.6562-10.016 0.11719-5.6367 2.875-11.434 7.5742-15.91 4.7617-4.543 10.652-6.9023 15.988-6.9023 4.0039 0 7.6953 1.332 10.348 4.0742 3.125 3.2266 3.7109 7.2266 3.6562 10.012-0.11719 5.6406-2.875 11.441-7.5664 15.918z"/>
  <path d="m480.1 515.89-7.2539 6.9102c-1.7773 1.6914-1.8438 4.5078-0.15234 6.2812 0.875 0.91797 2.0469 1.3789 3.2188 1.3789 1.1016 0 2.2031-0.40625 3.0625-1.2266l7.2539-6.9102c1.7773-1.6914 1.8438-4.5078 0.15234-6.2812-1.6914-1.7734-4.5-1.8438-6.2812-0.15234z"/>
  <use x="70.039062" y="576.664062" xlink:href="#v"/>
  <use x="74.117187" y="576.664062" xlink:href="#d"/>
  <use x="76.855469" y="576.664062" xlink:href="#b"/>
  <use x="80.621094" y="576.664062" xlink:href="#l"/>
  <use x="84.371094" y="576.664062" xlink:href="#a"/>
  <use x="87.027344" y="576.664062" xlink:href="#b"/>
  <use x="90.792969" y="576.664062" xlink:href="#f"/>
  <use x="96.703125" y="576.664062" xlink:href="#k"/>
  <use x="100.679687" y="576.664062" xlink:href="#e"/>
  <use x="106.234375" y="576.664062" xlink:href="#j"/>
  <use x="110.535156" y="576.664062" xlink:href="#i"/>
  <use x="116.320312" y="576.664062" xlink:href="#b"/>
  <use x="120.089844" y="576.664062" xlink:href="#a"/>
  <use x="122.746094" y="576.664062" xlink:href="#h"/>
  <use x="126.699219" y="576.664062" xlink:href="#e"/>
  <use x="130.320312" y="576.664062" xlink:href="#u"/>
  <use x="133.625" y="576.664062" xlink:href="#a"/>
  <use x="138.214844" y="576.664062" xlink:href="#t"/>
  <use x="142.214844" y="576.664062" xlink:href="#a"/>
  <use x="144.871094" y="576.664062" xlink:href="#g"/>
  <use x="148.824219" y="576.664062" xlink:href="#f"/>
  <use x="152.800781" y="576.664062" xlink:href="#s"/>
  <use x="154.707031" y="576.664062" xlink:href="#c"/>
  <use x="70.039062" y="582.21875" xlink:href="#r"/>
  <use x="72.457031" y="582.21875" xlink:href="#d"/>
  <use x="75.195312" y="582.21875" xlink:href="#c"/>
  <use x="79.011719" y="582.21875" xlink:href="#i"/>
  <use x="86.734375" y="582.21875" xlink:href="#a"/>
  <use x="89.386719" y="582.21875" xlink:href="#h"/>
  <use x="93.34375" y="582.21875" xlink:href="#b"/>
  <use x="99.042969" y="582.21875" xlink:href="#q"/>
  <use x="103.691406" y="582.21875" xlink:href="#c"/>
  <use x="107.507812" y="582.21875" xlink:href="#g"/>
  <use x="111.464844" y="582.21875" xlink:href="#p"/>
  <use x="117.351562" y="582.21875" xlink:href="#o"/>
  <use x="121.421875" y="582.21875" xlink:href="#d"/>
  <use x="124.164062" y="582.21875" xlink:href="#c"/>
  <use x="127.980469" y="582.21875" xlink:href="#n"/>
  <use x="129.882812" y="582.21875" xlink:href="#b"/>
  <use x="133.652344" y="582.21875" xlink:href="#m"/>
  <use x="136.945312" y="582.21875" xlink:href="#a"/>
 </g>
</svg>
