<?xml version="1.0" encoding="UTF-8"?>
<svg width="128pt" height="128pt" version="1.1" viewBox="0 0 128 128" xmlns="http://www.w3.org/2000/svg">
 <path d="m106.04 33.863c-1.2891 1.293-1.7695 3.0898-1.4258 4.7578-4.5312 2.0312-10.047 1.1914-13.762-2.5234-3.5938-3.5938-4.5-8.8789-2.7109-13.324 1.8867 0.75 4.1211 0.36719 5.6484-1.1641 2.0508-2.0469 2.0469-5.3672 0.003906-7.4141-2.0469-2.0469-5.3633-2.0469-7.4141 0.003907-1.75 1.75-2 4.4258-0.75391 6.4453-2.0156 4.1797-2.0508 9.082-0.10156 13.289-1.8711 0.023437-3.7422 0.74219-5.1641 2.168-0.47656 0.47656-0.875 1.0039-1.1914 1.5586-1.9062 0.24609-3.7539 1.1016-5.2109 2.5625-0.63281 0.63281-1.1484 1.3398-1.5586 2.0898-2.4297 0.26172-4.793 1.3203-6.6562 3.1797-0.60156 0.60156-1.1211 1.2578-1.5547 1.9492-3.1836 0.28125-6.2852 1.6406-8.7148 4.0703-2.5156 2.5156-3.8789 5.7461-4.0977 9.0391-0.95312 0.50781-1.8438 1.1562-2.6445 1.9531-2.2617 2.2578-3.3359 5.2617-3.2383 8.2305-1.6445 0.35156-3.207 1.1641-4.4844 2.4336-1.4648 1.4648-2.3164 3.3086-2.5664 5.2148-0.5625 0.31641-1.0859 0.71875-1.5625 1.1914-1.4766 1.4766-2.1953 3.4258-2.1641 5.3633-4.0742-1.7695-8.7617-1.7109-12.797 0.1875-2.0508-2-5.3281-1.9844-7.3594 0.042969-2.0469 2.0469-2.0469 5.3633 0 7.4102 2.0469 2.0469 5.3672 2.0508 7.4141 0.003906 1.2656-1.2656 1.75-3.0156 1.4453-4.6562 4.543-2.0625 10.09-1.2344 13.82 2.5 4.0117 4.0117 4.668 10.113 1.9883 14.812-1.8984-0.77734-4.1523-0.39453-5.6953 1.1445-2.0469 2.0469-2.0469 5.3633 0 7.4102s5.3633 2.0469 7.4102 0.003906c1.7617-1.7617 2.0039-4.457 0.73438-6.4805 2.8438-4.5703 3.082-10.309 0.71484-15.074 1.8164-0.0625 3.6094-0.78516 4.9883-2.1641 0.47656-0.47656 0.875-1.0039 1.1914-1.5625 1.9062-0.24609 3.7539-1.0977 5.2148-2.5625 1.2734-1.2734 2.082-2.8359 2.4375-4.4844 2.9688 0.097656 5.9688-0.98047 8.2344-3.2422 0.80078-0.80078 1.4453-1.6914 1.9531-2.6406 3.2891-0.21875 6.5234-1.582 9.0391-4.0977 2.4336-2.4336 3.7812-5.5352 4.0664-8.7188 0.69141-0.43359 1.3516-0.94922 1.9492-1.5508 1.8633-1.8633 2.9141-4.2266 3.1836-6.6562 0.74609-0.40625 1.4531-0.92188 2.0859-1.5547 1.4648-1.4648 2.3164-3.3047 2.5664-5.2188 0.55859-0.31641 1.0859-0.71484 1.5625-1.1914 1.4219-1.4219 2.1445-3.2891 2.168-5.1641 4.1562 1.9297 9 1.9219 13.148-0.03125 2.0586 1.9219 5.2734 1.8828 7.2812-0.12109 2.0508-2.0508 2.0469-5.3633 0-7.4102-2.0547-2.0547-5.3711-2.0547-7.4219-0.007813zm-66.918 53.965c-1.5273-1.5273-1.6406-3.9336-0.35547-5.5977 0.41797 1.3594 1.168 2.6406 2.2422 3.7109 1.0742 1.0742 2.3594 1.8242 3.7148 2.2383-1.6641 1.293-4.0742 1.1758-5.6016-0.35156zm12.418-4.1289c-2.2891 2.2891-6.0078 2.2891-8.293 0.003906-2.2852-2.2852-2.2852-6.0078 0-8.293 0.79687-0.79688 1.7695-1.3086 2.7969-1.5469 0.52344 1.5977 1.4141 3.0938 2.6797 4.3594s2.7617 2.1602 4.3594 2.6836c-0.23828 1.0234-0.74609 1.9961-1.543 2.793zm-0.57031-7.7227c-3.0977-3.0977-3.0938-8.1367 0.003906-11.234 0.19922-0.19922 0.40625-0.38281 0.62109-0.55469 0.51953 2.6758 1.8047 5.2266 3.8711 7.293 2.0664 2.0664 4.6211 3.3594 7.2969 3.875-0.17578 0.21094-0.35547 0.42578-0.55469 0.62109-3.0977 3.0977-8.1406 3.0977-11.238 0zm22.23-6.7383c-4.2734 4.2734-11.219 4.2734-15.492 0-4.2695-4.2695-4.2695-11.215 0.003906-15.488 1.4492-1.4492 3.1992-2.4062 5.0547-2.8672-0.8125 3.6016 0.17578 7.5312 2.9727 10.328 2.7969 2.8008 6.7305 3.7891 10.328 2.9727-0.46484 1.8516-1.4219 3.6094-2.8672 5.0547zm6.0195-10.27c-3.1016 3.0977-8.1406 3.0977-11.238 0-3.1016-3.0977-3.0977-8.1367 0.003907-11.234 0.96875-0.97266 2.1328-1.6289 3.3672-1.9922-0.25 2.5938 0.61719 5.2773 2.6016 7.2578 1.9844 1.9844 4.6641 2.8477 7.2617 2.6016-0.36719 1.2305-1.0273 2.3945-1.9961 3.3672zm5.2656-8.2148c-2.2852 2.2852-6.0039 2.2852-8.2891 0s-2.2891-6.0039-0.003906-8.293c0.58594-0.58594 1.2734-1.0195 2-1.3008-0.042969 1.957 0.67188 3.9375 2.1602 5.4297 1.4961 1.4922 3.4727 2.2148 5.4336 2.1641-0.28125 0.73047-0.71484 1.4141-1.3008 2zm4.125-6.4062c-1.6562 1.6562-4.3477 1.6562-6.0039 0s-1.6602-4.3477-0.003906-6.0039 4.3516-1.6562 6.0078 0c1.6602 1.6523 1.6602 4.3477 0 6.0039z"/>
</svg>
