<?xml version="1.0" encoding="UTF-8"?>
<svg width="128pt" height="128pt" version="1.1" viewBox="0 0 128 128" xmlns="http://www.w3.org/2000/svg">
 <g>
  <path d="m119.73 80.801c-0.26562-0.26562-0.80078-0.53516-1.0664-0.80078-0.53516-0.53516-1.332-0.80078-1.6016-1.0664-0.26562-0.53516 0-1.6016 0.80078-2.668 0.53516-0.53516 0.80078-1.0664 1.332-1.6016 0.80078-0.80078 1.6016-1.8672 2.3984-3.1992 1.8672-3.1992 1.8672-7.1992 0.53516-12-0.53516-1.332-0.80078-2.3984-1.332-3.7344-0.80078-1.8672-1.332-3.7344-1.8672-5.6016-0.80078-4.8008 0.80078-8.8008 2.3984-11.199 0.26562-0.53516 0.80078-1.0664 1.6016-1.8672 2.9336-3.4648 6.1328-7.4648 4.8008-10.934-0.53516-1.332-1.8672-2.668-5.332-2.668-1.6016 0-3.4648 0.53516-5.332 1.0664-1.8672 0.53516-4.2656 1.0664-5.8672 1.0664-0.80078 0-1.332 0-1.332-0.26562 0 0-0.26562-0.53516-0.26562-1.8672v-1.8672c0.26562-3.7344 0.53516-8.2656-2.3984-9.8672-1.8672-1.0664-5.0664-0.26562-7.4648 0.53516-0.53516 0.26562-1.0664 0.26562-1.332 0.53516-2.3984 0.53516-4.2656 0.53516-5.332-0.53516-0.53516-0.53516-1.0664-1.332-1.332-2.3984-0.53516-1.332-1.0664-2.668-2.1328-4-2.1328-2.3984-5.6016-3.1992-8.5352-2.1328-2.9336 1.0664-5.0664 4-5.332 7.1992 0 1.6016 0.26562 2.9336 0.80078 4 0.26562 0.53516 0.26562 1.0664 0.53516 1.8672 0.26562 1.332-0.26562 2.668-1.332 4-1.6016 1.6016-3.7344 2.668-5.6016 1.8672-2.3984-0.80078-4.2656-3.1992-6.1328-5.8672s-3.7344-5.332-6.3984-6.9336c-1.8672-1.0664-4-1.8672-6.3984-1.8672-5.6016 0-10.668 3.4648-12.535 8.2656-0.80078 2.1328-1.0664 4-1.332 6.1328-0.26562 3.4648-0.80078 5.332-2.1328 6.668-0.80078 0.53516-2.1328 0.80078-3.1992 1.332l-8.0195 0.80469c-2.3984 0.53516-8.2656 2.1328-9.6016 7.1992-1.0664 4.2695 1.6016 7.4688 3.7344 9.8672 0.80078 1.0664 1.8672 2.1328 2.3984 3.1992 1.0664 1.8672 1.0664 4.5352 0 6.668-1.0664 2.1328-3.1992 3.4648-5.332 3.7344h-2.668c-1.8672 0-3.4648 0-4.8008 0.26562-2.9336 0.80078-5.332 2.668-6.668 5.6016-1.332 3.1992-1.6016 6.668 0 9.6016 2.3984 4.5352 7.7344 7.4648 14.398 7.4648 1.0664 0 1.8672 0 2.668-0.26562 2.3984-0.26562 4.5352-0.80078 6.9336-1.332 2.9336-0.80078 5.8672-1.332 8.8008-1.332h0.26562c4.2656 0 9.0664 2.668 9.332 6.668 0 2.668-1.8672 5.0664-4 7.7344-1.6016 1.8672-3.1992 4-4.2656 6.3984-1.332 2.9336-1.6016 6.9336-1.6016 9.8672 0 3.7344 2.668 6.3984 4 8 2.9336 2.9336 5.8672 4.5352 9.0664 4.5352 5.332 0 10.398-4 14.133-11.199 0.26562-0.80078 0.80078-1.332 1.0664-2.1328 1.6016-2.9336 2.9336-5.8672 5.0664-8 2.3984-2.1328 6.1328-2.9336 8.2656-1.332 1.332 1.0664 2.1328 2.9336 2.668 5.0664 0.80078 2.3984 1.8672 5.0664 4.2656 7.1992 2.1328 1.8672 5.332 2.9336 8.5352 2.9336 4 0 6.9336-1.8672 8.2656-4.8008 1.6016-3.4648-0.26562-6.9336-1.332-9.0664l-0.26562-0.53516c-1.0664-2.1328-1.8672-4.5352-1.8672-6.9336v-1.0664h0.80078c2.1328 0 4.5352 1.332 6.668 2.9336 2.3984 1.6016 5.0664 3.4648 8.2656 3.7344 5.332 0.80078 10.668-2.3984 12.535-7.1992 2.1367-4.8086 0.26953-10.941-3.9961-13.875zm-0.80078 11.734c-1.0664 2.3984-4 4.2656-6.9336 3.7344-2.1328-0.26562-4-1.6016-6.1328-2.9336-2.668-1.8672-5.8672-4-9.6016-4h-0.26562c-1.8672 0-3.1992 0.80078-4.2656 1.8672-1.6016 1.6016-1.6016 3.7344-1.332 5.0664 0.26562 3.1992 1.0664 6.1328 2.668 9.0664l0.26563 0.53516c0.80078 1.6016 1.8672 3.4648 1.332 4.5352-0.53516 1.332-2.1328 1.6016-3.4648 1.6016-1.8672 0-4-0.80078-5.0664-1.6016-1.332-1.0664-1.8672-2.9336-2.668-5.0664-0.80078-2.668-1.8672-5.332-4.5352-7.4648-4-3.1992-10.934-2.1328-15.199 1.8672-2.9336 2.668-4.5352 6.1328-6.3984 9.6016-0.26563 0.80078-0.80078 1.332-1.0664 2.1328-2.668 5.0664-6.1328 8.2656-9.332 8.2656-1.8672 0-3.4648-1.0664-5.332-2.9336-1.332-1.332-2.668-2.9336-2.668-4.2656s0-5.332 1.0664-7.7344c0.80078-1.8672 2.1328-3.4648 3.7344-5.332 2.3984-3.1992 5.332-6.668 5.0664-11.465-0.26563-7.1992-7.7344-11.465-14.668-11.734h-0.53516c-3.4648 0-6.668 0.80078-9.8672 1.6016-2.1328 0.53516-4.2656 1.0664-6.1328 1.332h-2.1328c-1.8672 0-7.4648-0.26563-9.6016-4.5352-0.80078-1.332-0.53516-3.1992 0-4.8008 0.80078-1.332 1.8672-2.3984 2.9336-2.668 0.80078-0.26562 2.1328-0.26562 3.1992 0h3.4648c4-0.53516 7.7344-2.9336 9.6016-6.668 1.8672-3.7344 1.8672-8-0.26562-11.734-0.80078-1.332-1.8672-2.668-2.9336-4-1.8672-2.3984-2.9336-3.7344-2.668-5.0664 0.53516-1.8672 3.4648-2.668 5.8672-3.1992l7.1992-1.6016c1.6016-0.26562 3.4648-0.80078 5.332-2.1328 3.4648-2.668 4-6.668 4.2656-10.133 0.26562-1.8672 0.53516-3.4648 0.80078-4.8008 1.0664-2.668 4.2656-4.8008 7.4648-4.8008 1.332 0 2.668 0.26563 3.7344 1.0664 1.8672 1.332 3.4648 3.4648 5.0664 5.6016 2.1328 3.1992 4.5352 6.668 8.8008 8 3.7344 1.0664 8.2656-0.26562 11.199-3.4648 2.1328-2.3984 2.9336-5.332 2.668-8 0-0.80078-0.26562-1.6016-0.53516-2.3984-0.26562-0.80078-0.53516-1.6016-0.53516-2.3984 0-1.0664 0.80078-2.1328 1.6016-2.3984 0.80078-0.26562 2.1328 0 2.9336 0.80078 0.53516 0.53516 0.80078 1.332 1.332 2.3984 0.53516 1.332 1.332 2.9336 2.668 4.2656 2.3984 2.1328 5.8672 2.9336 10.133 1.8672 0.53516 0 1.332-0.26562 2.1328-0.53516 0.80078-0.26562 1.8672-0.80078 2.668-0.80078 0.26562 1.0664 0 3.7344 0 4.8008v2.1328c0 2.3984 0.53516 4.2656 1.8672 5.6016 1.332 1.332 2.9336 1.8672 5.0664 1.8672 2.3984 0 4.8008-0.80078 7.1992-1.332 1.6016-0.53516 3.1992-0.80078 4-0.80078h0.26562c-0.80078 1.332-2.668 3.7344-3.7344 5.0664-0.80078 1.0664-1.6016 1.8672-1.8672 2.3984-3.1992 4.8008-4.2656 10.133-3.1992 15.199 0.53516 2.3984 1.332 4.5352 2.1328 6.3984 0.53516 1.0664 0.80078 2.1328 1.332 3.4648 0.80078 2.1328 1.332 5.332 0 7.7344-0.53516 0.80078-1.0664 1.6016-1.6016 2.1328-0.53516 0.80078-1.0664 1.332-1.6016 2.1328-1.8672 2.668-2.3984 5.8672-1.0664 8.2656 0.80078 1.6016 2.1328 2.3984 3.1992 2.9336 0.26562 0.26563 0.53516 0.26563 0.80078 0.53516 2.1445 1.0625 3.2109 4.5273 2.1445 6.9297z"/>
  <path d="m60 45.332c0-6.1328-5.0664-11.199-11.199-11.199-6.1328 0-11.199 5.0664-11.199 11.199 0 6.1328 5.0664 11.199 11.199 11.199 6.1328-0.26562 11.199-5.0664 11.199-11.199zm-11.199 5.6016c-3.1992 0-5.8672-2.668-5.8672-5.8672 0-3.1992 2.668-5.8672 5.8672-5.8672s5.8672 2.668 5.8672 5.8672c0 3.1992-2.668 5.8672-5.8672 5.8672z"/>
  <path d="m90.398 27.199c-5.332 0-9.6016 4.2656-9.6016 9.6016 0 5.332 4.2656 9.6016 9.6016 9.6016 5.332 0 9.6016-4.2656 9.6016-9.6016 0-5.3359-4.2656-9.6016-9.6016-9.6016zm0 14.133c-2.3984 0-4.2656-1.8672-4.2656-4.2656 0-2.3984 1.8672-4.2656 4.2656-4.2656 2.3984 0 4.2656 1.8672 4.2656 4.2656 0.003907 2.3984-1.8633 4.2656-4.2656 4.2656z"/>
  <path d="m81.602 69.867c-5.332 0-9.6016 4.2656-9.6016 9.6016 0 5.332 4.2656 9.6016 9.6016 9.6016 5.332 0 9.6016-4.2656 9.6016-9.6016-0.003906-5.3359-4.5352-9.6016-9.6016-9.6016zm0 13.598c-2.3984 0-4.2656-1.8672-4.2656-4.2656 0-2.3984 1.8672-4.2656 4.2656-4.2656 2.3984 0 4.2656 1.8672 4.2656 4.2656 0 2.4023-2.1328 4.2656-4.2656 4.2656z"/>
  <path d="m72.801 45.332c0-1.6016-1.0664-2.668-2.668-2.668-1.6016 0-2.668 1.0664-2.668 2.668v3.1992c0 1.6016 1.0664 2.668 2.668 2.668 1.6016 0 2.668-1.0664 2.668-2.668z"/>
  <path d="m85.066 63.734 2.3984-2.3984c1.0664-1.0664 1.0664-2.668 0-3.7344-1.0664-1.0664-2.668-1.0664-3.7344 0l-2.3984 2.3984c-1.0664 1.0664-1.0664 2.668 0 3.7344 0.53516 0.53516 1.332 0.80078 1.8672 0.80078 0.80078 0 1.3359-0.26953 1.8672-0.80078z"/>
  <path d="m58.668 80.266c-1.6016 0-2.668 1.0664-2.668 2.668v3.1992c0 1.6016 1.0664 2.668 2.668 2.668 1.6016 0 2.668-1.0664 2.668-2.668v-3.1992c-0.003907-1.332-1.0703-2.668-2.668-2.668z"/>
  <path d="m102.13 54.934c-1.6016 0-2.668 1.0664-2.668 2.668v3.1992c0 1.6016 1.0664 2.668 2.668 2.668 1.6016 0 2.668-1.0664 2.668-2.668v-3.1992c0-1.3359-1.0664-2.668-2.668-2.668z"/>
  <path d="m31.465 62.934c-1.6016 0-2.668 1.0664-2.668 2.668v3.1992c0 1.6016 1.0664 2.668 2.668 2.668 1.6016 0 2.668-1.0664 2.668-2.668v-3.1992c0-1.3359-1.332-2.668-2.668-2.668z"/>
  <path d="m59.199 62.668-2.3984 2.3984c-1.0664 1.0664-1.0664 2.668 0 3.7344 0.53516 0.53516 1.332 0.80078 1.8672 0.80078 0.80078 0 1.332-0.26562 1.8672-0.80078l2.3984-2.3984c1.0664-1.0664 1.0664-2.668 0-3.7344-1.0664-1.0664-2.668-1.0664-3.7344 0z"/>
 </g>
</svg>
