<?xml version="1.0" encoding="UTF-8"?>
<svg width="128pt" height="128pt" version="1.1" viewBox="0 0 128 128" xmlns="http://www.w3.org/2000/svg">
 <path d="m65.938 116.33v9.7344c0 1.0703-0.86719 1.9375-1.9375 1.9375s-1.9375-0.86719-1.9375-1.9375v-9.7344c-8.1289-0.29688-15.781-2.4414-22.551-6.0312l-4.8633 8.418c-1.293 2.2422-4.6523 0.30078-3.3594-1.9375l4.8633-8.4258c-6.6602-4.1914-12.312-9.8438-16.504-16.504l-8.4258 4.8633c-2.2383 1.293-4.1797-2.0664-1.9375-3.3594l8.418-4.8633c-3.5898-6.7695-5.7344-14.422-6.0312-22.551h-9.7344c-2.582 0-2.582-3.875 0-3.875h9.7344c0.29688-8.1289 2.4414-15.781 6.0312-22.551l-8.418-4.8633c-2.2422-1.293-0.30078-4.6523 1.9375-3.3594l8.4258 4.8633c4.1914-6.6602 9.8438-12.312 16.504-16.504l-4.8633-8.4258c-1.293-2.2383 2.0664-4.1797 3.3594-1.9375l4.8633 8.418c6.7695-3.5898 14.422-5.7344 22.551-6.0312v-9.7344c0-1.0703 0.86719-1.9375 1.9375-1.9375s1.9375 0.86719 1.9375 1.9375v9.7344c8.1289 0.29688 15.781 2.4414 22.551 6.0312l4.8633-8.418c1.293-2.2422 4.6523-0.30078 3.3594 1.9375l-4.8633 8.4258c6.6602 4.1914 12.312 9.8438 16.504 16.504l8.4258-4.8633c2.2383-1.293 4.1797 2.0664 1.9375 3.3594l-8.418 4.8633c3.5898 6.7695 5.7344 14.422 6.0312 22.551h9.7344c2.582 0 2.582 3.875 0 3.875h-9.7344c-0.29688 8.1289-2.4414 15.781-6.0312 22.551l8.418 4.8633c2.2422 1.293 0.30078 4.6523-1.9375 3.3594l-8.4258-4.8633c-4.1914 6.6602-9.8438 12.312-16.504 16.504l4.8633 8.4258c1.293 2.2383-2.0664 4.1797-3.3594 1.9375l-4.8633-8.418c-6.7695 3.5898-14.422 5.7344-22.551 6.0312zm-1.9375-3.8438c26.777 0 48.484-21.707 48.484-48.484s-21.707-48.484-48.484-48.484-48.484 21.707-48.484 48.484 21.707 48.484 48.484 48.484zm13.574-64c-2.1406 0-3.8789-1.7344-3.8789-3.8789 0-2.1406 1.7383-3.8789 3.8789-3.8789 2.1445 0 3.8789 1.7383 3.8789 3.8789 0 2.1445-1.7344 3.8789-3.8789 3.8789zm-31.027 11.637c-2.1445 0-3.8789-1.7383-3.8789-3.8789 0-2.1406 1.7344-3.8789 3.8789-3.8789 2.1406 0 3.8789 1.7383 3.8789 3.8789 0 2.1406-1.7383 3.8789-3.8789 3.8789zm23.27 29.09c-2.1406 0-3.8789-1.7344-3.8789-3.8789 0-2.1406 1.7383-3.8789 3.8789-3.8789 2.1445 0 3.8789 1.7383 3.8789 3.8789 0 2.1445-1.7344 3.8789-3.8789 3.8789z" fill-rule="evenodd"/>
</svg>
