<?xml version="1.0" encoding="UTF-8"?>
<svg width="700pt" height="700pt" version="1.1" viewBox="0 0 700 700" xmlns="http://www.w3.org/2000/svg" xmlns:xlink="http://www.w3.org/1999/xlink">
 <defs>
  <symbol id="s" overflow="visible">
   <path d="m14-0.84375c-0.73047 0.375-1.4844 0.65625-2.2656 0.84375-0.78125 0.19531-1.5938 0.29688-2.4375 0.29688-2.543 0-4.5547-0.70703-6.0312-2.125-1.4805-1.4141-2.2188-3.3359-2.2188-5.7656 0-2.4375 0.73828-4.3633 2.2188-5.7812 1.4766-1.4141 3.4883-2.125 6.0312-2.125 0.84375 0 1.6562 0.09375 2.4375 0.28125s1.5352 0.46875 2.2656 0.84375v3.1562c-0.73047-0.5-1.4492-0.86328-2.1562-1.0938-0.71094-0.22656-1.4531-0.34375-2.2344-0.34375-1.4062 0-2.5117 0.44922-3.3125 1.3438-0.80469 0.89844-1.2031 2.1367-1.2031 3.7188 0 1.5625 0.39844 2.7969 1.2031 3.7031 0.80078 0.89844 1.9062 1.3438 3.3125 1.3438 0.78125 0 1.5234-0.11328 2.2344-0.34375 0.70703-0.23828 1.4258-0.60156 2.1562-1.0938z"/>
  </symbol>
  <symbol id="b" overflow="visible">
   <path d="m10.234-8.3125c-0.3125-0.14453-0.63281-0.25391-0.95312-0.32812-0.3125-0.070313-0.63281-0.10938-0.95312-0.10938-0.9375 0-1.6641 0.30469-2.1719 0.90625-0.5 0.59375-0.75 1.4531-0.75 2.5781v5.2656h-3.6562v-11.422h3.6562v1.875c0.46875-0.75 1.0039-1.2969 1.6094-1.6406 0.61328-0.34375 1.3477-0.51562 2.2031-0.51562 0.11328 0 0.24219 0.007813 0.39062 0.015625 0.14453 0.011719 0.35156 0.03125 0.625 0.0625z"/>
  </symbol>
  <symbol id="a" overflow="visible">
   <path d="m13.156-5.75v1.0469h-8.5312c0.082031 0.85547 0.39062 1.5 0.92188 1.9375 0.53125 0.42969 1.2695 0.64062 2.2188 0.64062 0.76953 0 1.5547-0.11328 2.3594-0.34375 0.8125-0.22656 1.6445-0.57812 2.5-1.0469v2.8281c-0.86719 0.32422-1.7305 0.57031-2.5938 0.73438-0.86719 0.16406-1.7305 0.25-2.5938 0.25-2.0742 0-3.6836-0.52344-4.8281-1.5781-1.1484-1.0508-1.7188-2.5234-1.7188-4.4219 0-1.8633 0.5625-3.3281 1.6875-4.3906 1.1328-1.0703 2.6875-1.6094 4.6562-1.6094 1.7891 0 3.2227 0.54297 4.2969 1.625 1.082 1.0859 1.625 2.5273 1.625 4.3281zm-3.75-1.2031c0-0.69531-0.20312-1.2539-0.60938-1.6719-0.40625-0.42578-0.93359-0.64062-1.5781-0.64062-0.71094 0-1.2891 0.19922-1.7344 0.59375-0.4375 0.39844-0.71484 0.96875-0.82812 1.7188z"/>
  </symbol>
  <symbol id="j" overflow="visible">
   <path d="m6.875-5.1406c-0.76172 0-1.3359 0.13281-1.7188 0.39062-0.38672 0.26172-0.57812 0.64062-0.57812 1.1406 0 0.46094 0.15625 0.82422 0.46875 1.0938 0.3125 0.26172 0.73828 0.39062 1.2812 0.39062 0.6875 0 1.2656-0.24219 1.7344-0.73438 0.46875-0.5 0.70312-1.1172 0.70312-1.8594v-0.42188zm5.5781-1.375v6.5156h-3.6875v-1.6875c-0.49219 0.6875-1.043 1.1953-1.6562 1.5156-0.60547 0.3125-1.3438 0.46875-2.2188 0.46875-1.1875 0-2.1523-0.34375-2.8906-1.0312-0.74219-0.69531-1.1094-1.5938-1.1094-2.6875 0-1.3438 0.45703-2.3281 1.375-2.9531 0.92578-0.625 2.3789-0.9375 4.3594-0.9375h2.1406v-0.28125c0-0.58203-0.23047-1.0039-0.6875-1.2656-0.44922-0.26953-1.1562-0.40625-2.125-0.40625-0.78125 0-1.5117 0.078125-2.1875 0.23438-0.66797 0.15625-1.293 0.39062-1.875 0.70312v-2.7969c0.78906-0.1875 1.5781-0.32812 2.3594-0.42188 0.78906-0.10156 1.582-0.15625 2.375-0.15625 2.0508 0 3.5352 0.40625 4.4531 1.2188 0.91406 0.8125 1.375 2.1367 1.375 3.9688z"/>
  </symbol>
  <symbol id="e" overflow="visible">
   <path d="m5.75-14.672v3.25h3.75v2.6094h-3.75v4.8438c0 0.53125 0.10156 0.89062 0.3125 1.0781 0.20703 0.1875 0.625 0.28125 1.25 0.28125h1.875v2.6094h-3.125c-1.4492 0-2.4766-0.30078-3.0781-0.90625-0.59375-0.60156-0.89062-1.625-0.89062-3.0625v-4.8438h-1.8125v-2.6094h1.8125v-3.25z"/>
  </symbol>
  <symbol id="f" overflow="visible">
   <path d="m9.5312-9.75v-6.125h3.6719v15.875h-3.6719v-1.6562c-0.51172 0.67969-1.0703 1.1719-1.6719 1.4844-0.60547 0.3125-1.3047 0.46875-2.0938 0.46875-1.4062 0-2.5625-0.55469-3.4688-1.6719-0.90625-1.125-1.3594-2.5664-1.3594-4.3281 0-1.7578 0.45312-3.1953 1.3594-4.3125 0.90625-1.125 2.0625-1.6875 3.4688-1.6875 0.78906 0 1.4883 0.16406 2.0938 0.48438 0.60156 0.3125 1.1602 0.80469 1.6719 1.4688zm-2.4062 7.3906c0.78125 0 1.375-0.28125 1.7812-0.84375 0.41406-0.57031 0.625-1.4062 0.625-2.5 0-1.082-0.21094-1.9102-0.625-2.4844-0.40625-0.57031-1-0.85938-1.7812-0.85938s-1.3828 0.28906-1.7969 0.85938c-0.40625 0.57422-0.60938 1.4023-0.60938 2.4844 0 1.0938 0.20312 1.9297 0.60938 2.5 0.41406 0.5625 1.0156 0.84375 1.7969 0.84375z"/>
  </symbol>
  <symbol id="i" overflow="visible">
   <path d="m7.8281-2.3594c0.78125 0 1.375-0.28125 1.7812-0.84375 0.41406-0.57031 0.625-1.4062 0.625-2.5 0-1.082-0.21094-1.9102-0.625-2.4844-0.40625-0.57031-1-0.85938-1.7812-0.85938s-1.3828 0.28906-1.7969 0.85938c-0.41797 0.57422-0.625 1.4023-0.625 2.4844 0 1.0859 0.20703 1.9141 0.625 2.4844 0.41406 0.57422 1.0156 0.85938 1.7969 0.85938zm-2.4219-7.3906c0.5-0.66406 1.0547-1.1562 1.6719-1.4688 0.61328-0.32031 1.3164-0.48438 2.1094-0.48438 1.4062 0 2.5625 0.5625 3.4688 1.6875 0.90625 1.1172 1.3594 2.5547 1.3594 4.3125 0 1.7617-0.45312 3.2031-1.3594 4.3281-0.90625 1.1172-2.0625 1.6719-3.4688 1.6719-0.79297 0-1.4961-0.15625-2.1094-0.46875-0.61719-0.32031-1.1719-0.81641-1.6719-1.4844v1.6562h-3.6562v-15.875h3.6562z"/>
  </symbol>
  <symbol id="h" overflow="visible">
   <path d="m0.25-11.422h3.6562l3.0781 7.75 2.6094-7.75h3.6406l-4.7969 12.5c-0.48047 1.2695-1.043 2.1602-1.6875 2.6719-0.64844 0.50781-1.4961 0.76562-2.5469 0.76562h-2.1094v-2.4062h1.1406c0.61328 0 1.0625-0.10156 1.3438-0.29688 0.28906-0.19922 0.51562-0.55469 0.67188-1.0625l0.09375-0.3125z"/>
  </symbol>
  <symbol id="d" overflow="visible">
   <path d="m13.234-6.9531v6.9531h-3.6719v-5.3281c0-0.97656-0.023438-1.6562-0.0625-2.0312-0.042969-0.375-0.12109-0.64844-0.23438-0.82812-0.13672-0.23828-0.32812-0.42578-0.57812-0.5625-0.24219-0.13281-0.51562-0.20312-0.82812-0.20312-0.76172 0-1.3594 0.29688-1.7969 0.89062-0.4375 0.58594-0.65625 1.3984-0.65625 2.4375v5.625h-3.6562v-11.422h3.6562v1.6719c0.55078-0.66406 1.1328-1.1562 1.75-1.4688 0.625-0.32031 1.3125-0.48438 2.0625-0.48438 1.3125 0 2.3047 0.40625 2.9844 1.2188 0.6875 0.8125 1.0312 1.9922 1.0312 3.5312z"/>
  </symbol>
  <symbol id="r" overflow="visible">
   <path d="m1.75-11.422h3.6562v11.422h-3.6562zm0-4.4531h3.6562v2.9844h-3.6562z"/>
  </symbol>
  <symbol id="g" overflow="visible">
   <path d="m10.984-11.062v2.9688c-0.5-0.33203-1-0.58203-1.5-0.75-0.5-0.16406-1.0156-0.25-1.5469-0.25-1.0234 0-1.8203 0.30469-2.3906 0.90625-0.5625 0.59375-0.84375 1.4219-0.84375 2.4844 0 1.0742 0.28125 1.9062 0.84375 2.5 0.57031 0.59375 1.3672 0.89062 2.3906 0.89062 0.57031 0 1.1133-0.082031 1.625-0.25 0.50781-0.17578 0.98438-0.42969 1.4219-0.76562v2.9844c-0.57422 0.21875-1.1562 0.37891-1.75 0.48438-0.58594 0.10156-1.168 0.15625-1.75 0.15625-2.0625 0-3.6797-0.52344-4.8438-1.5781-1.168-1.0625-1.75-2.5352-1.75-4.4219 0-1.8828 0.58203-3.3516 1.75-4.4062 1.1641-1.0625 2.7812-1.5938 4.8438-1.5938 0.59375 0 1.1797 0.054687 1.7656 0.15625 0.58203 0.10547 1.1602 0.26562 1.7344 0.48438z"/>
  </symbol>
  <symbol id="c" overflow="visible">
   <path d="m7.1875-9.0938c-0.80469 0-1.418 0.29297-1.8438 0.875-0.42969 0.58594-0.64062 1.4219-0.64062 2.5156s0.21094 1.9336 0.64062 2.5156c0.42578 0.58594 1.0391 0.875 1.8438 0.875 0.80078 0 1.4102-0.28906 1.8281-0.875 0.42578-0.58203 0.64062-1.4219 0.64062-2.5156s-0.21484-1.9297-0.64062-2.5156c-0.41797-0.58203-1.0273-0.875-1.8281-0.875zm0-2.6094c1.9688 0 3.5039 0.53125 4.6094 1.5938 1.1016 1.0625 1.6562 2.5312 1.6562 4.4062s-0.55469 3.3438-1.6562 4.4062c-1.1055 1.0625-2.6406 1.5938-4.6094 1.5938s-3.5117-0.53125-4.625-1.5938c-1.1172-1.0625-1.6719-2.5312-1.6719-4.4062s0.55469-3.3438 1.6719-4.4062c1.1133-1.0625 2.6562-1.5938 4.625-1.5938z"/>
  </symbol>
  <symbol id="q" overflow="visible">
   <path d="m9.2656-15.875v2.4062h-2.0156c-0.51172 0-0.87109 0.09375-1.0781 0.28125-0.21094 0.1875-0.3125 0.51172-0.3125 0.96875v0.79688h3.125v2.6094h-3.125v8.8125h-3.6406v-8.8125h-1.8281v-2.6094h1.8281v-0.79688c0-1.25 0.34375-2.1719 1.0312-2.7656 0.69531-0.59375 1.7734-0.89062 3.2344-0.89062z"/>
  </symbol>
  <symbol id="p" overflow="visible">
   <path d="m12.344-9.5312c0.45703-0.70703 1.0039-1.2422 1.6406-1.6094 0.63281-0.375 1.3359-0.5625 2.1094-0.5625 1.3125 0 2.3047 0.40625 2.9844 1.2188 0.6875 0.8125 1.0312 1.9922 1.0312 3.5312v6.9531h-3.6719v-5.9531c0.007812-0.09375 0.015625-0.1875 0.015625-0.28125 0.007813-0.09375 0.015625-0.22656 0.015625-0.40625 0-0.8125-0.12109-1.3984-0.35938-1.7656-0.24219-0.36328-0.625-0.54688-1.1562-0.54688-0.69922 0-1.2344 0.28906-1.6094 0.85938-0.375 0.57422-0.57031 1.4023-0.57812 2.4844v5.6094h-3.6719v-5.9531c0-1.2695-0.10938-2.0859-0.32812-2.4531-0.21875-0.36328-0.60938-0.54688-1.1719-0.54688-0.69922 0-1.2422 0.29297-1.625 0.875-0.375 0.57422-0.5625 1.3906-0.5625 2.4531v5.625h-3.6719v-11.422h3.6719v1.6719c0.44531-0.64453 0.96094-1.1289 1.5469-1.4531 0.58203-0.33203 1.2227-0.5 1.9219-0.5 0.78906 0 1.4883 0.19531 2.0938 0.57812 0.60156 0.375 1.0625 0.90625 1.375 1.5938z"/>
  </symbol>
  <symbol id="o" overflow="visible">
   <path d="m13.234-6.9531v6.9531h-3.6719v-5.2969c0-1-0.023438-1.6875-0.0625-2.0625-0.042969-0.375-0.12109-0.64844-0.23438-0.82812-0.13672-0.23828-0.32812-0.42578-0.57812-0.5625-0.24219-0.13281-0.51562-0.20312-0.82812-0.20312-0.76172 0-1.3594 0.29688-1.7969 0.89062-0.4375 0.58594-0.65625 1.3984-0.65625 2.4375v5.625h-3.6562v-15.875h3.6562v6.125c0.55078-0.66406 1.1328-1.1562 1.75-1.4688 0.625-0.32031 1.3125-0.48438 2.0625-0.48438 1.3125 0 2.3047 0.40625 2.9844 1.2188 0.6875 0.8125 1.0312 1.9922 1.0312 3.5312z"/>
  </symbol>
  <symbol id="n" overflow="visible">
   <path d="m1.9219-15.234h4.375l5.5469 10.453v-10.453h3.7188v15.234h-4.375l-5.5469-10.453v10.453h-3.7188z"/>
  </symbol>
  <symbol id="m" overflow="visible">
   <path d="m1.625-4.4531v-6.9688h3.6719v1.1406c0 0.61719-0.007813 1.3906-0.015625 2.3281v1.875c0 0.91797 0.019531 1.5781 0.0625 1.9844 0.050781 0.40625 0.13281 0.69922 0.25 0.875 0.15625 0.24219 0.35156 0.42969 0.59375 0.5625 0.23828 0.125 0.51562 0.1875 0.82812 0.1875 0.75781 0 1.3594-0.28906 1.7969-0.875 0.4375-0.58203 0.65625-1.3945 0.65625-2.4375v-5.6406h3.6562v11.422h-3.6562v-1.6562c-0.55469 0.66797-1.1367 1.1641-1.75 1.4844-0.61719 0.3125-1.293 0.46875-2.0312 0.46875-1.3242 0-2.3359-0.39844-3.0312-1.2031-0.6875-0.8125-1.0312-1.9922-1.0312-3.5469z"/>
  </symbol>
  <symbol id="l" overflow="visible">
   <path d="m1.9219-15.234h6.5156c1.9375 0 3.4219 0.43359 4.4531 1.2969 1.0391 0.85547 1.5625 2.0781 1.5625 3.6719 0 1.6055-0.52344 2.8398-1.5625 3.7031-1.0312 0.85547-2.5156 1.2812-4.4531 1.2812h-2.5938v5.2812h-3.9219zm3.9219 2.8438v4.2656h2.1719c0.75781 0 1.3477-0.17969 1.7656-0.54688 0.41406-0.375 0.625-0.90625 0.625-1.5938 0-0.67578-0.21094-1.1953-0.625-1.5625-0.41797-0.375-1.0078-0.5625-1.7656-0.5625z"/>
  </symbol>
  <symbol id="k" overflow="visible">
   <path d="m1.75-11.422h3.6562v11.219c0 1.5312-0.37109 2.6953-1.1094 3.5-0.73047 0.8125-1.793 1.2188-3.1875 1.2188h-1.7969v-2.4062h0.625c0.69531 0 1.1719-0.15625 1.4219-0.46875 0.25781-0.3125 0.39062-0.92969 0.39062-1.8438zm0-4.4531h3.6562v2.9844h-3.6562z"/>
  </symbol>
 </defs>
 <g>
  <path d="m302.86 103.23-1.1758 0.097657c-31.406 2.5859-60.727 7.7148-86.77 14.848-0.8125 0.22266-1.6211 0.44141-2.4297 0.67188l-0.57422 0.16016c-0.98047 0.28125-1.9648 0.55859-2.9375 0.84375-0.17188 0.050782-0.34766 0.10156-0.52344 0.15625-2 0.58594-3.9883 1.1836-5.9453 1.793-0.71094 0.22266-1.4141 0.44141-2.1094 0.66406-0.76172 0.24219-1.5117 0.48437-2.2617 0.72656-0.50391 0.16797-1.0195 0.33594-1.5234 0.5-0.70703 0.23438-1.4141 0.47266-2.1172 0.71094-0.17578 0.058593-0.35938 0.12109-0.54297 0.18359-0.42969 0.14453-0.85547 0.29297-1.2891 0.4375-0.82422 0.28516-1.6406 0.57422-2.457 0.85938l-0.58203 0.20312c-0.30859 0.10938-0.62109 0.22266-0.9375 0.33594l-0.85156 0.30859c-0.25 0.085938-0.51172 0.18359-0.76562 0.27734-0.81641 0.29688-1.6211 0.59766-2.4258 0.89844-0.89844 0.33594-1.793 0.67578-2.6797 1.0195l-0.82422 0.31641c-0.34766 0.13281-0.69922 0.27344-1.0508 0.41016l-0.33203 0.12891-0.98438 0.39453c-11.484 4.5859-21.961 9.625-31.27 15.039-32.871 19.141-51.387 43.434-51.387 68.961l0.003906 0.49219c0.007813 0.96094 0.042969 1.918 0.10156 2.8789 0.003906 0.0625 0.007812 0.125 0.015625 0.18359 0.023437 0.40234 0.058593 0.79688 0.09375 1.1953-0.13672-0.61719-0.21484-1.2656-0.21484-1.9258 0 131.66 113 238.8 252.49 238.8s252.48-107.14 252.48-238.8l-0.078125 0.078125 0.042969-0.82812c0.015625-0.48828 0.027344-0.97656 0.035156-1.4688l0.003907-0.60938c0-1.6758-0.078126-3.3516-0.23828-5.0195l-0.003906-0.066407c-0.0625-0.64062-0.13672-1.2773-0.22266-1.9141-0.035156-0.25-0.070313-0.50391-0.10938-0.75781-0.76172-5.1602-2.2773-10.25-4.5195-15.242l-0.34766-0.75781c-0.066406-0.14453-0.13281-0.29297-0.20312-0.4375-0.085937-0.18359-0.17578-0.37109-0.26562-0.55469-0.074219-0.16016-0.15234-0.3125-0.23047-0.47266-1.5117-3.0586-3.2969-6.0781-5.3438-9.043l-0.058593-0.082032c-0.23047-0.33594-0.46484-0.66406-0.70312-1l-0.0625-0.085937c-0.375-0.52344-0.76172-1.043-1.1523-1.5664-0.83203-1.1094-1.7031-2.2109-2.6172-3.3047l-0.36328-0.4375c-0.16406-0.19141-0.32422-0.38281-0.48828-0.57812-0.17578-0.19922-0.34766-0.40625-0.52344-0.60547-0.29687-0.33984-0.59375-0.67578-0.89844-1.0156l-0.035156-0.042968c-2.4961-2.7852-5.2266-5.5117-8.1953-8.1797-0.76953-0.69531-1.5508-1.3789-2.3516-2.0586-0.56641-0.48828-1.1445-0.96875-1.7305-1.4531-0.46094-0.37891-0.92969-0.75781-1.3945-1.1367-0.48438-0.38281-0.97266-0.76953-1.4688-1.1523-5.3633-4.1797-11.328-8.1875-17.863-11.988-45.375-26.418-118.55-43.801-201.1-43.801-15.625 0-30.918 0.62109-45.754 1.8125zm44.996 223.71h-0.76172c-73.184-0.17969-138.11-13.336-179.07-33.312-7.3477-3.3047-14.199-6.8086-20.52-10.484-11.625-6.7695-21.461-14.184-29.309-22.07 21.715 101.18 116.79 177.32 230.41 177.32 113.62 0 208.7-76.129 230.41-177.32-7.8477 7.8867-17.684 15.301-29.309 22.07-6.3164 3.6758-13.172 7.1797-20.52 10.484-40.945 19.977-105.88 33.133-179.06 33.312l-1.0352 0.003906-1.2383-0.003906zm56.98-122.43c-0.26172-0.074219-0.53125-0.14453-0.80469-0.21484-1.8555-0.46875-3.7891 0.89844-5.9844 1.9961-4.375 2.1914-8.9219 5.0938-13.293 7.0703-9.3828 4.25-18.18 4.5586-25.332-2.9102-3.0664-3.1953-5.3516-5.6992-7.418-7.5469-1.0547-0.94141-1.8984-1.6875-2.9805-1.9961-1.2227-0.35156-2.582-0.27734-4.3086 0.027343l3.6562 4.0156c3.2344 3.5547 2.9766 9.0703-0.57813 12.301-3.5547 3.2344-9.0664 2.9766-12.301-0.57813l-4.9219-5.4102c-1.6914 1.2031-3.6133 2.1641-5.9141 2.7891-4.2227 1.1484-10.23 1.1914-19.621-2.2656-6.25-2.3008-10.316-3.2539-13.574-2.9062-2.7344 0.29297-4.6484 1.668-7 3.2266-3.3281 2.2031-7.0742 4.8633-12.336 7.5312-3.457 1.7461-6.7578 2.9219-9.8672 3.6523l-3.9492 7.3594c-2.2734 4.2344-7.5547 5.8242-11.789 3.5547-4.1602-2.2305-5.7656-7.3633-3.6758-11.555-4.0586-1.293-6.707-2.9492-7.5273-3.5039-3.5742-2.0508-6.668-3.2188-9.5273-2.1289-3.4688 1.3281-5.957 5.1836-8.5117 10.992-3.0508 6.9258-7.6406 10.988-12.727 13.18 1.2422 4.3828-1.1289 9.043-5.4844 10.582-4.5312 1.5977-9.5078-0.78516-11.109-5.3164l-1.2539-3.5625c-4.0859-0.65625-7.4648-1.7891-9.1641-2.4336-22.098-2.6484-29.711 17.973-29.711 17.973-0.097657 0.25781-0.19922 0.51172-0.31641 0.75391 6.5859 6.5078 15.629 12.527 26.645 18.043 0.61719 0.30859 1.2422 0.61328 1.8711 0.92188 8.4023 3.7578 17.477 7.2305 27.145 10.398l-2.293-8.7852c-1.2109-4.6523 1.5781-9.4102 6.2305-10.625 4.6484-1.2109 9.4062 1.5781 10.617 6.2266l4.9258 18.895 0.011718 0.042969c14.992 3.9648 31.098 7.2383 48.07 9.7188 0.82031-2.3438 2.6328-4.3203 5.1328-5.2695l16.668-6.3164c4.4922-1.6992 9.5234 0.5625 11.227 5.0586 1.3984 3.6875 0.125 7.7344-2.8594 10.008 14.957 1.2891 30.43 1.9766 46.258 2.0156l1.4453 0.003907h0.90625l0.53516-0.003907c0.77344 0 1.5508-0.003906 2.3281-0.007812l-2.0742-0.78516c-4.4961-1.7031-6.7617-6.7344-5.0625-11.23 1.7031-4.4922 6.7383-6.7578 11.23-5.0586l16.668 6.3164c4.082 1.5469 6.3281 5.8438 5.4297 9.9805 14.832-0.78516 29.25-2.1484 43.113-4.0312l4.4727-17.137c1.2109-4.6484 5.9727-7.4375 10.625-6.2266 4.6484 1.2148 7.4375 5.9727 6.2266 10.625l-2.5625 9.8086c14.805-2.6211 28.855-5.8555 41.973-9.6367l-2.6523-7.0664c-1.6836-4.4961 0.59766-9.5195 5.0938-11.207 4.5-1.6875 9.5234 0.59375 11.211 5.0938l2.9727 7.918c7.8047-2.7031 15.207-5.6172 22.148-8.7188 0.63672-0.30859 1.2578-0.61328 1.875-0.92188 9.1523-4.582 16.945-9.5156 23.098-14.785-6.1172-7.0469-6.3984-9.6055-20.973-21.234-4.4375-3.543-10.789-3.1953-14.719-0.78125-4.75 2.9219-9.1133 3.7305-13.379 3.2773l-0.96875 2.75c-1.6016 4.5312-6.5781 6.9141-11.109 5.3164-4.5312-1.6016-6.9141-6.5781-5.3164-11.109l1.0391-2.9492c-0.37109-0.16016-0.75391-0.31641-1.1328-0.46875-4.7539-1.9023-7.6797-4.5117-10.512-7.4922-2.2891-2.418-4.4688-5.2773-10.117-7.3711-7.543-2.7969-15.867-0.44141-21.801-0.30078-5.3086 0.125-9.5625-1.0352-12.523-3.3477-1.5977-1.2461-3.25-2.9766-5.1445-4.832l-2.1719 3.6758c-2.4414 4.1367-7.7852 5.5117-11.922 3.0703-4.1367-2.4453-5.5117-7.7852-3.0664-11.922l2.4922-4.2266zm-158.6 49.379-3.7578 10.012c-1.6875 4.4961 0.59375 9.5195 5.0938 11.207s9.5195-0.59375 11.207-5.0898l3.7617-10.012c1.6836-4.5-0.59766-9.5234-5.0938-11.211-4.5-1.6875-9.5234 0.59375-11.211 5.0938zm166.36-1.4219-17.047-4.8867c-4.6211-1.3242-9.4453 1.3516-10.77 5.9688-1.3242 4.6211 1.3516 9.4453 5.9727 10.77l17.047 4.8867c4.6172 1.3242 9.4453-1.3516 10.77-5.9727 1.3203-4.6172-1.3555-9.4453-5.9727-10.766zm28.93 1.4141 3.7578 10.012c1.6875 4.5 6.7109 6.7812 11.211 5.0938 4.4961-1.6875 6.7812-6.7109 5.0938-11.211l-3.7617-10.012c-1.6836-4.4961-6.707-6.7773-11.207-5.0898s-6.7812 6.7109-5.0938 11.207zm-95.676-14.676-9.5586 16.523c-2.4062 4.1602-0.98438 9.4922 3.1719 11.898 4.1602 2.4062 9.4922 0.98047 11.898-3.1758l9.5625-16.523c2.4062-4.1602 0.98047-9.4883-3.1758-11.895-4.1602-2.4062-9.4922-0.98438-11.898 3.1719zm-62.344 9.7188 11.57 14.828c2.9531 3.7852 8.4297 4.4648 12.219 1.5039 3.7852-2.9531 4.4648-8.4336 1.5039-12.219l-11.57-14.828c-2.9531-3.7852-8.4336-4.4648-12.219-1.5039-3.7852 2.9531-4.4648 8.4297-1.5039 12.219zm274.07 0.23047c2.1523-3.8789 3.3359-7.8828 3.3359-12.016 0-6.9492-3.3398-13.52-9.0156-19.77-6.707-7.3828-16.547-14.176-28.84-20.328-39.348-19.691-102.88-32.297-174.45-32.297s-135.11 12.605-174.45 32.297c-12.301 6.1523-22.137 12.941-28.844 20.328-5.6758 6.25-9.0156 12.82-9.0156 19.77 0 1.7969 0.22656 3.5703 0.65234 5.3164 6.6641-9.5508 19.961-22.102 42.797-19.262l-2.9727-8.4258c-1.6016-4.5312 0.78125-9.5078 5.3125-11.109 4.5352-1.5977 9.5117 0.78516 11.109 5.3164l5.4453 15.438c1.0703-0.76172 2.0078-1.8594 2.6953-3.418 5.0117-11.375 11.43-17.633 18.23-20.234 7.3164-2.7969 15.699-1.8203 24.953 3.6016 0.19922 0.11719 0.40234 0.24609 0.59375 0.37891 0 0 2.3672 1.4766 6.3047 1.918l7.2852-13.57c2.2734-4.2344 7.5547-5.8242 11.789-3.5508 2.9922 1.6055 4.668 4.7188 4.5859 7.8984 4.7695-3.1367 8.9648-5.2695 14.52-5.8672 5.1211-0.55078 11.641 0.26172 21.453 3.875 3.1211 1.1484 5.3164 1.9023 6.9805 2.043l-3.9414-4.332c-3.2344-3.5508-2.9766-9.0664 0.57812-12.301 3.5547-3.2344 9.0664-2.9766 12.301 0.58203l4.8008 5.2734c1.6641-0.85547 3.5625-1.5625 5.7695-2.0547 7.3789-1.6523 12.215-1.6523 16.285-0.48047 5.5859 1.6055 10.066 5.7852 18.168 14.234 0.75 0.78125 1.6914 0.46875 2.6367 0.20703 2.168-0.60156 4.4102-1.7695 6.6914-3.0078 4.7461-2.582 9.582-5.5117 14.094-7.1328 4.5352-1.6289 8.8984-2.0703 12.871-1.0664 1.9805 0.49609 3.832 1.125 5.5664 1.8477l2.5195-4.2695c2.4453-4.1367 7.7852-5.5117 11.922-3.0703 4.1367 2.4453 5.5156 7.7891 3.0703 11.926l-2.9688 5.0273c2.3789 2.1055 4.4688 4.1172 6.4102 5.6992 0.96875-0.011719 5.0039-0.070313 7.8242-0.32031 6.957-0.62109 14.945-0.94922 22.402 1.8125 7.8945 2.9258 11.852 6.5938 15.176 10.094 1.75 1.8438 3.0117 3.7891 5.8594 4.9258 0.16406 0.0625 0.32031 0.12891 0.48047 0.19531l1.9844-5.6289c1.5977-4.5352 6.5742-6.9141 11.105-5.3164 4.5352 1.6016 6.918 6.5781 5.3164 11.109l-0.97266 2.7539c9.2891-4.3281 22.547-4.1875 32.074 3.4141 14.832 11.836 15.641 14.68 21.531 21.547zm-52.145-105.36c-41.934-15.594-96.816-24.953-156.83-24.953-78.914 0-148.96 16.188-192.34 41.438-10.969 6.3867-20.223 13.273-27.285 20.613l-0.4375 0.45703-0.19141 0.20703c-0.63281 0.66797-1.2422 1.3398-1.832 2.0156l-0.42188 0.48438-0.10937 0.12891c-0.19141 0.22266-0.375 0.4375-0.55859 0.66016-0.20703 0.24609-0.41016 0.49219-0.60938 0.73828l-0.34375 0.42188c-1.9492 2.4414-3.6562 4.9258-5.1094 7.4609-0.61719 1.0781-1.1914 2.1641-1.7148 3.2539-0.23828 0.49609-0.46484 0.99219-0.67969 1.4883-0.10547 0.24219-0.20703 0.48828-0.3125 0.73047l-0.24609 0.60938c-0.11719 0.29297-0.23047 0.58594-0.33984 0.87891-0.54688 1.4688-1.0117 2.9531-1.3867 4.4492-0.17188 0.69531-0.32422 1.3906-0.46484 2.0938-0.12109 0.64453-0.23047 1.2891-0.32031 1.9297-0.046875 0.33203-0.085938 0.66406-0.125 1-0.14453 1.2812-0.22656 2.5781-0.24219 3.8828v0.5625c0 0.70703 0.023438 1.4102 0.070313 2.1133 0.003906 0.082032 0.007813 0.16406 0.011719 0.24609 0.40234 6.0586 2.2539 11.914 5.3789 17.551 1.5078-19.406 18.207-38.195 47.367-52.785 41.117-20.578 107.45-34.141 182.25-34.141s141.12 13.562 182.24 34.141c29.156 14.59 45.855 33.379 47.367 52.785 3.125-5.6367 4.9766-11.496 5.3828-17.551 0-0.082031 0.003906-0.16406 0.011719-0.24609 0.042968-0.70703 0.066406-1.4102 0.070312-2.1133v-0.16016c0-20.418-16.438-38.602-42.734-53.91-4.7734-2.7773-9.8672-5.4453-15.254-7.9922-4.1875-1.9805-8.5508-3.8867-13.086-5.7109l-0.30859-0.125c-0.26563-0.10938-0.53125-0.21484-0.79297-0.31641-1.5508-0.61719-3.1211-1.2305-4.707-1.8281-0.45703-0.17187-0.91016-0.34375-1.3633-0.51172z" fill-rule="evenodd"/>
  <use x="70" y="622.6875" xlink:href="#s"/>
  <use x="85.335938" y="622.6875" xlink:href="#b"/>
  <use x="95.640625" y="622.6875" xlink:href="#a"/>
  <use x="109.8125" y="622.6875" xlink:href="#j"/>
  <use x="123.910156" y="622.6875" xlink:href="#e"/>
  <use x="133.902344" y="622.6875" xlink:href="#a"/>
  <use x="148.074219" y="622.6875" xlink:href="#f"/>
  <use x="170.304688" y="622.6875" xlink:href="#i"/>
  <use x="185.261719" y="622.6875" xlink:href="#h"/>
  <use x="206.15625" y="622.6875" xlink:href="#b"/>
  <use x="216.460938" y="622.6875" xlink:href="#a"/>
  <use x="230.632812" y="622.6875" xlink:href="#d"/>
  <use x="245.511719" y="622.6875" xlink:href="#f"/>
  <use x="260.46875" y="622.6875" xlink:href="#r"/>
  <use x="267.628906" y="622.6875" xlink:href="#g"/>
  <use x="280.015625" y="622.6875" xlink:href="#c"/>
  <use x="294.371094" y="622.6875" xlink:href="#d"/>
  <use x="70" y="643.582031" xlink:href="#q"/>
  <use x="79.089844" y="643.582031" xlink:href="#b"/>
  <use x="89.394531" y="643.582031" xlink:href="#c"/>
  <use x="103.75" y="643.582031" xlink:href="#p"/>
  <use x="132.796875" y="643.582031" xlink:href="#e"/>
  <use x="142.789062" y="643.582031" xlink:href="#o"/>
  <use x="157.664062" y="643.582031" xlink:href="#a"/>
  <use x="179.109375" y="643.582031" xlink:href="#n"/>
  <use x="196.597656" y="643.582031" xlink:href="#c"/>
  <use x="210.953125" y="643.582031" xlink:href="#m"/>
  <use x="225.828125" y="643.582031" xlink:href="#d"/>
  <use x="247.980469" y="643.582031" xlink:href="#l"/>
  <use x="263.292969" y="643.582031" xlink:href="#b"/>
  <use x="273.597656" y="643.582031" xlink:href="#c"/>
  <use x="287.953125" y="643.582031" xlink:href="#k"/>
  <use x="295.117188" y="643.582031" xlink:href="#a"/>
  <use x="309.289062" y="643.582031" xlink:href="#g"/>
  <use x="321.675781" y="643.582031" xlink:href="#e"/>
 </g>
</svg>
