<?xml version="1.0" encoding="UTF-8"?>
<svg width="700pt" height="700pt" version="1.1" viewBox="0 0 700 700" xmlns="http://www.w3.org/2000/svg" xmlns:xlink="http://www.w3.org/1999/xlink">
 <defs>
  <symbol id="m" overflow="visible">
   <path d="m29.312-1.75c-1.5117 0.78125-3.0898 1.3711-4.7344 1.7656-1.6367 0.40625-3.3398 0.60938-5.1094 0.60938-5.3125 0-9.5273-1.4844-12.641-4.4531-3.1055-2.9688-4.6562-7-4.6562-12.094s1.5508-9.125 4.6562-12.094c3.1133-2.9688 7.3281-4.4531 12.641-4.4531 1.7695 0 3.4727 0.19922 5.1094 0.59375 1.6445 0.39844 3.2227 0.99219 4.7344 1.7812v6.5938c-1.5312-1.0391-3.0391-1.8008-4.5156-2.2812-1.4805-0.48828-3.0391-0.73438-4.6719-0.73438-2.9375 0-5.2461 0.94531-6.9219 2.8281-1.6797 1.875-2.5156 4.4648-2.5156 7.7656 0 3.293 0.83594 5.8828 2.5156 7.7656 1.6758 1.875 3.9844 2.8125 6.9219 2.8125 1.6328 0 3.1914-0.23828 4.6719-0.71875 1.4766-0.48828 2.9844-1.2539 4.5156-2.2969z"/>
  </symbol>
  <symbol id="b" overflow="visible">
   <path d="m21.453-17.406c-0.67969-0.3125-1.3516-0.53906-2.0156-0.6875-0.65625-0.15625-1.3203-0.23438-1.9844-0.23438-1.9688 0-3.4844 0.63281-4.5469 1.8906-1.0547 1.2617-1.5781 3.0703-1.5781 5.4219v11.016h-7.6562v-23.922h7.6562v3.9219c0.97656-1.5625 2.1016-2.7031 3.375-3.4219 1.2812-0.71875 2.8125-1.0781 4.5938-1.0781 0.25 0 0.52344 0.011719 0.82812 0.03125 0.30078 0.023438 0.73438 0.070312 1.2969 0.14062z"/>
  </symbol>
  <symbol id="c" overflow="visible">
   <path d="m27.562-12.031v2.1875h-17.891c0.1875 1.793 0.83203 3.1367 1.9375 4.0312 1.1133 0.89844 2.6719 1.3438 4.6719 1.3438 1.6016 0 3.25-0.23438 4.9375-0.70312 1.6875-0.47656 3.4219-1.2031 5.2031-2.1719v5.8906c-1.8047 0.6875-3.6094 1.2031-5.4219 1.5469-1.8125 0.35156-3.6211 0.53125-5.4219 0.53125-4.3359 0-7.7031-1.0977-10.109-3.2969-2.3984-2.207-3.5938-5.2969-3.5938-9.2656 0-3.9062 1.1758-6.9727 3.5312-9.2031 2.3633-2.2383 5.6094-3.3594 9.7344-3.3594 3.7578 0 6.7695 1.1367 9.0312 3.4062 2.2578 2.2617 3.3906 5.2812 3.3906 9.0625zm-7.8594-2.5312c0-1.457-0.42969-2.6289-1.2812-3.5156-0.84375-0.89453-1.9492-1.3438-3.3125-1.3438-1.4922 0-2.6992 0.41797-3.625 1.25-0.91797 0.83594-1.4922 2.0391-1.7188 3.6094z"/>
  </symbol>
  <symbol id="a" overflow="visible">
   <path d="m14.391-10.766c-1.5938 0-2.793 0.27344-3.5938 0.8125-0.80469 0.54297-1.2031 1.3398-1.2031 2.3906 0 0.96875 0.32031 1.7305 0.96875 2.2812 0.64453 0.54297 1.5469 0.8125 2.7031 0.8125 1.4375 0 2.6445-0.51562 3.625-1.5469 0.98828-1.0312 1.4844-2.3203 1.4844-3.875v-0.875zm11.688-2.8906v13.656h-7.7031v-3.5469c-1.0312 1.4492-2.1875 2.5078-3.4688 3.1719s-2.8398 1-4.6719 1c-2.4805 0-4.4961-0.72266-6.0469-2.1719-1.543-1.4453-2.3125-3.3203-2.3125-5.625 0-2.8125 0.96094-4.8672 2.8906-6.1719 1.9375-1.3125 4.9688-1.9688 9.0938-1.9688h4.5156v-0.60938c0-1.207-0.48047-2.0938-1.4375-2.6562-0.94922-0.5625-2.4375-0.84375-4.4688-0.84375-1.6367 0-3.1562 0.16797-4.5625 0.5-1.4062 0.32422-2.7188 0.8125-3.9375 1.4688v-5.8281c1.6445-0.40625 3.2891-0.70703 4.9375-0.90625 1.6562-0.20703 3.3047-0.3125 4.9531-0.3125 4.3203 0 7.4375 0.85547 9.3438 2.5625 1.9141 1.6992 2.875 4.4609 2.875 8.2812z"/>
  </symbol>
  <symbol id="h" overflow="visible">
   <path d="m12.031-30.719v6.7969h7.875v5.4688h-7.875v10.141c0 1.1172 0.21875 1.8711 0.65625 2.2656 0.4375 0.38672 1.3125 0.57812 2.625 0.57812h3.9375v5.4688h-6.5625c-3.0234 0-5.1641-0.62891-6.4219-1.8906-1.2617-1.2578-1.8906-3.3984-1.8906-6.4219v-10.141h-3.7969v-5.4688h3.7969v-6.7969z"/>
  </symbol>
  <symbol id="g" overflow="visible">
   <path d="m19.953-20.422v-12.812h7.6875v33.234h-7.6875v-3.4531c-1.0547 1.4062-2.2148 2.4375-3.4844 3.0938-1.2734 0.65625-2.7422 0.98438-4.4062 0.98438-2.9492 0-5.3711-1.1719-7.2656-3.5156-1.8867-2.3438-2.8281-5.3594-2.8281-9.0469s0.94141-6.7031 2.8281-9.0469c1.8945-2.3438 4.3164-3.5156 7.2656-3.5156 1.6562 0 3.1172 0.33594 4.3906 1 1.2812 0.65625 2.4453 1.6836 3.5 3.0781zm-5.0469 15.484c1.6445 0 2.8945-0.59766 3.75-1.7969 0.86328-1.1953 1.2969-2.9297 1.2969-5.2031 0-2.2812-0.43359-4.0195-1.2969-5.2188-0.85547-1.1953-2.1055-1.7969-3.75-1.7969-1.625 0-2.8711 0.60156-3.7344 1.7969-0.85547 1.1992-1.2812 2.9375-1.2812 5.2188 0 2.2734 0.42578 4.0078 1.2812 5.2031 0.86328 1.1992 2.1094 1.7969 3.7344 1.7969z"/>
  </symbol>
  <symbol id="f" overflow="visible">
   <path d="m16.406-4.9375c1.6328 0 2.8828-0.59766 3.75-1.7969 0.86328-1.1953 1.2969-2.9297 1.2969-5.2031 0-2.2812-0.43359-4.0195-1.2969-5.2188-0.86719-1.1953-2.1172-1.7969-3.75-1.7969-1.6367 0-2.8906 0.60547-3.7656 1.8125-0.875 1.1992-1.3125 2.9336-1.3125 5.2031 0 2.2617 0.4375 3.9961 1.3125 5.2031 0.875 1.1992 2.1289 1.7969 3.7656 1.7969zm-5.0781-15.484c1.0508-1.3945 2.2188-2.4219 3.5-3.0781 1.2812-0.66406 2.7539-1 4.4219-1 2.9453 0 5.3672 1.1719 7.2656 3.5156 1.8945 2.3438 2.8438 5.3594 2.8438 9.0469s-0.94922 6.7031-2.8438 9.0469c-1.8984 2.3438-4.3203 3.5156-7.2656 3.5156-1.668 0-3.1406-0.33594-4.4219-1s-2.4492-1.6914-3.5-3.0781v3.4531h-7.6562v-33.234h7.6562z"/>
  </symbol>
  <symbol id="e" overflow="visible">
   <path d="m0.53125-23.922h7.6562l6.4219 16.234 5.4688-16.234h7.6562l-10.062 26.188c-1.0117 2.6641-2.1953 4.5234-3.5469 5.5781-1.3438 1.0625-3.1211 1.5938-5.3281 1.5938h-4.4219v-5.0156h2.3906c1.3008 0 2.2422-0.21094 2.8281-0.625 0.59375-0.40625 1.0547-1.1484 1.3906-2.2188l0.20312-0.65625z"/>
  </symbol>
  <symbol id="d" overflow="visible">
   <path d="m19.422-33.234v5.0156h-4.2344c-1.0859 0-1.8398 0.19922-2.2656 0.59375-0.42969 0.38672-0.64062 1.0625-0.64062 2.0312v1.6719h6.5312v5.4688h-6.5312v18.453h-7.6406v-18.453h-3.8125v-5.4688h3.8125v-1.6719c0-2.6016 0.72266-4.5234 2.1719-5.7656 1.457-1.25 3.707-1.875 6.75-1.875z"/>
  </symbol>
  <symbol id="l" overflow="visible">
   <path d="m27.734-14.562v14.562h-7.7031v-11.156c0-2.0625-0.046875-3.4844-0.14062-4.2656-0.085937-0.78125-0.24219-1.3594-0.46875-1.7344-0.30469-0.5-0.71094-0.88281-1.2188-1.1562-0.51172-0.28125-1.0938-0.42188-1.75-0.42188-1.5938 0-2.8516 0.61719-3.7656 1.8438-0.90625 1.2305-1.3594 2.9375-1.3594 5.125v11.766h-7.6562v-23.922h7.6562v3.5c1.1445-1.3945 2.3633-2.4219 3.6562-3.0781 1.3008-0.66406 2.7383-1 4.3125-1 2.7578 0 4.8516 0.85156 6.2812 2.5469 1.4375 1.6875 2.1562 4.1523 2.1562 7.3906z"/>
  </symbol>
  <symbol id="k" overflow="visible">
   <path d="m3.4219-9.3125v-14.609h7.6875v2.3906c0 1.293-0.011719 2.918-0.03125 4.875-0.011719 1.9609-0.015625 3.2656-0.015625 3.9219 0 1.9297 0.046875 3.3125 0.14062 4.1562 0.10156 0.84375 0.28125 1.4609 0.53125 1.8438 0.3125 0.5 0.71875 0.88672 1.2188 1.1562 0.50781 0.27344 1.0938 0.40625 1.75 0.40625 1.5938 0 2.8438-0.60938 3.75-1.8281 0.91406-1.2266 1.375-2.9297 1.375-5.1094v-11.812h7.6406v23.922h-7.6406v-3.4531c-1.1562 1.3867-2.3828 2.4141-3.6719 3.0781-1.2812 0.66406-2.6992 1-4.25 1-2.7734 0-4.8828-0.84766-6.3281-2.5469-1.4375-1.6953-2.1562-4.1602-2.1562-7.3906z"/>
  </symbol>
  <symbol id="j" overflow="visible">
   <path d="m19.953-4.0625c-1.0547 1.3984-2.2148 2.4219-3.4844 3.0781-1.2734 0.65625-2.7422 0.98438-4.4062 0.98438-2.918 0-5.3281-1.1484-7.2344-3.4531-1.9062-2.3008-2.8594-5.2266-2.8594-8.7812 0-3.582 0.95312-6.5156 2.8594-8.7969s4.3164-3.4219 7.2344-3.4219c1.6641 0 3.1328 0.32812 4.4062 0.98438 1.2695 0.64844 2.4297 1.6797 3.4844 3.0938v-3.5469h7.6875v21.516c0 3.8438-1.2148 6.7734-3.6406 8.7969-2.4297 2.0312-5.9492 3.0469-10.562 3.0469-1.5 0-2.9492-0.11719-4.3438-0.34375-1.3984-0.21875-2.7969-0.57031-4.2031-1.0469v-5.9531c1.3438 0.76953 2.6562 1.3438 3.9375 1.7188s2.5664 0.5625 3.8594 0.5625c2.5078 0 4.3477-0.54688 5.5156-1.6406 1.1641-1.0938 1.75-2.8047 1.75-5.1406zm-5.0469-14.891c-1.5742 0-2.8047 0.58984-3.6875 1.7656-0.88672 1.168-1.3281 2.8203-1.3281 4.9531 0 2.1875 0.42578 3.8516 1.2812 4.9844 0.85156 1.1367 2.0977 1.7031 3.7344 1.7031 1.5938 0 2.832-0.58203 3.7188-1.75 0.88281-1.1758 1.3281-2.8203 1.3281-4.9375 0-2.1328-0.44531-3.7852-1.3281-4.9531-0.88672-1.1758-2.125-1.7656-3.7188-1.7656z"/>
  </symbol>
  <symbol id="i" overflow="visible">
   <path d="m27.734-14.562v14.562h-7.7031v-11.109c0-2.0938-0.046875-3.5312-0.14062-4.3125-0.085937-0.78125-0.24219-1.3594-0.46875-1.7344-0.30469-0.5-0.71094-0.88281-1.2188-1.1562-0.51172-0.28125-1.0938-0.42188-1.75-0.42188-1.5938 0-2.8516 0.61719-3.7656 1.8438-0.90625 1.2305-1.3594 2.9375-1.3594 5.125v11.766h-7.6562v-33.234h7.6562v12.812c1.1445-1.3945 2.3633-2.4219 3.6562-3.0781 1.3008-0.66406 2.7383-1 4.3125-1 2.7578 0 4.8516 0.85156 6.2812 2.5469 1.4375 1.6875 2.1562 4.1523 2.1562 7.3906z"/>
  </symbol>
 </defs>
 <g>
  <path d="m327.71 339.17c-4.6289-0.85547-9.4844 4.4141-10.844 11.766-1.3555 7.3516 1.2969 14.004 5.9258 14.859 4.6289 0.85547 9.4805-4.4141 10.84-11.766 1.3555-7.3477-1.2969-14.004-5.9219-14.859z"/>
  <path d="m300.72 455.92c-4.6289-0.85547-9.4844 4.4102-10.844 11.762-1.3555 7.3516 1.2969 14.004 5.9258 14.859 4.6289 0.85547 9.4844-4.4102 10.84-11.762 1.3594-7.3516-1.293-14.004-5.9219-14.859z"/>
  <path d="m266.68 391.5c-4.6289-0.85547-9.4844 4.4141-10.84 11.762-1.3555 7.3516 1.2969 14.004 5.9258 14.859 4.625 0.85547 9.4805-4.4102 10.844-11.762 1.3516-7.3516-1.3008-14.004-5.9297-14.859z"/>
  <path d="m358.46 408.36c-4.4844-1.4375-9.9648 3.1758-12.238 10.293-2.2773 7.1211-0.49219 14.059 3.9961 15.492 4.4844 1.4336 9.9688-3.1758 12.246-10.297 2.2695-7.1211 0.48437-14.055-4.0039-15.488z"/>
  <path d="m413.23 352.79c-4.4453-1.543-10.039 2.9336-12.488 9.9961s-0.82422 14.039 3.625 15.582c4.4492 1.543 10.039-2.9336 12.488-10 2.4453-7.0625 0.82422-14.035-3.625-15.578z"/>
  <path d="m461.82 300.29c-4.4453-1.543-10.039 2.9336-12.488 9.9961s-0.82422 14.039 3.625 15.582c4.4492 1.543 10.039-2.9336 12.488-10 2.4453-7.0625 0.82422-14.035-3.625-15.578z"/>
  <path d="m236.73 319.7c-4.6992-0.31641-8.9102 5.4766-9.4102 12.941-0.49219 7.457 2.9102 13.758 7.6055 14.074 4.6992 0.3125 8.9062-5.4805 9.4062-12.941 0.5-7.4609-2.9023-13.762-7.6016-14.074z"/>
  <path d="m385.7 287.2c-4.4883-1.4219-9.957 3.2031-12.215 10.332-2.2578 7.1289-0.44922 14.059 4.043 15.477 4.4844 1.4219 9.957-3.1992 12.215-10.328 2.2539-7.1289 0.44531-14.059-4.043-15.48z"/>
  <path d="m305.5 267.69c-4.6758-0.54688-9.1719 5.0273-10.039 12.453-0.87109 7.4258 2.2148 13.887 6.8906 14.434 4.6758 0.54688 9.1719-5.0273 10.039-12.453 0.87109-7.4258-2.2148-13.887-6.8906-14.434z"/>
  <path d="m235.79 260.13c0.40234-7.4648-3.0781-13.723-7.7812-13.977-4.6992-0.25391-8.8398 5.5938-9.2461 13.055-0.40234 7.4648 3.0781 13.723 7.7812 13.977 4.7031 0.25391 8.8398-5.5898 9.2461-13.055z"/>
  <path d="m543.47 179.45c-0.97266-2.9414-3.4336-5.1367-6.457-5.7852-8.6133-1.8555-17.32-1.1289-25.738-0.4375-8.6641 0.71094-16.867 1.3828-23.344-1-7.3047-2.707-12.621-7.5547-18.766-13.16-4-3.6406-8.1328-7.4102-13.098-10.801-20.609-14.098-40.16-13.203-57.438-8.3555 1.7422-32.008 24.668-68.059 32.316-79.262 1.375-2.0078 3.1367-4.1172 4.9219-6.2734 6.2031-7.5039 13.246-16.012 11.023-25.609-1.2656-5.4844-5.2109-9.7656-11.73-12.723-6.8867-3.1289-37.059-12.109-50.695-3.9805-26.266 15.613-35.992 72.684-35.512 110.07-16.801-7.6992-31.438-5.6328-45.672-3.6328-10.953 1.5312-22.27 3.1172-35.617 0.48828-13.047-2.5898-24.805-7.3828-33.871-13.758-0.59766-0.46875-1.5898-1.4375-2.7773-2.5703-8.4062-7.9453-15.629-14.781-23.293-9.8789-1.8125 1.1797-4.1719 3.5039-5.043 7.8359-2.0352 10.074 5.7578 30.84 8.6992 35.172 6.5195 9.6172 13.418 16.066 20.445 20.426-27.93 22.18-87.883 85.473-69.844 210.39 18.328 126.98 77.367 177.81 122.36 182.75 2.5312 0.27344 5.1523 0.41797 7.8594 0.41797 46.484-0.007813 117.86-40.863 172.11-123.51 76.328-116.29 48.449-187.01 27.141-217.28 18.938-0.37109 37.262-5.9609 50.344-21.035 2.0195-2.3359 2.6602-5.5742 1.6758-8.5039zm-93.797 237.21c-52.988 80.707-123.82 119.71-163.44 115.3-38.77-4.2539-90.047-50.773-106.95-167.85-19.734-136.7 57.215-191.38 72.039-200.54 4.7852 0.84766 9.5273 1.1562 14.145 1.1641-5.4414 9.2891-9.5977 18.926-12.211 31.941-1.2148 6.0742-4.9062 24.559 8.7578 28.129 8.75 2.2969 15.074-6.4688 23.098-17.527 1.6484-2.2812 3.0352-4.2734 3.8984-5.168 11.922-11.52 23.242-18.758 33.805-21.617-6.0859 27.781 0.30078 64.461 22.148 83.383 2.4258 2.1094 5.8203 2.6914 8.8281 1.5703 3.0078-1.1445 5.1445-3.8438 5.5703-7.0312 0.85547-6.4336 1.332-11.961 1.7695-17.125 0.91406-10.664 1.6328-19.09 5.4531-31.137 3.625-11.406 9.5977-15.465 11.047-15.723 23.32 2.2461 31.172 47.91 34.949 69.855l0.84766 4.8711c0.625 3.4961 3.3086 6.2734 6.7852 7.0156 0.60547 0.13672 1.2227 0.19531 1.8281 0.19531 2.8555 0 5.5781-1.4023 7.2305-3.8203 17.176-25.199 15.93-51.559 10.383-73.117 8.2812 3.0234 17.602 5.6797 27.285 7.4375 11.117 9.918 72.129 73.594-17.27 209.79zm-20.27-240.74c-3.2109-1.6484-7.1523-1.1797-9.8516 1.2383-2.7188 2.4102-3.6484 6.2539-2.3594 9.6484 7.4414 19.516 10.09 35.82 7.8945 50.176-6.2891-26.918-18.227-57.312-45.785-59.969-0.5625-0.058594-1.1289-0.085937-1.6836-0.085937-11.355 0-22.344 10.965-27.719 27.934-3.5703 11.262-4.793 19.797-5.6484 28.633-8.168-18.566-8.2031-43.188-1.0781-59.637 1.1445-2.6328 0.92188-5.6484-0.58984-8.0938-1.5117-2.4336-4.1172-3.9727-6.9805-4.1289-18.945-0.90625-38.613 8.418-58.754 27.883-1.4883 1.4258-3.0664 3.5703-5.6914 7.1953 3.4336-14.527 9.3047-23.762 18.242-36.691 1.9062-2.7695 2.0664-6.3828 0.40234-9.3047-1.668-2.9219-4.8945-4.6641-8.2188-4.3906l-3.1602 0.22266c-21.371 1.5703-36.785 2.6992-52.484-20.473-0.70703-1.1875-1.7656-3.8594-2.8164-6.9805 0.17969 0.13672 0.32422 0.25781 0.46094 0.34375 11.184 7.8711 25.25 13.645 40.672 16.707 16.254 3.2383 29.652 1.3398 41.453-0.30859 17.43-2.4531 30.051-4.2305 47.68 9.4844 2.8125 2.1797 6.6406 2.4453 9.7344 0.68359 3.0859-1.7695 4.7852-5.2305 4.3164-8.75-4.5391-33.848 5.4961-97.992 25.969-110.16 4.1523-2.4336 24.812 0.46875 34.512 4.8789 0.86328 0.38281 1.4102 0.72656 1.7422 0.95703-0.82031 2.4688-4.9648 7.4844-7.2812 10.289-2.1445 2.582-4.2305 5.1367-5.8789 7.5469-12.074 17.664-39.633 62.969-34.949 102.17 0.32422 2.6641 1.8438 5.043 4.1445 6.4336 2.2891 1.4023 5.0938 1.6484 7.6211 0.71875 19.004-7.1445 35.273-9.4062 52.867 2.6133 3.9648 2.707 7.4688 5.9062 11.184 9.2969 6.8711 6.2539 13.973 12.73 24.473 16.629 4.0312 1.4961 8.1328 2.2578 12.262 2.5703-22.375 1.3984-48.18-6.6914-64.699-15.281z"/>
  <use x="70" y="691.25" xlink:href="#m"/>
  <use x="102.109375" y="691.25" xlink:href="#b"/>
  <use x="123.683594" y="691.25" xlink:href="#c"/>
  <use x="153.355469" y="691.25" xlink:href="#a"/>
  <use x="182.878906" y="691.25" xlink:href="#h"/>
  <use x="203.792969" y="691.25" xlink:href="#c"/>
  <use x="233.464844" y="691.25" xlink:href="#g"/>
  <use x="280.011719" y="691.25" xlink:href="#f"/>
  <use x="311.328125" y="691.25" xlink:href="#e"/>
  <use x="355.078125" y="691.25" xlink:href="#d"/>
  <use x="374.113281" y="691.25" xlink:href="#a"/>
  <use x="403.636719" y="691.25" xlink:href="#b"/>
  <use x="425.210937" y="691.25" xlink:href="#b"/>
  <use x="446.789062" y="691.25" xlink:href="#a"/>
  <use x="491.542969" y="691.25" xlink:href="#l"/>
  <use x="522.6875" y="691.25" xlink:href="#k"/>
  <use x="553.835938" y="691.25" xlink:href="#j"/>
  <use x="585.152344" y="691.25" xlink:href="#b"/>
  <use x="606.726562" y="691.25" xlink:href="#a"/>
  <use x="636.25" y="691.25" xlink:href="#i"/>
  <use x="667.398438" y="691.25" xlink:href="#a"/>
 </g>
</svg>
