<?xml version="1.0" encoding="UTF-8"?>
<svg width="700pt" height="700pt" version="1.1" viewBox="0 0 700 700" xmlns="http://www.w3.org/2000/svg" xmlns:xlink="http://www.w3.org/1999/xlink">
 <defs>
  <symbol id="v" overflow="visible">
   <path d="m14.656-0.875c-0.76172 0.39844-1.5547 0.69531-2.375 0.89062-0.8125 0.19531-1.6641 0.29688-2.5469 0.29688-2.6562 0-4.7617-0.73828-6.3125-2.2188-1.5547-1.4883-2.3281-3.5039-2.3281-6.0469 0-2.5508 0.77344-4.5664 2.3281-6.0469 1.5508-1.4883 3.6562-2.2344 6.3125-2.2344 0.88281 0 1.7344 0.10156 2.5469 0.29688 0.82031 0.19922 1.6133 0.49609 2.375 0.89062v3.2969c-0.76172-0.51953-1.5117-0.89844-2.25-1.1406-0.74219-0.23828-1.5234-0.35938-2.3438-0.35938-1.4688 0-2.625 0.46875-3.4688 1.4062-0.83594 0.9375-1.25 2.2344-1.25 3.8906 0 1.6484 0.41406 2.9375 1.25 3.875 0.84375 0.9375 2 1.4062 3.4688 1.4062 0.82031 0 1.6016-0.11719 2.3438-0.35938 0.73828-0.23828 1.4883-0.61719 2.25-1.1406z"/>
  </symbol>
  <symbol id="d" overflow="visible">
   <path d="m10.719-8.7031c-0.33594-0.15625-0.66797-0.26953-1-0.34375-0.32422-0.082031-0.65625-0.125-1-0.125-0.98047 0-1.7344 0.32031-2.2656 0.95312-0.53125 0.625-0.79688 1.5273-0.79688 2.7031v5.5156h-3.8125v-11.969h3.8125v1.9688c0.48828-0.78125 1.0508-1.3477 1.6875-1.7031 0.64453-0.36328 1.4102-0.54688 2.2969-0.54688 0.13281 0 0.27344 0.007812 0.42188 0.015625 0.14453 0.011719 0.36328 0.03125 0.65625 0.0625z"/>
  </symbol>
  <symbol id="b" overflow="visible">
   <path d="m13.781-6.0156v1.0938h-8.9375c0.09375 0.89844 0.41406 1.5703 0.96875 2.0156 0.55078 0.44922 1.3281 0.67188 2.3281 0.67188 0.80078 0 1.625-0.11719 2.4688-0.35938 0.84375-0.23828 1.7109-0.59766 2.6094-1.0781v2.9531c-0.90625 0.33594-1.8125 0.58984-2.7188 0.76562s-1.8125 0.26562-2.7188 0.26562c-2.1562 0-3.8398-0.54688-5.0469-1.6406-1.1992-1.1016-1.7969-2.6484-1.7969-4.6406 0-1.9453 0.58594-3.4766 1.7656-4.5938 1.1758-1.125 2.8008-1.6875 4.875-1.6875 1.875 0 3.375 0.57031 4.5 1.7031 1.1328 1.125 1.7031 2.6367 1.7031 4.5312zm-3.9375-1.2656c0-0.72656-0.21484-1.3125-0.64062-1.75-0.41797-0.44531-0.96875-0.67188-1.6562-0.67188-0.74219 0-1.3438 0.21094-1.8125 0.625-0.46094 0.41797-0.74609 1.0156-0.85938 1.7969z"/>
  </symbol>
  <symbol id="l" overflow="visible">
   <path d="m7.2031-5.3906c-0.80469 0-1.4062 0.13672-1.8125 0.40625-0.39844 0.27344-0.59375 0.67188-0.59375 1.2031 0 0.48047 0.16016 0.85938 0.48438 1.1406 0.32031 0.27344 0.77344 0.40625 1.3594 0.40625 0.71875 0 1.3203-0.25391 1.8125-0.76562 0.48828-0.51953 0.73438-1.1719 0.73438-1.9531v-0.4375zm5.8438-1.4375v6.8281h-3.8594v-1.7656c-0.51172 0.71875-1.0898 1.2461-1.7344 1.5781-0.63672 0.33203-1.418 0.5-2.3438 0.5-1.2422 0-2.2461-0.35938-3.0156-1.0781-0.77344-0.72656-1.1562-1.6719-1.1562-2.8281 0-1.3945 0.47656-2.4219 1.4375-3.0781 0.96875-0.65625 2.4883-0.98438 4.5625-0.98438h2.25v-0.29688c0-0.60156-0.24219-1.0469-0.71875-1.3281-0.48047-0.28125-1.2266-0.42188-2.2344-0.42188-0.8125 0-1.5742 0.085937-2.2812 0.25-0.71094 0.15625-1.3672 0.40234-1.9688 0.73438v-2.9219c0.82031-0.19531 1.6445-0.34766 2.4688-0.45312 0.82031-0.10156 1.6484-0.15625 2.4844-0.15625 2.1562 0 3.7109 0.42969 4.6719 1.2812 0.95703 0.84375 1.4375 2.2266 1.4375 4.1406z"/>
  </symbol>
  <symbol id="a" overflow="visible">
   <path d="m6.0156-15.359v3.3906h3.9375v2.7344h-3.9375v5.0781c0 0.55469 0.10938 0.92969 0.32812 1.125 0.21875 0.19922 0.65625 0.29688 1.3125 0.29688h1.9688v2.7344h-3.2812c-1.5117 0-2.5859-0.3125-3.2188-0.9375-0.625-0.63281-0.9375-1.707-0.9375-3.2188v-5.0781h-1.9062v-2.7344h1.9062v-3.3906z"/>
  </symbol>
  <symbol id="f" overflow="visible">
   <path d="m9.9688-10.219v-6.4062h3.8594v16.625h-3.8594v-1.7344c-0.52344 0.71094-1.1016 1.2305-1.7344 1.5625-0.63672 0.32031-1.3711 0.48438-2.2031 0.48438-1.4688 0-2.6797-0.58203-3.625-1.75-0.94922-1.1758-1.4219-2.6875-1.4219-4.5312s0.47266-3.3477 1.4219-4.5156c0.94531-1.1758 2.1562-1.7656 3.625-1.7656 0.83203 0 1.5664 0.16797 2.2031 0.5 0.63281 0.32422 1.2109 0.83594 1.7344 1.5312zm-2.5156 7.75c0.82031 0 1.4453-0.29688 1.875-0.89062 0.42578-0.60156 0.64062-1.4727 0.64062-2.6094 0-1.1445-0.21484-2.0156-0.64062-2.6094-0.42969-0.59375-1.0547-0.89062-1.875-0.89062-0.8125 0-1.4336 0.29688-1.8594 0.89062-0.42969 0.59375-0.64062 1.4648-0.64062 2.6094 0 1.1367 0.21094 2.0078 0.64062 2.6094 0.42578 0.59375 1.0469 0.89062 1.8594 0.89062z"/>
  </symbol>
  <symbol id="k" overflow="visible">
   <path d="m8.2031-2.4688c0.82031 0 1.4453-0.29688 1.875-0.89062 0.42578-0.60156 0.64062-1.4727 0.64062-2.6094 0-1.1445-0.21484-2.0156-0.64062-2.6094-0.42969-0.59375-1.0547-0.89062-1.875-0.89062-0.82422 0-1.4531 0.30469-1.8906 0.90625-0.4375 0.59375-0.65625 1.4609-0.65625 2.5938 0 1.1367 0.21875 2.0078 0.65625 2.6094 0.4375 0.59375 1.0664 0.89062 1.8906 0.89062zm-2.5469-7.75c0.53125-0.69531 1.1133-1.207 1.75-1.5312 0.64453-0.33203 1.3828-0.5 2.2188-0.5 1.4688 0 2.6758 0.58984 3.625 1.7656 0.94531 1.168 1.4219 2.6719 1.4219 4.5156s-0.47656 3.3555-1.4219 4.5312c-0.94922 1.168-2.1562 1.75-3.625 1.75-0.83594 0-1.5742-0.16797-2.2188-0.5-0.63672-0.33203-1.2188-0.84766-1.75-1.5469v1.7344h-3.8125v-16.625h3.8125z"/>
  </symbol>
  <symbol id="e" overflow="visible">
   <path d="m0.26562-11.969h3.8281l3.2188 8.125 2.7344-8.125h3.8125l-5.0312 13.094c-0.5 1.332-1.0898 2.2656-1.7656 2.7969-0.66797 0.53125-1.5547 0.79688-2.6562 0.79688h-2.2188v-2.5h1.2031c0.64453 0 1.1133-0.10547 1.4062-0.3125 0.30078-0.21094 0.53125-0.57812 0.6875-1.1094l0.10938-0.34375z"/>
  </symbol>
  <symbol id="j" overflow="visible">
   <path d="m11.688-2.9062h-6.4375l-1.0156 2.9062h-4.125l5.9062-15.953h4.9062l5.9062 15.953h-4.1406zm-5.4062-2.9531h4.375l-2.1875-6.3438z"/>
  </symbol>
  <symbol id="i" overflow="visible">
   <path d="m12.922-9.9688c0.48828-0.75 1.0625-1.3164 1.7188-1.7031 0.66406-0.38281 1.3984-0.57812 2.2031-0.57812 1.375 0 2.4219 0.42969 3.1406 1.2812 0.71875 0.84375 1.0781 2.0742 1.0781 3.6875v7.2812h-3.8438v-6.2344c0.007812-0.09375 0.015625-0.1875 0.015625-0.28125v-0.4375c0-0.84375-0.125-1.457-0.375-1.8438-0.25-0.38281-0.65234-0.57812-1.2031-0.57812-0.73047 0-1.293 0.30469-1.6875 0.90625-0.38672 0.59375-0.58984 1.4609-0.60938 2.5938v5.875h-3.8438v-6.2344c0-1.3203-0.11719-2.1758-0.34375-2.5625-0.23047-0.38281-0.63672-0.57812-1.2188-0.57812-0.73047 0-1.2969 0.30469-1.7031 0.90625-0.39844 0.60547-0.59375 1.4648-0.59375 2.5781v5.8906h-3.8438v-11.969h3.8438v1.75c0.46875-0.66406 1.0039-1.1719 1.6094-1.5156 0.61328-0.34375 1.2891-0.51562 2.0312-0.51562 0.82031 0 1.5508 0.19922 2.1875 0.59375 0.63281 0.39844 1.1133 0.96094 1.4375 1.6875z"/>
  </symbol>
  <symbol id="h" overflow="visible">
   <path d="m13.859-7.2812v7.2812h-3.8438v-5.5469c0-1.0508-0.027344-1.7695-0.078125-2.1562-0.042969-0.39453-0.12109-0.6875-0.23438-0.875-0.14844-0.25-0.35156-0.44141-0.60938-0.57812-0.25-0.14453-0.54297-0.21875-0.875-0.21875-0.79297 0-1.418 0.3125-1.875 0.9375-0.46094 0.61719-0.6875 1.4648-0.6875 2.5469v5.8906h-3.8125v-16.625h3.8125v6.4062c0.58203-0.69531 1.1953-1.207 1.8438-1.5312 0.64453-0.33203 1.3594-0.5 2.1406-0.5 1.3828 0 2.4297 0.42969 3.1406 1.2812 0.71875 0.84375 1.0781 2.0742 1.0781 3.6875z"/>
  </symbol>
  <symbol id="u" overflow="visible">
   <path d="m11.188-11.594v2.9062c-0.82422-0.34375-1.6172-0.59766-2.375-0.76562-0.76172-0.16406-1.4805-0.25-2.1562-0.25-0.73047 0-1.2734 0.089844-1.625 0.26562-0.35547 0.17969-0.53125 0.46094-0.53125 0.84375 0 0.30469 0.13281 0.53906 0.40625 0.70312 0.26953 0.16797 0.75 0.28906 1.4375 0.35938l0.67188 0.09375c1.957 0.25 3.2734 0.66406 3.9531 1.2344 0.67578 0.57422 1.0156 1.4648 1.0156 2.6719 0 1.2812-0.46875 2.2461-1.4062 2.8906-0.9375 0.63672-2.3438 0.95312-4.2188 0.95312-0.78125 0-1.5938-0.0625-2.4375-0.1875s-1.7148-0.3125-2.6094-0.5625v-2.9062c0.75781 0.375 1.5391 0.65625 2.3438 0.84375 0.80078 0.17969 1.6133 0.26562 2.4375 0.26562 0.75 0 1.3125-0.10156 1.6875-0.3125 0.38281-0.20703 0.57812-0.50781 0.57812-0.90625 0-0.34375-0.13281-0.59766-0.39062-0.76562-0.26172-0.16406-0.78125-0.29688-1.5625-0.39062l-0.67188-0.09375c-1.6992-0.20703-2.8906-0.59766-3.5781-1.1719-0.6875-0.58203-1.0312-1.4609-1.0312-2.6406 0-1.2695 0.42969-2.207 1.2969-2.8125 0.875-0.61328 2.2109-0.92188 4.0156-0.92188 0.69531 0 1.4297 0.054688 2.2031 0.15625 0.78125 0.10547 1.6289 0.27344 2.5469 0.5z"/>
  </symbol>
  <symbol id="t" overflow="visible">
   <path d="m13.109-15.438v3.375c-0.875-0.39453-1.7305-0.69141-2.5625-0.89062-0.83594-0.19531-1.6211-0.29688-2.3594-0.29688-0.99219 0-1.7188 0.13672-2.1875 0.40625-0.46875 0.27344-0.70312 0.6875-0.70312 1.25 0 0.42969 0.15625 0.76172 0.46875 1 0.32031 0.24219 0.89844 0.44922 1.7344 0.625l1.75 0.34375c1.7695 0.35547 3.0312 0.89844 3.7812 1.625 0.75 0.73047 1.125 1.7617 1.125 3.0938 0 1.7617-0.52734 3.0742-1.5781 3.9375-1.043 0.85547-2.6328 1.2812-4.7656 1.2812-1.0117 0-2.0273-0.10156-3.0469-0.29688-1.0234-0.1875-2.043-0.46875-3.0625-0.84375v-3.4688c1.0195 0.53125 2.0039 0.9375 2.9531 1.2188 0.95703 0.27344 1.875 0.40625 2.75 0.40625 0.90625 0 1.5938-0.14453 2.0625-0.4375 0.47656-0.30078 0.71875-0.73438 0.71875-1.2969 0-0.48828-0.16406-0.86719-0.48438-1.1406-0.32422-0.26953-0.96875-0.51562-1.9375-0.73438l-1.5938-0.35938c-1.5938-0.33203-2.7617-0.875-3.5-1.625-0.74219-0.75-1.1094-1.7578-1.1094-3.0312 0-1.582 0.50781-2.8008 1.5312-3.6562 1.0312-0.85156 2.5078-1.2812 4.4375-1.2812 0.875 0 1.7734 0.070313 2.7031 0.20312 0.92578 0.125 1.8828 0.32422 2.875 0.59375z"/>
  </symbol>
  <symbol id="g" overflow="visible">
   <path d="m1.7031-4.6562v-7.3125h3.8438v1.2031c0 0.64844-0.007813 1.4609-0.015625 2.4375v1.9688c0 0.96094 0.023438 1.6523 0.078125 2.0781 0.050781 0.41797 0.13281 0.72656 0.25 0.92188 0.15625 0.25 0.35938 0.44531 0.60938 0.57812 0.25781 0.13672 0.55078 0.20312 0.875 0.20312 0.80078 0 1.4258-0.30469 1.875-0.92188 0.45703-0.61328 0.6875-1.4688 0.6875-2.5625v-5.9062h3.8281v11.969h-3.8281v-1.7344c-0.57422 0.69922-1.1836 1.2148-1.8281 1.5469-0.64844 0.33203-1.3555 0.5-2.125 0.5-1.3867 0-2.4453-0.42188-3.1719-1.2656-0.71875-0.85156-1.0781-2.0859-1.0781-3.7031z"/>
  </symbol>
  <symbol id="s" overflow="visible">
   <path d="m1.8438-11.969h3.8125v11.969h-3.8125zm0-4.6562h3.8125v3.125h-3.8125z"/>
  </symbol>
  <symbol id="c" overflow="visible">
   <path d="m7.5312-9.5156c-0.84375 0-1.4922 0.30859-1.9375 0.92188-0.44922 0.60547-0.67188 1.4805-0.67188 2.625 0 1.1484 0.22266 2.0273 0.67188 2.6406 0.44531 0.60547 1.0938 0.90625 1.9375 0.90625 0.83203 0 1.4688-0.30078 1.9062-0.90625 0.44531-0.61328 0.67188-1.4922 0.67188-2.6406 0-1.1445-0.22656-2.0195-0.67188-2.625-0.4375-0.61328-1.0742-0.92188-1.9062-0.92188zm0-2.7344c2.0508 0 3.6562 0.55859 4.8125 1.6719 1.1641 1.1055 1.75 2.6406 1.75 4.6094s-0.58594 3.5117-1.75 4.625c-1.1562 1.1055-2.7617 1.6562-4.8125 1.6562-2.0625 0-3.6797-0.55078-4.8438-1.6562-1.168-1.1133-1.75-2.6562-1.75-4.625s0.58203-3.5039 1.75-4.6094c1.1641-1.1133 2.7812-1.6719 4.8438-1.6719z"/>
  </symbol>
  <symbol id="r" overflow="visible">
   <path d="m9.7031-16.625v2.5156h-2.1094c-0.54297 0-0.92188 0.10156-1.1406 0.29688-0.21094 0.19922-0.3125 0.53906-0.3125 1.0156v0.82812h3.2656v2.7344h-3.2656v9.2344h-3.8281v-9.2344h-1.8906v-2.7344h1.8906v-0.82812c0-1.3008 0.36328-2.2656 1.0938-2.8906 0.72656-0.625 1.8516-0.9375 3.375-0.9375z"/>
  </symbol>
  <symbol id="q" overflow="visible">
   <path d="m2.0156-15.953h4.5781l5.8125 10.938v-10.938h3.8906v15.953h-4.5938l-5.7969-10.938v10.938h-3.8906z"/>
  </symbol>
  <symbol id="p" overflow="visible">
   <path d="m13.859-7.2812v7.2812h-3.8438v-5.5781c0-1.0312-0.027344-1.7383-0.078125-2.125-0.042969-0.39453-0.12109-0.6875-0.23438-0.875-0.14844-0.25-0.35156-0.44141-0.60938-0.57812-0.25-0.14453-0.54297-0.21875-0.875-0.21875-0.79297 0-1.418 0.3125-1.875 0.9375-0.46094 0.61719-0.6875 1.4648-0.6875 2.5469v5.8906h-3.8125v-11.969h3.8125v1.75c0.58203-0.69531 1.1953-1.207 1.8438-1.5312 0.64453-0.33203 1.3594-0.5 2.1406-0.5 1.3828 0 2.4297 0.42969 3.1406 1.2812 0.71875 0.84375 1.0781 2.0742 1.0781 3.6875z"/>
  </symbol>
  <symbol id="o" overflow="visible">
   <path d="m2.0156-15.953h6.8125c2.0312 0 3.5859 0.45312 4.6719 1.3594 1.0938 0.89844 1.6406 2.1797 1.6406 3.8438 0 1.6797-0.54688 2.9688-1.6406 3.875-1.0859 0.89844-2.6406 1.3438-4.6719 1.3438h-2.7031v5.5312h-4.1094zm4.1094 2.9844v4.4531h2.2656c0.80078 0 1.4141-0.19141 1.8438-0.57812 0.4375-0.38281 0.65625-0.9375 0.65625-1.6562 0-0.70703-0.21875-1.2539-0.65625-1.6406-0.42969-0.38281-1.043-0.57812-1.8438-0.57812z"/>
  </symbol>
  <symbol id="n" overflow="visible">
   <path d="m1.8438-11.969h3.8125v11.75c0 1.6016-0.38672 2.8281-1.1562 3.6719-0.76172 0.84375-1.8711 1.2656-3.3281 1.2656h-1.8906v-2.5h0.65625c0.72656 0 1.2266-0.16797 1.5-0.5 0.26953-0.32422 0.40625-0.96875 0.40625-1.9375zm0-4.6562h3.8125v3.125h-3.8125z"/>
  </symbol>
  <symbol id="m" overflow="visible">
   <path d="m11.5-11.594v3.125c-0.52344-0.35156-1.043-0.61328-1.5625-0.78125-0.52344-0.17578-1.0625-0.26562-1.625-0.26562-1.0742 0-1.9062 0.3125-2.5 0.9375s-0.89062 1.4961-0.89062 2.6094c0 1.1172 0.29688 1.9844 0.89062 2.6094s1.4258 0.9375 2.5 0.9375c0.59375 0 1.1562-0.085937 1.6875-0.26562 0.53906-0.17578 1.0391-0.44141 1.5-0.79688v3.125c-0.59375 0.23047-1.1992 0.39453-1.8125 0.5-0.61719 0.11328-1.2344 0.17188-1.8594 0.17188-2.1562 0-3.8438-0.55078-5.0625-1.6562-1.2188-1.1133-1.8281-2.6562-1.8281-4.625s0.60938-3.5039 1.8281-4.6094c1.2188-1.1133 2.9062-1.6719 5.0625-1.6719 0.625 0 1.2383 0.058594 1.8438 0.17188 0.61328 0.10547 1.2227 0.26562 1.8281 0.48438z"/>
  </symbol>
 </defs>
 <g>
  <path d="m274.42 341.14c2.3477-0.54297 4.7031 0.90625 5.2578 3.2578 0.070313 0.31641 6.6094 27.758 16.902 44.777 7.7734-26.711 20.695-43.547 35.922-43.547l13.152-0.023438c22.98-0.097656 55.824-0.19531 92.684 3.5352 20.531-12.383 38.32-26.273 52.855-41.328 0.12109-0.125 0.25781-0.25391 0.39844-0.36328 90.816-73.434 122.75-246.02 125.27-276.95 0.39453-4.7812-3.543-10.797-9.3594-14.305-4.207-2.543-12.832-5.8086-23.309 0.84766-4.8477 3.0781-9.6328 5.9688-14.289 8.6641 4.7852 6.1484 13.039 15.867 18.312 18.5 2.1602 1.082 3.0352 3.7109 1.957 5.8711-0.76953 1.5352-2.3086 2.418-3.9219 2.418-0.65625 0-1.3242-0.14844-1.9531-0.46094-7.6797-3.8398-17.816-16.367-22.102-21.973-10.035 5.5547-19.082 10.09-25.969 13.355-7.0352 3.3477-16.062 7.3906-23.422 8.9766-16.18 3.4766-31.789 4.8945-49.148 4.4727-39.016-0.94141-72.816 5.2656-102.05 16 2.9219 10.781 16.703 58.211 39.898 86.211 1.5391 1.8594 1.2812 4.6211-0.58203 6.1602-0.82422 0.69141-1.8086 1.0195-2.793 1.0195-1.2617 0-2.5078-0.53906-3.375-1.582-23.949-28.914-37.82-75.566-41.355-88.551-56.352 23.008-94.801 62.934-119.95 99.742 0.023437 0.074219 0.078125 0.12109 0.10156 0.19531 0.10938 0.40625 11.266 40.695 32.047 61.477 1.7109 1.7109 1.7109 4.4766 0 6.1875-0.85938 0.85156-1.9766 1.2812-3.0977 1.2812s-2.2383-0.42969-3.0938-1.2812c-17.219-17.219-27.906-45.422-32.172-58.418-15.855 25.012-25.586 47.672-30.629 61.227-1.0469 2.8047-3.293 7.0391-5.4648 11.141-1.3633 2.5781-2.6562 5.0039-3.3984 6.6445-5.3594 11.828-11.035 23.238-16.941 34.172 0.007813 0.03125 0.03125 0.058594 0.035157 0.085937 0.085937 0.44922 8.5625 45.266 33.512 70.215 1.7109 1.7109 1.7109 4.4766 0 6.1875-0.85938 0.84766-1.9766 1.2773-3.0977 1.2773s-2.2383-0.42969-3.0938-1.2812c-19.762-19.762-29.68-49.801-33.695-65.129-22.898 39.887-48.879 72.273-74.316 91.977-5.625 4.3516-8.0469 10.578-6.1641 15.855 1.625 4.5586 5.9453 7.0312 12.125 6.9336 74.059-1.8906 140.31-9.1562 197.09-21.539 0.17969-0.89844 0.36328-1.7891 0.55078-2.6641-13.812-17.156-22.227-52.496-22.582-54.004-0.55469-2.3555 0.90625-4.7109 3.2578-5.2617zm231.65-227.14c2.2812-0.78906 4.7734 0.42578 5.5664 2.7031 0.16016 0.46875 16.578 47.363 45.078 83.719 1.4922 1.9023 1.1602 4.6523-0.74219 6.1406-0.80469 0.62891-1.75 0.93359-2.6953 0.93359-1.3008 0-2.5859-0.57812-3.4492-1.6758-29.43-37.539-45.781-84.289-46.461-86.258-0.79297-2.2812 0.41797-4.7773 2.7031-5.5625zm-139.43 96.094c2.3984-0.48438 4.6758 1.0586 5.1484 3.4297 4.082 20.395 22.457 54.949 42.301 71.91 1.8359 1.5664 2.0547 4.3281 0.48047 6.1641-0.86328 1.0156-2.0859 1.5352-3.3203 1.5352-1.0078 0-2.0156-0.34375-2.8398-1.0508-21.523-18.391-40.746-54.582-45.199-76.84-0.47656-2.375 1.0664-4.6758 3.4297-5.1484z"/>
  <path d="m611.84 391.16c-2.082-1.832-4.4258-2.4531-7.1953-1.8711-22.969 4.7773-49.324-4.1406-50.434-4.5234-13.848-5.5273-27.953-10.016-42.043-13.723 0.9375 12.891 3.4688 54.574-0.32031 84.508-0.28125 2.2148-2.1602 3.8281-4.3359 3.8281-0.18359 0-0.36719-0.011719-0.55078-0.035156-2.4023-0.30078-4.0977-2.4883-3.793-4.8867 4-31.625 0.61719-78.465 0.058594-85.629-28.668-6.8633-56.988-10.523-82.734-12.422 1.0469 11 3.0273 37.926-0.57031 55.711-0.42578 2.082-2.25 3.5117-4.2891 3.5117-0.28516 0-0.58203-0.027344-0.87109-0.085938-2.3672-0.48047-3.9023-2.793-3.4219-5.1562 3.4961-17.285 1.2148-45.16 0.28906-54.594-23.574-1.4258-44.492-1.4883-61.07-1.4453 15.422 15.883 25.695 52.051 25.695 96.281 0 44.199-10.258 80.348-25.668 96.25h34.016c12.137-25.039 9.1914-69.242 9.1602-69.695-0.17187-2.4102 1.6445-4.5 4.0547-4.668 2.4844-0.23438 4.4961 1.6445 4.668 4.0547 0.13281 1.8359 2.8672 42.977-8.3086 70.305h3.5c71.125 2.7383 120.45-14.172 154.09-37.762 3.9766-15.926-0.4375-48.816-0.48438-49.148-0.32422-2.3945 1.3516-4.5977 3.7461-4.9258 2.3984-0.31641 4.5977 1.3516 4.9258 3.7422 0.16016 1.1914 3.3164 24.844 1.7656 42.816 39.207-31.984 53.367-72.867 55.16-95.078 0.5-6.082-1.5352-12.258-5.043-15.359z"/>
  <path d="m332.5 354.38c-16.902 0-35 38.676-35 96.25s18.098 96.25 35 96.25 35-38.676 35-96.25-18.098-96.25-35-96.25zm-13.211 130.38c0.47656 2.3672-1.0547 4.6758-3.4219 5.1562-0.28906 0.0625-0.58594 0.085938-0.87109 0.085938-2.0391 0-3.8633-1.4297-4.2812-3.5078-8.9414-44.215-0.32422-79.219 0.046875-80.688 0.59375-2.3398 2.9609-3.7617 5.3125-3.1719 2.3398 0.59375 3.7617 2.9688 3.1758 5.3125-0.09375 0.33984-8.4922 34.645 0.039062 76.812zm21.961 40.242c-0.44141 0-0.88672-0.066406-1.3281-0.21094-2.3008-0.73437-3.5742-3.1953-2.8359-5.5 25.566-80.07-3.6836-131.57-3.9805-132.08-1.2148-2.0859-0.51953-4.7656 1.5586-5.9805 2.0781-1.2188 4.7617-0.53516 5.9805 1.5469 1.3047 2.2148 31.609 55.152 4.7734 139.18-0.59375 1.8594-2.3125 3.0469-4.168 3.0469z"/>
  <use x="70" y="625.625" xlink:href="#v"/>
  <use x="86.054688" y="625.625" xlink:href="#d"/>
  <use x="96.839844" y="625.625" xlink:href="#b"/>
  <use x="111.679687" y="625.625" xlink:href="#l"/>
  <use x="126.4375" y="625.625" xlink:href="#a"/>
  <use x="136.894531" y="625.625" xlink:href="#b"/>
  <use x="151.730469" y="625.625" xlink:href="#f"/>
  <use x="175.007812" y="625.625" xlink:href="#k"/>
  <use x="190.664062" y="625.625" xlink:href="#e"/>
  <use x="212.539062" y="625.625" xlink:href="#j"/>
  <use x="229.46875" y="625.625" xlink:href="#i"/>
  <use x="252.261719" y="625.625" xlink:href="#b"/>
  <use x="267.097656" y="625.625" xlink:href="#a"/>
  <use x="277.554688" y="625.625" xlink:href="#h"/>
  <use x="293.128906" y="625.625" xlink:href="#e"/>
  <use x="307.386719" y="625.625" xlink:href="#u"/>
  <use x="320.410156" y="625.625" xlink:href="#a"/>
  <use x="338.480469" y="625.625" xlink:href="#t"/>
  <use x="354.234375" y="625.625" xlink:href="#a"/>
  <use x="364.691406" y="625.625" xlink:href="#g"/>
  <use x="380.265625" y="625.625" xlink:href="#f"/>
  <use x="395.925781" y="625.625" xlink:href="#s"/>
  <use x="403.421875" y="625.625" xlink:href="#c"/>
  <use x="70" y="647.5" xlink:href="#r"/>
  <use x="79.515625" y="647.5" xlink:href="#d"/>
  <use x="90.304688" y="647.5" xlink:href="#c"/>
  <use x="105.332031" y="647.5" xlink:href="#i"/>
  <use x="135.742188" y="647.5" xlink:href="#a"/>
  <use x="146.199219" y="647.5" xlink:href="#h"/>
  <use x="161.773438" y="647.5" xlink:href="#b"/>
  <use x="184.222656" y="647.5" xlink:href="#q"/>
  <use x="202.53125" y="647.5" xlink:href="#c"/>
  <use x="217.558594" y="647.5" xlink:href="#g"/>
  <use x="233.132812" y="647.5" xlink:href="#p"/>
  <use x="256.320312" y="647.5" xlink:href="#o"/>
  <use x="272.355469" y="647.5" xlink:href="#d"/>
  <use x="283.140625" y="647.5" xlink:href="#c"/>
  <use x="298.171875" y="647.5" xlink:href="#n"/>
  <use x="305.667969" y="647.5" xlink:href="#b"/>
  <use x="320.503906" y="647.5" xlink:href="#m"/>
  <use x="333.472656" y="647.5" xlink:href="#a"/>
 </g>
</svg>
